<?xml version="1.0" encoding="utf-8"?>
<!-- Generator: Adobe Illustrator 23.0.3, SVG Export Plug-In . SVG Version: 6.00 Build 0)  -->
<svg version="1.1" id="Layer_1" xmlns="http://www.w3.org/2000/svg" xmlns:xlink="http://www.w3.org/1999/xlink" x="0px" y="0px"
	 viewBox="0 0 150 150" style="enable-background:new 0 0 150 150;" xml:space="preserve">
<style type="text/css">
	.st0{fill:#FFFFFF;}
	.st1{fill:#FFD900;}
	.st2{fill:#EC1A3B;}
	.st3{fill:#242144;}
	.st4{fill:none;}
</style>
<g>
	<path class="st0" d="M143.64,46.71C143.64,46.71,143.64,46.71,143.64,46.71c-0.2,0.12-4.84,2.96-10.81,3.31l-4.9,0
		c-1.24,0-2.48,0.24-3.7,0.7c-0.99,0.38-1.93,0.9-2.79,1.54c-0.59,0.57-0.91,0.78-0.91,0.78l1.92-5.01h-10.33
		c-14.62-21.3-43.39-28.45-66.46-15.7c-7.79,4.3-14.01,10.37-18.43,17.43c-0.07,0.01-0.14,0.02-0.21,0.03l-0.59,0.16
		c-0.46,0.16-0.97,0.36-1.56,0.72c-0.06,0.03-0.12,0.04-0.18,0.04l-0.29-0.04l-0.25,0l-0.16,0c-0.18,0-0.36,0.01-0.54,0.02
		l-1.11,0.14c-0.11,0.04-0.34,0.11-0.67,0.23c-0.78,0.27-1.44,0.65-1.98,1.15c-0.07,0.06-0.16,0.09-0.25,0.06l-2.07-0.52l-0.65,0.9
		c-0.76,1.04-1.72,3.6-0.54,6.56c0.04,0.15,0.09,0.28,0.14,0.41c0.02,0.04,0.02,0.08,0.02,0.13c-0.02,0.24-0.04,0.47-0.04,0.7
		c0,0.59,0.06,1.15,0.19,1.72c0.01,0.06,0.01,0.12-0.02,0.17l-0.26,0.58c-1.73,3.79-0.09,7,0.69,8.21c0.05,0.08,0.06,0.17,0.02,0.26
		l-3.93,9.25l3.42,0l-3.67,14.64c-0.15,0.47-0.32,0.91-0.51,1.33c-0.63,1.37-1.33,2.16-1.47,2.3L1,107.65l16.25-0.08
		c0.67,0,1.33-0.07,1.96-0.22c0.85-0.19,1.73-0.55,2.53-1.04c0.38-0.23,0.74-0.48,1.16-0.79c0.05-0.04,0.11-0.06,0.17-0.06
		c0.07,0,0.13,0.02,0.18,0.07c0.1,0.09,0.2,0.17,0.3,0.26c0.71,0.57,1.54,1.02,2.46,1.34c1.04,0.36,2.5,0.51,3.83,0.56
		c15.02,19.68,42.66,25.95,64.96,13.63c8.64-4.77,15.34-11.71,19.81-19.76c0.55-0.19,1.08-0.4,1.56-0.64
		c1.2-0.62,2.3-1.45,3.26-2.47c0,0,0.01-0.01,0.01-0.01c0.76-0.82,1.41-1.72,1.96-2.71c0.4-0.72,0.74-1.48,1-2.25l0.08-0.24
		l6.42-24.34c0-0.02,0.01-0.04,0.02-0.05l0.08-0.17l0-0.13c0-0.06,0.02-0.12,0.06-0.17c0.11-0.13,0.59-0.59,2.09-0.75l2.72-0.32
		c0,0,0.09-0.01,0.09-0.01l0.15-0.03c0.55-0.13,1.02-0.27,1.48-0.45c0.47-0.18,1.24-0.6,1.46-0.73l0.12-0.07l1.3-1.11
		c0.15-0.17,0.29-0.35,0.33-0.39l0.46-0.7c0.06-0.1,0.1-0.17,0.16-0.29l0.12-0.25l1.71-4.07l7.05-15.46L143.64,46.71z"/>
	<g>
		<g>
			<polygon class="st1" points="16.42,58.86 16.42,58.85 16.42,58.85 			"/>
		</g>
		<g>
			<path class="st2" d="M97.88,106.1c0.09-0.07,0.18-0.14,0.27-0.2h-1.17c-0.73,0-1.45-0.14-2.12-0.42
				c-0.67-0.28-1.27-0.68-1.76-1.19c-1-1.01-1.55-2.4-1.55-3.81l0,0v-0.01c0-0.18,0.02-0.36,0.04-0.54
				c-0.79,0.27-1.63,0.44-2.54,0.45l-0.46,0l-1.46,5.52l-5.25,0h-0.47c-0.84,0-1.65-0.1-2.44-0.28c-2.2,3-3.72,5.89-4.11,8.77
				C83.07,113.8,91,110.99,97.88,106.1z"/>
			<path class="st2" d="M74.86,116.2c0.28,1.48,1.28,3.04,2.69,4.05c1.47,1.05,3.2,1.39,4.99,1.02c5.09-1.42,9.95-3.72,14.38-6.87
				c3.64-2.59,6.83-5.63,9.53-9.04c-1.06,0.32-2.22,0.52-3.49,0.54h-0.04h-1.78c-0.72,0.58-1.46,1.14-2.22,1.68
				C91.73,112.69,83.45,115.62,74.86,116.2z"/>
			<path class="st2" d="M70.16,30.94c-7.46,0-14.85,1.83-21.62,5.44c-1.97,1.05-3.84,2.23-5.61,3.53c-2.05,3.61-3.23,7.26-3.76,10.9
				l1.75,0.1c0.8,0.05,1.51,0.09,2.11,0.1c0.07,0,0.13,0,0.15,0c0.47,0,0.87-0.02,1.16-0.07c0.54-0.08,0.88-0.2,1.09-0.29
				c0.19-0.08,0.27-0.15,0.3-0.17c0,0,1.65-1.58,3.69-1.53c0.21,0.01,0.43,0.02,0.65,0.07c0,0,0.55,0.13,1.11,0.53h22.78l3.07-18.09
				C74.74,31.11,72.45,30.94,70.16,30.94z"/>
			<path class="st2" d="M83.63,32.95c-1.59-0.48-3.2-0.88-4.81-1.19L75.8,49.55h31.38C101.34,41.66,93.19,35.86,83.63,32.95z"/>
			<path class="st2" d="M73.02,114.48c0.36-3.18,1.89-6.3,4.15-9.47c-0.98-0.44-1.87-1.04-2.62-1.77l0,0
				c-0.87-0.85-1.55-1.89-2.01-3.03c-0.21-0.53-0.37-1.08-0.48-1.64c-0.24,0.16-0.47,0.31-0.71,0.45l0,0
				c-0.87,0.5-1.66,0.83-2.33,1.04c-0.38,0.76-0.81,1.46-1.3,2.06c-0.32,0.4-0.66,0.75-1.01,1.08l-1.83,10.78
				C67.6,114.39,70.32,114.56,73.02,114.48z"/>
			<path class="st2" d="M31.58,51.94c0.32,0.02,0.65,0.03,0.9,0.03c0.2,0,0.34,0,0.39-0.01l0.03,0l0.04,0c0.01,0,0.02,0,0.09,0h0.45
				c0.03-0.02,0.05-0.05,0.08-0.07l0.02-0.01c0.42-0.31,0.99-0.63,1.64-0.84c0.63-0.21,1.34-0.32,2.09-0.32
				c0.38-2.69,1.1-5.39,2.24-8.09C36.49,45.36,33.81,48.49,31.58,51.94z"/>
			<path class="st2" d="M62.79,115.47c-2.93-0.55-5.77-1.36-8.49-2.43c-0.93,1.84-2.86,3.4-5.1,4.06c-0.37,0.11-0.75,0.19-1.12,0.25
				c4.2,2.27,8.77,3.9,13.59,4.79L62.79,115.47z"/>
			<path class="st2" d="M54.87,111.31c2.64,1.04,5.39,1.83,8.22,2.36l1.52-8.97c-0.72,0.39-1.42,0.66-2.07,0.84
				c-0.81,0.23-1.53,0.34-2.11,0.38l-0.13,0.01h-5.23C55.29,107.82,55.25,109.61,54.87,111.31z"/>
			<path class="st2" d="M77.54,122.36c-0.36-0.18-0.71-0.39-1.05-0.63c-1.88-1.35-3.17-3.42-3.47-5.44
				c-0.45,0.01-0.9,0.03-1.35,0.03c-2.36,0-4.73-0.19-7.1-0.54l-1.13,6.67C68.19,123.14,72.93,123.1,77.54,122.36z"/>
			<path class="st2" d="M53.25,105.94h-8.23c2.54,1.83,5.27,3.4,8.15,4.67C53.45,109.15,53.45,107.59,53.25,105.94z"/>
			<path class="st2" d="M37.81,109.76c0.48,0.48,0.98,0.94,1.49,1.4c0.21,0.19,0.41,0.38,0.63,0.56c0.28,0.25,0.58,0.48,0.86,0.72
				c1.08,0.89,2.2,1.73,3.36,2.52c1.43,0.71,2.99,0.86,4.54,0.4c1.7-0.5,3.19-1.68,3.92-3.02c-3.8-1.66-7.36-3.81-10.59-6.41h-0.28
				l0,0c-4.28,0-5.83-4.1-5.83-4.1l-0.99,4.1h-0.55c1.03,1.28,2.12,2.5,3.28,3.66C37.7,109.65,37.76,109.71,37.81,109.76z"/>
			<path class="st3" d="M132.87,51.53h-4.94c-1.1,0-2.15,0.22-3.12,0.59c-0.97,0.37-1.86,0.89-2.67,1.52
				c-0.8,0.64-1.51,1.39-2.1,2.24c-0.13,0.19-0.26,0.4-0.37,0.6l-2.3,0l2.68-6.95h-9.53c-7.19-10.68-18.57-18.52-32.24-20.84
				C58.16,25.3,38.8,34.82,28.69,51.2c-0.13-0.01-0.26-0.03-0.38-0.03h-0.02c-0.33,0-0.66,0.04-0.96,0.1l-0.2,0.04l-0.2,0.07
				c-0.33,0.12-0.75,0.27-1.25,0.58l-0.02,0.01c-0.17,0.11-0.34,0.23-0.52,0.37c-0.22-0.06-0.43-0.1-0.64-0.12l-0.24-0.04h-0.19
				l-0.01,0l-0.05,0h-0.06c-0.3,0-0.62,0.02-1.05,0.11c0,0-0.42,0.08-0.74,0.19c-0.74,0.25-1.2,0.6-1.5,0.9
				c-0.35,0.35-0.46,0.65-0.46,0.65l-2.19-0.55c0,0-1.54,2.12-0.3,5.08c0.11,0.42,0.24,0.61,0.29,0.66l0.02,0.01
				c-0.06,0.36-0.1,0.72-0.1,1.08c0,0.45,0.05,0.92,0.16,1.4c0.05,0.21,0.12,0.43,0.2,0.66c-0.17,0.26-0.35,0.56-0.49,0.92
				c-0.02,0.05-0.04,0.12-0.06,0.17l-0.05,0c-1.54,3.38,0.15,6.24,1.16,7.42l-3.39,7.97h3.23L15.5,90.82l-1.19,4.78
				c-0.18,0.58-0.39,1.1-0.6,1.57c-0.85,1.86-1.83,2.81-1.83,2.81l-6.56,5.88l8.79-0.06h1.6h1.54h0.01c0.53,0,1.06-0.06,1.58-0.18
				c0.78-0.18,1.48-0.5,2.04-0.84c0.57-0.34,1.02-0.69,1.45-1.03l0.01,0c0.33-0.26,0.63-0.54,0.92-0.84
				c0.36,0.57,0.8,1.07,1.31,1.48l0.01,0c0.58,0.47,1.26,0.82,1.96,1.06c1.31,0.45,3.64,0.5,4.75,0.5
				c7.22,9.6,17.98,16.57,30.73,18.73c2.75,0.47,5.5,0.7,8.24,0.7c10.01,0,19.75-3.09,28.08-9c5.55-3.94,10.12-8.9,13.52-14.57
				c0.49-0.56,0.88-1.11,1.17-1.58c0.01-0.02,0.02-0.03,0.03-0.04c0.85-0.2,1.65-0.49,2.36-0.85c1.16-0.6,2.1-1.37,2.84-2.16l0,0
				c0.74-0.8,1.29-1.62,1.71-2.37c0.42-0.75,0.7-1.44,0.89-1.99l0.04-0.12l0.4-1.5l1.01-3.81l0,0l5.07-19.22l0,0c0,0,0-0.01,0-0.01
				l0.09-0.35c0.01-0.05,0.04-0.1,0.06-0.16c0.28-0.6,1.09-1.53,3.47-1.79l2.71-0.32c0.02,0,0.04-0.01,0.06-0.01
				c0.4-0.09,0.82-0.21,1.27-0.38c0.4-0.15,0.81-0.35,1.25-0.63l0,0c0.01,0,0.01-0.01,0.01-0.01c0.01,0,0.01-0.01,0.02-0.01l0,0
				c0.24-0.15,0.45-0.32,0.62-0.47l0.05-0.04l0.04-0.04c0.22-0.21,0.33-0.35,0.44-0.49l0.07-0.09l0.07-0.1
				c0-0.01,0.05-0.08,0.11-0.17c0.03-0.05,0.06-0.1,0.1-0.16l0.07-0.11c0.03-0.05,0.06-0.09,0.11-0.19l0.06-0.12l1.43-3.41
				l0.01-0.02l0.28-0.67l4.76-10.44C144.51,47.97,139.5,51.16,132.87,51.53z M78.82,31.77c1.61,0.31,3.22,0.7,4.81,1.19
				c9.56,2.9,17.72,8.71,23.55,16.59H75.8L78.82,31.77z M66.71,103.2c0.35-0.33,0.69-0.68,1.01-1.08c0.49-0.6,0.92-1.3,1.3-2.06
				c0.66-0.22,1.46-0.54,2.33-1.04l0,0c0.23-0.13,0.47-0.28,0.71-0.45c0.11,0.56,0.27,1.12,0.48,1.64c0.46,1.14,1.14,2.17,2.01,3.03
				l0,0c0.75,0.73,1.64,1.33,2.62,1.77c-2.26,3.17-3.79,6.29-4.15,9.47c-2.7,0.08-5.42-0.09-8.14-0.5L66.71,103.2z M78.98,105.61
				c0.78,0.18,1.6,0.28,2.44,0.28h0.47l5.25,0l1.46-5.52l0.46,0c0.91,0,1.75-0.18,2.54-0.45c-0.02,0.18-0.04,0.36-0.04,0.54v0.01
				l0,0c0,1.41,0.55,2.8,1.55,3.81c0.5,0.5,1.1,0.91,1.76,1.19c0.66,0.28,1.39,0.42,2.12,0.42h1.17c-0.09,0.07-0.18,0.14-0.27,0.2
				c-6.88,4.89-14.8,7.7-23.02,8.28C75.26,111.51,76.78,108.61,78.98,105.61z M48.54,36.38c6.77-3.61,14.16-5.44,21.62-5.44
				c2.29,0,4.58,0.17,6.86,0.52l-3.07,18.09H51.19c-0.56-0.4-1.11-0.53-1.11-0.53c-0.22-0.05-0.44-0.06-0.65-0.07
				c-2.04-0.05-3.69,1.53-3.69,1.53c-0.03,0.03-0.11,0.09-0.3,0.17c-0.21,0.09-0.55,0.21-1.09,0.29c-0.29,0.04-0.68,0.07-1.16,0.07
				c-0.02,0-0.08,0-0.15,0c-0.6,0-1.3-0.05-2.11-0.1l-1.75-0.1c0.53-3.65,1.71-7.29,3.76-10.9C44.7,38.62,46.57,37.43,48.54,36.38z
				 M53.17,110.61c-2.88-1.27-5.61-2.84-8.15-4.67h8.23C53.45,107.59,53.45,109.15,53.17,110.61z M39.56,42.63
				c-1.14,2.7-1.85,5.39-2.24,8.09c-0.75,0.01-1.46,0.12-2.09,0.32c-0.65,0.21-1.22,0.52-1.64,0.84l-0.02,0.01
				c-0.03,0.02-0.05,0.05-0.08,0.07h-0.45c-0.07,0-0.07,0-0.09,0l-0.04,0l-0.03,0c-0.05,0-0.2,0.01-0.39,0.01
				c-0.25,0-0.58-0.01-0.9-0.03C33.81,48.49,36.49,45.36,39.56,42.63z M44.15,114.96c-1.16-0.79-2.27-1.63-3.36-2.52
				c-0.29-0.24-0.58-0.47-0.86-0.72c-0.21-0.18-0.42-0.38-0.63-0.56c-0.5-0.46-1-0.92-1.49-1.4c-0.06-0.06-0.11-0.11-0.17-0.17
				c-1.15-1.16-2.25-2.38-3.28-3.66h0.55l0.99-4.1c0,0,1.55,4.1,5.83,4.1l0,0h0.28c3.23,2.59,6.78,4.75,10.59,6.41
				c-0.73,1.34-2.22,2.52-3.92,3.02C47.14,115.82,45.58,115.66,44.15,114.96z M61.66,122.14c-4.82-0.9-9.39-2.52-13.59-4.79
				c0.37-0.06,0.75-0.14,1.12-0.25c2.25-0.66,4.17-2.22,5.1-4.06c2.72,1.06,5.56,1.87,8.49,2.43L61.66,122.14z M54.87,111.31
				c0.38-1.7,0.42-3.49,0.21-5.37h5.23l0.13-0.01c0.59-0.05,1.31-0.15,2.11-0.38c0.65-0.19,1.35-0.46,2.07-0.84l-1.52,8.97
				C60.26,113.14,57.51,112.35,54.87,111.31z M63.45,122.44l1.13-6.67c2.37,0.36,4.74,0.54,7.1,0.54c0.45,0,0.9-0.01,1.35-0.03
				c0.3,2.02,1.59,4.1,3.47,5.44c0.34,0.24,0.69,0.45,1.05,0.63C72.93,123.1,68.19,123.14,63.45,122.44z M96.93,114.4
				c-4.44,3.15-9.29,5.45-14.38,6.87c-1.79,0.37-3.52,0.04-4.99-1.02c-1.41-1.01-2.42-2.57-2.69-4.05
				c8.59-0.58,16.88-3.51,24.07-8.62c0.76-0.54,1.5-1.1,2.22-1.68h1.78h0.04c1.26-0.01,2.43-0.21,3.49-0.54
				C103.76,108.77,100.57,111.81,96.93,114.4z"/>
		</g>
		<g>
			<g>
				<path class="st2" d="M53.47,56.24h2.61l-0.47,0.45l-0.09,0.35h-3.48l1.39-5.25H55l-0.47,0.45L53.47,56.24z"/>
				<path class="st2" d="M58.68,52.84c0.16-0.61,0.73-1.06,1.36-1.06h3.79l-0.47,0.45l-0.99,3.74c-0.16,0.61-0.73,1.06-1.36,1.06
					h-3.45L58.68,52.84z M59,56.24h1.33c0.45,0,0.85-0.3,0.96-0.74l0.77-2.91h-1.33c-0.45,0-0.85,0.3-0.96,0.74L59,56.24z"/>
				<path class="st2" d="M65.26,52.84c0.16-0.61,0.73-1.06,1.36-1.06h3.79l-0.47,0.45l-0.99,3.74c-0.16,0.61-0.73,1.06-1.36,1.06
					h-3.45L65.26,52.84z M65.57,56.24h1.33c0.45,0,0.85-0.3,0.96-0.74l0.77-2.91h-1.33c-0.45,0-0.85,0.3-0.96,0.74L65.57,56.24z"/>
				<path class="st2" d="M75.46,51.78h1.52l-0.47,0.45l-1.07,4.07c-0.11,0.43-0.51,0.74-0.94,0.74h-0.56l-1.12-3.45l-0.91,3.45
					h-1.17l1.19-4.52c0.11-0.43,0.51-0.74,0.94-0.74h0.56l1.12,3.45L75.46,51.78z"/>
				<path class="st2" d="M80.12,54.09h2.83l-0.47,0.45l-0.38,1.44c-0.16,0.61-0.73,1.06-1.36,1.06h-3.46l1.11-4.19
					c0.16-0.61,0.73-1.06,1.36-1.06h3.81l-0.47,0.45l-0.33,1.25h-1.21l0.25-0.93h-1.33c-0.45,0-0.85,0.3-0.96,0.74l-0.79,2.98h1.33
					c0.45,0,0.85-0.3,0.96-0.74l0.18-0.68h-1.27L80.12,54.09z"/>
				<path class="st2" d="M88.35,56.24h2.61l-0.47,0.45l-0.09,0.35h-3.48l1.39-5.25h1.56l-0.47,0.45L88.35,56.24z"/>
				<path class="st2" d="M93.77,51.78h1.56l-0.47,0.45l-1.07,4.07c-0.11,0.43-0.51,0.74-0.94,0.74h-0.47L93.77,51.78z"/>
				<path class="st2" d="M96.7,52.92c0.17-0.65,0.78-1.13,1.45-1.13h3.72l-0.47,0.45l-0.99,3.74c-0.16,0.61-0.73,1.06-1.36,1.06
					h-3.45L96.7,52.92z M97.04,56.24h1.33c0.45,0,0.85-0.3,0.96-0.74l0.77-2.91h-1.33c-0.45,0-0.85,0.3-0.96,0.74L97.04,56.24z"/>
				<path class="st2" d="M106.92,51.78h1.52l-0.47,0.45l-1.07,4.07c-0.11,0.43-0.51,0.74-0.94,0.74h-0.56l-1.12-3.45l-0.91,3.45
					h-1.17l1.14-4.31c0.14-0.54,0.65-0.94,1.2-0.94h0.36l1.12,3.45L106.92,51.78z"/>
				<path class="st2" d="M109.85,52.84c0.16-0.61,0.73-1.06,1.36-1.06h3.47l-0.47,0.45l-0.32,1.19h-1.21l0.23-0.88h-1.01
					c-0.45,0-0.85,0.3-0.96,0.74l-0.07,0.28l2.84,0.91l-0.4,1.5c-0.16,0.61-0.73,1.06-1.36,1.06h-3.31l0.47-1.8h1.56l-0.47,0.45
					l-0.15,0.58h1.19c0.45,0,0.85-0.3,0.96-0.74l0.11-0.41l-2.84-0.91L109.85,52.84z"/>
			</g>
			<g>
				<g>
					<path class="st0" d="M53.47,56.24h2.61l-0.47,0.45l-0.09,0.35h-3.48l1.39-5.25H55l-0.47,0.45L53.47,56.24z"/>
					<path class="st0" d="M58.68,52.84c0.16-0.61,0.73-1.06,1.36-1.06h3.79l-0.47,0.45l-0.99,3.74c-0.16,0.61-0.73,1.06-1.36,1.06
						h-3.45L58.68,52.84z M59,56.24h1.33c0.45,0,0.85-0.3,0.96-0.74l0.77-2.91h-1.33c-0.45,0-0.85,0.3-0.96,0.74L59,56.24z"/>
					<path class="st0" d="M65.26,52.84c0.16-0.61,0.73-1.06,1.36-1.06h3.79l-0.47,0.45l-0.99,3.74c-0.16,0.61-0.73,1.06-1.36,1.06
						h-3.45L65.26,52.84z M65.58,56.24h1.33c0.45,0,0.85-0.3,0.96-0.74l0.77-2.91h-1.33c-0.45,0-0.85,0.3-0.96,0.74L65.58,56.24z"/>
					<path class="st0" d="M75.46,51.78h1.52l-0.47,0.45l-1.07,4.07c-0.11,0.43-0.51,0.74-0.94,0.74h-0.56l-1.12-3.45l-0.91,3.45
						h-1.17l1.19-4.52c0.11-0.43,0.51-0.74,0.94-0.74h0.56l1.12,3.45L75.46,51.78z"/>
					<path class="st0" d="M80.12,54.09h2.83l-0.47,0.45l-0.38,1.44c-0.16,0.61-0.73,1.06-1.36,1.06h-3.46l1.11-4.19
						c0.16-0.61,0.73-1.06,1.36-1.06h3.81l-0.47,0.45l-0.33,1.25h-1.21l0.25-0.93h-1.33c-0.45,0-0.85,0.3-0.96,0.74l-0.79,2.98h1.33
						c0.45,0,0.85-0.3,0.96-0.74l0.18-0.68h-1.27L80.12,54.09z"/>
					<path class="st0" d="M88.35,56.24h2.61l-0.47,0.45l-0.09,0.35h-3.48l1.39-5.25h1.56l-0.47,0.45L88.35,56.24z"/>
					<path class="st0" d="M93.77,51.78h1.56l-0.47,0.45l-1.07,4.07c-0.11,0.43-0.51,0.74-0.94,0.74h-0.47L93.77,51.78z"/>
					<path class="st0" d="M96.7,52.92c0.17-0.65,0.78-1.13,1.45-1.13h3.72l-0.47,0.45l-0.99,3.74c-0.16,0.61-0.73,1.06-1.36,1.06
						h-3.45L96.7,52.92z M97.04,56.24h1.33c0.45,0,0.85-0.3,0.96-0.74l0.77-2.91h-1.33c-0.45,0-0.85,0.3-0.96,0.74L97.04,56.24z"/>
					<path class="st0" d="M106.92,51.78h1.52l-0.47,0.45l-1.07,4.07c-0.11,0.43-0.51,0.74-0.94,0.74h-0.56l-1.12-3.45l-0.91,3.45
						h-1.17l1.14-4.31c0.14-0.54,0.65-0.94,1.2-0.94h0.36l1.12,3.45L106.92,51.78z"/>
					<path class="st0" d="M109.85,52.84c0.16-0.61,0.73-1.06,1.36-1.06h3.47l-0.47,0.45l-0.32,1.19h-1.21l0.23-0.88h-1.01
						c-0.45,0-0.85,0.3-0.96,0.74l-0.07,0.28l2.84,0.91l-0.4,1.5c-0.16,0.61-0.73,1.06-1.36,1.06h-3.31l0.47-1.8h1.56l-0.47,0.45
						l-0.15,0.58h1.19c0.45,0,0.85-0.3,0.96-0.74l0.11-0.41l-2.84-0.91L109.85,52.84z"/>
				</g>
				<g>
					<path class="st4" d="M28.83,86.66l-0.13-0.22l-0.09-0.15l-0.31,0.28c-1.05,0.95-2.83,1.82-4.19,2.52l-0.3,0.15l-0.2,0.1
						l0.46,0.33c0.99,0.69,2.3,1.57,2.81,2.46l0.13,0.22l0.08,0.15l0.31-0.28c1.05-0.95,2.83-1.82,4.19-2.51h0l0.3-0.16l0.2-0.1
						l-0.46-0.32C30.65,88.43,29.34,87.55,28.83,86.66z"/>
					<polygon class="st4" points="90.72,66.97 88.83,66.97 88.76,67.22 86.72,74.95 88.61,74.95 					"/>
					<path class="st4" d="M29.78,57.82c-0.31,0-0.42-0.1-0.47-0.14c-0.18-0.36-0.54-0.59-0.95-0.59h-0.01l-0.08,0h0
						c-0.61,0.05-1.1,0.56-1.13,1.17l0,0.01l0,0.03c0,0.3,0.12,0.58,0.31,0.77c0.2,0.2,0.47,0.31,0.76,0.31h0.01l0.07,0h0.04
						c0.77,0,1.43-0.34,1.89-0.66c0.23-0.16,0.41-0.32,0.54-0.45c0.12-0.12,0.19-0.2,0.2-0.21l0.73-0.85l-1.04,0.41
						C30.26,57.77,29.97,57.82,29.78,57.82z"/>
					<path class="st4" d="M30.9,78.84l-0.13-0.19l-0.08-0.12l-0.04,0.03l-0.03-0.03l-0.25,0.23c-1.05,0.95-2.83,1.82-4.19,2.52
						l-0.12,0.06l-0.19,0.06l-0.26,0.08l0.56,0.39c0.49,0.34,1.06,0.73,1.56,1.14c0.51,0.42,0.96,0.86,1.22,1.3l0.12,0.21l0.08,0.14
						l0.03-0.03l0.02,0.04l0.29-0.26c1.05-0.95,2.83-1.82,4.19-2.51h0l0.3-0.16l0.2-0.1l-0.46-0.32c-0.52-0.37-1.13-0.78-1.67-1.22
						L30.9,78.84L30.9,78.84z"/>
					<path class="st4" d="M85.97,85.52h-2.04l-3.06,11.6c-0.03,0.11-0.04,0.22-0.04,0.32c0,0.28,0.1,0.54,0.3,0.73
						c0.19,0.18,0.45,0.29,0.74,0.29h0l0.01,0h0.42h0.16h0.11l0.07-0.25L85.97,85.52z"/>
					<polygon class="st0" points="122.15,53.64 122.14,53.65 122.14,53.65 					"/>
					<path class="st0" d="M18.03,53.47c0,0.01,0,0.01,0,0.01L18.03,53.47L18.03,53.47z"/>
					<polygon class="st0" points="22.33,103.74 22.54,103.58 22.33,103.74 					"/>
					<path class="st0" d="M85.43,81.52h-0.44l0.69-2.61h5.43l4.21-15.94h-2.8l2.15-2.9h-5.67l-2.26,2.8l-0.01,0.01l-0.02,0.01l0,0
						l-0.28,0.22l-2.4,0L75.7,94.73c-0.19,0.73-0.28,1.44-0.28,2.11c0,1.76,0.63,3.26,1.71,4.33c1.09,1.07,2.65,1.72,4.56,1.72
						l3.18,0l5.64-21.37H85.43z M88.76,67.22l0.07-0.25h1.89l-2.11,7.98h-1.89L88.76,67.22z M82.45,98.46H82.3h-0.42l-0.01,0h0
						c-0.29,0-0.55-0.1-0.74-0.29c-0.19-0.19-0.3-0.45-0.3-0.73c0-0.11,0.01-0.21,0.04-0.32l3.06-11.6h2.04L82.63,98.2l-0.07,0.25
						H82.45z"/>
					<path class="st0" d="M83.16,63.11l2.09-2.99l-5.01-0.05l-2.58,2.96l-0.44-2.96h-6.96l1.37,9.78l-5.23,6.06h5.57l-1.2,4.56
						l-6.79,6.11h5.18l-0.75,2.83l0,0l0,0c-0.6,2.13-1.85,3.32-2.95,3.95c-0.8,0.46-1.5,0.64-1.84,0.7
						c-0.92,2.56-2.76,3.7-4.22,4.16l-0.01,0l-0.01,0c-0.49,0.13-0.98,0.24-1.48,0.31l-0.02,0l-0.01,0
						c-0.19,0.02-0.33,0.04-0.42,0.05c-0.09,0.01-0.13,0.02-0.14,0.02h0l-0.01,0l-0.01,0h0c-0.34,0.03-0.68,0.05-1.02,0.05h-9.87
						c-2.01-0.16-2.26-1.87-1.91-3.22l0.05-0.03l0.07-0.04c1.31-0.76,2.53-1.04,3.65-1.04c2.22,0,3.97,1.1,5.2,1.66
						c0.44,0.2,0.9,0.33,1.45,0.33c0.46,0,0.99-0.1,1.63-0.34c0.35-0.13,0.72-0.31,1.14-0.54l0.83-3.16c-1,0.48-1.9,0.68-2.71,0.68
						c-1.36,0-2.46-0.53-3.5-1.03c-1.04-0.5-2.03-0.96-3.21-0.96c-0.86,0-1.84,0.24-3.07,0.95l-0.71,0.41l0.32-1.21h-0.01l0.21-0.77
						l0.05-0.03l0.07-0.04c1.29-0.75,2.41-1.04,3.4-1.04l0.01,0c1.36,0,2.46,0.53,3.5,1.03c1.04,0.5,2.03,0.96,3.21,0.96
						c0.83,0,1.78-0.23,2.94-0.88l0.84-3.16c-1,0.48-1.9,0.68-2.71,0.68c-1.36,0-2.46-0.53-3.5-1.03c-1.04-0.5-2.03-0.96-3.21-0.96
						c-0.86,0-1.84,0.24-3.07,0.95l-0.71,0.41l0.08-0.32l0.13-0.48l0.1-0.4h-0.01l0.21-0.78l0.05-0.03l0.07-0.04
						c1.3-0.75,2.41-1.04,3.4-1.04l0.01,0c1.36,0,2.46,0.53,3.5,1.03c1.04,0.5,2.03,0.96,3.21,0.96c0.83,0,1.78-0.23,2.94-0.88
						l0.83-3.16c-0.99,0.47-1.87,0.67-2.67,0.67l0,0H58.5c-1.36,0-2.46-0.53-3.5-1.03c-1.04-0.5-2.03-0.96-3.21-0.96
						c-0.86,0-1.84,0.24-3.07,0.95l-0.71,0.41l0.32-1.22h0l0.66-2.48h6.8c1.7,0,3.45-0.7,4.89-1.83c1.42-1.12,2.7-3.25,3.14-4.96
						L65,67.17H51.82l0.88-3.35h9.76c1.14,0,2.33-0.47,3.3-1.24c0.85-0.67,1.53-1.58,1.89-2.57l-20.03,0l-2.89,10.96h13.13
						l-0.95,3.6l-12.99,0l-5.69,21.56c-0.91,3.43,1.68,6.8,5.24,6.8h16.98c0.81-0.07,2.04-0.3,3.24-1.04c1.21-0.75,2.41-2,3.16-4.16
						l0.07-0.2L67,97.51l0.12-0.01l0.06-0.01h0c0.03,0,0.09-0.01,0.16-0.03c0.15-0.03,0.36-0.07,0.62-0.15
						c0.52-0.15,1.24-0.41,2.01-0.86c1.53-0.9,3.26-2.51,4.08-5.47l4.84-18.36l-0.33-2.87l-0.01-0.05L83.16,63.11L83.16,63.11z"/>
					<path class="st0" d="M131.55,56.87h0.04c0.58,0,1.13,0.02,1.68,0.02c1.16,0,2.32-0.1,3.74-0.64c0.29-0.17,0.68-0.48,0.99-0.97
						l0.64-1.34c-0.97,0.45-2.78,1.03-5.37,1.15l-0.02,0h-5.05c-1.3,0-2.64,0.53-3.75,1.4c-1.1,0.87-1.96,2.08-2.3,3.39l-7.75,29.08
						c-0.13,0.31-0.28,0.62-0.44,0.92l-0.14,0.25l0,0.01c-0.42,0.67-1.04,1.51-1.91,2.21c-0.83,0.67-1.9,1.2-3.21,1.33
						c-0.18,0.32-0.65,1.08-1.45,1.87c-1.03,1.02-2.62,2.07-4.79,2.11h0h0h-0.81l0.78-2.96l0.49-1.87l2.95-11.2l2.48-9.42h2.68
						l-2.53,9.59l-1.49,5.66l-0.92,3.48c1.12-0.08,2.25-0.56,3.19-1.3c1.04-0.82,1.85-1.97,2.18-3.2l4.82-18.28h-6.8l0.95-3.6h3.61
						c0.88,0,1.79-0.36,2.55-0.96c0.75-0.6,1.34-1.42,1.57-2.31l0.2-0.74H98.97l-1.06,4h6.4l-0.95,3.6h-6.34l-7.7,29.2
						c0.98,0,2.11-0.41,3.04-1.07c0.94-0.66,1.68-1.58,1.94-2.54l5.68-21.53h2.57l-7.36,27.89c-0.06,0.22-0.08,0.43-0.08,0.63
						c0.01,1.19,0.9,2.15,2.17,2.15h1.62h2.19h2.11c2.78-0.04,4.67-1.18,5.92-2.39c1.25-1.21,1.83-2.5,1.95-2.77l0.02-0.05l0.08-0.2
						l0.09-0.01l0.13-0.01c2.19-0.18,3.69-1.14,4.75-2.26c1.04-1.12,1.62-2.4,1.9-3.2l0.36-1.38l1.01-3.81l5.16-19.58
						c0.32-1.22,1.1-2.31,2.1-3.1c1-0.79,2.22-1.28,3.45-1.28l0.57,0l0-0.01l0.14,0l0.21,0l0.11,0l0.03,0c0.65,0,2.56-0.13,3.6-0.82
						c0.09-0.06,0.18-0.12,0.25-0.19c0.03-0.03,0.07-0.08,0.11-0.13c0,0,0.17-0.25,0.21-0.33l0.41-0.97
						c-1.29,0.4-2.41,0.48-3.44,0.48h-0.02l0,0l-0.01,0h-0.01c-0.58,0-1.13-0.02-1.69-0.02c-1.44,0-2.51,0-4.46,0.98
						c0,0,0.16-0.47,0.49-0.77c0.44-0.4,0.73-0.86,2.31-1.15h0l0.01,0c0.65-0.09,1.26-0.12,1.84-0.12h0.04
						c0.58,0,1.13,0.02,1.68,0.02c0.85,0,1.7-0.05,2.65-0.29c0.09-0.02,0.17-0.05,0.25-0.09c0.33-0.16,0.97-0.57,1.35-1.41
						l0.31-0.73l0-0.01l0.01-0.01c-1.52,0.56-2.79,0.66-3.96,0.66h-0.02h0h-0.01c-0.58,0-1.13-0.02-1.69-0.02
						c-1.44,0-2.31,0.13-4.25,1.11l-0.4,0.2c0,0,0.23-0.7,0.68-1.1c0.44-0.4,0.73-0.86,2.31-1.15h0l0.01,0
						C130.36,56.9,130.97,56.87,131.55,56.87z"/>
					<path class="st0" d="M49.1,52.51h-0.01c-0.03-0.06-0.08-0.1-0.16-0.1c-0.06,0-0.11,0.05-0.14,0.1h-0.02
						c-0.32,0.53-1.24,1.58-3.67,1.95c-0.58,0.09-1.19,0.11-1.83,0.11c-1.41-0.01-2.99-0.18-4.78-0.24l-0.09-0.01
						c-0.26-0.03-0.5-0.05-0.72-0.05c-0.95,0-1.51,0.27-1.86,0.52c-0.34,0.25-0.46,0.51-0.46,0.51l-0.09,0.21h-1.95
						c0,0-0.22,0.01-0.56,0.01c-0.42,0-1.02-0.02-1.62-0.09c-0.6-0.07-1.19-0.19-1.59-0.43c-0.38-0.22-0.7-0.29-0.97-0.29
						c-0.11,0-0.21,0.01-0.3,0.03c-0.21,0.07-0.41,0.16-0.59,0.26c-0.58,0.36-0.95,0.87-0.96,1.76c0,0.06,0,0.13,0.01,0.2l0.02,0.32
						c-0.82,0.07-1.3-0.08-1.53-0.19l-0.15-0.08l0.03-0.11l0.03-0.15l0,0l0.01-0.05c0.01-0.03,0.01-0.09,0.01-0.16
						c0-0.16-0.03-0.36-0.14-0.5c-0.11-0.14-0.27-0.28-0.71-0.32l-0.01,0h0l-0.06,0c-0.16,0-0.57,0.03-0.92,0.24
						c-0.36,0.22-0.68,0.56-0.76,1.37l-0.03,0.37l-0.16-0.02l-0.21-0.03l0,0c-0.05-0.01-0.58-0.08-1.05-0.21
						c0,0.38,0.18,0.82,0.42,1.17c0.07,0.12,0.2,0.3,0.39,0.52l0,0c-0.7,0.77-0.7,3.11,0.85,3.31c0,0-0.54-1.03,0.04-2.09
						c0.07-0.12,0.17-0.22,0.28-0.32c0.11,0.06,0.22,0.11,0.34,0.17c-0.05,0.3-0.32,2.12,1.33,2.26c0,0-0.71-0.54-0.13-1.88
						c0.14,0.03,0.29,0.05,0.44,0.06l0.1,0.02c0.03,0.52,0.25,1.35,1.23,1.63c0,0-0.47-0.61-0.12-1.44c1.45,0.17,3.15,0.09,4.6-0.75
						c0.07,0.05,0.16,0.14,0.25,0.27c0.16,0.22,0.31,0.57,0.31,1.05l0.01,0.15c0.03,0.34,0.13,0.78,0.37,1.06
						c0.22,0.27,0.57,0.44,1.02,0.44c0.24,0,0.48-0.05,0.72-0.14l0.31-0.12l-0.11,0.31c-0.04,0.12-0.1,0.25-0.18,0.37
						c-0.26,0.4-0.74,0.71-1.45,0.75l-0.01,0l-0.13,0H32c-0.42,0-0.9-0.13-1.36-0.38c-0.06,0.08-0.14,0.17-0.24,0.26
						c-0.3,0.27-0.8,0.53-1.5,0.53l-0.01,0h-0.03c-0.3,0-0.63-0.04-1-0.14c-0.3-0.08-0.55-0.16-0.79-0.23L27,64.27
						c-0.48-0.14-0.9-0.19-1.27-0.19c-0.8,0-1.34,0.25-1.63,0.43c-0.52,0.33-0.97,0.77-1.23,1.04c-0.08,0.02-0.17,0.04-0.25,0.04
						c-0.3,0-0.61-0.15-0.83-0.42c-0.18-0.22-0.29-0.53-0.33-0.91c-0.26,0.33-0.5,0.77-0.5,1.32c0,0.3,0.07,0.64,0.26,1.03
						l0.23,0.46c-0.42,0.02-1.08,0.01-1.08,0.01s0.03,2.47,3.8,2.65c0,0-1.26-0.78-0.73-1.71l0.06-0.08c0.1-0.16,0.23-0.3,0.38-0.41
						c0.4-0.26,1.15-0.46,2.53-0.14c0,0,0.34,0.1,0.86,0.21c0.16,0.03,0.35,0.07,0.54,0.1h4.43l-1.83,6.84h-8.54
						c-0.33,0.53-0.58,0.99-0.74,1.3h1.98L19.1,90.73l-2.3,8.7l-0.11,0.42c0,0-0.17,0.87-1.54,2.04c-0.38,0.33-0.78,0.62-1.2,0.89
						h0.43h1.6h1.54c1.24,0,1.97-0.5,3.04-1.35c1.06-0.84,1.88-1.99,2.21-3.25l0.73-2.75h6l-0.88,3.35h-2.97l0.23,1.49
						c0.12,0.77,0.49,1.39,1.02,1.82c0.54,0.43,1.26,0.69,2.11,0.69h3.69l6.95-26.43l0.49-1.82H33.5l1.83-6.84h4.03
						c0.22-0.54,0.31-1.36,0.09-1.8c0,0,0.64-0.11,1.39-0.46c0.14-0.07,0.28-0.14,0.43-0.23c0.13-0.09,0.28-0.19,0.44-0.32
						l0.11-0.09c0.37-0.31,0.77-0.72,1.04-1.22l0.05-0.09c0.06-0.11,0.1-0.23,0.15-0.35c-2.62,0.67-3.22-0.56-3.22-0.56
						c1.63,0.1,2.22-0.07,2.79-0.35c1.27-0.63,1.5-1.67,1.51-1.81c-0.39,0.14-0.7,0.26-1.04,0.3c-2.04,0.24-2.84-0.65-2.84-0.65
						c1.31-0.05,2.39-0.1,3.69-0.75c0.99-0.49,1.6-1.39,1.75-1.64c0.04-0.12,0.08-0.23,0.11-0.36c-0.35,0.11-0.68,0.2-1,0.28
						c-0.69,0.13-1.81,0.26-2.9,0.11c-0.33-0.05-0.66-0.12-0.97-0.22c-0.77-0.27-1.35-0.36-1.79-0.39c0.26-0.29,0.91-0.73,2.48-0.86
						c0.15-0.01,0.31-0.02,0.48-0.03l0,0c0,0,0.78-0.01,1.81-0.17l0.08-0.01l0.12-0.02c0.39-0.06,0.81-0.15,1.24-0.26
						c0.12-0.03,0.24-0.07,0.36-0.1c0.56-0.17,1.12-0.39,1.62-0.68c0.06-0.03,0.13-0.07,0.19-0.11l0.03-0.01h0
						c0.77-0.46,1.84-1.31,1.55-2.28L49.1,52.51z M30.95,58.06c-0.01,0.01-0.08,0.09-0.2,0.21c-0.13,0.12-0.31,0.28-0.54,0.45
						c-0.46,0.32-1.12,0.66-1.89,0.66h-0.04l-0.07,0H28.2c-0.3,0-0.57-0.12-0.76-0.31c-0.2-0.19-0.31-0.47-0.31-0.77l0-0.03l0-0.01
						c0.03-0.61,0.52-1.12,1.13-1.17h0l0.08,0h0.01c0.42,0,0.78,0.24,0.95,0.59c0.05,0.05,0.16,0.14,0.47,0.14
						c0.2,0,0.48-0.05,0.86-0.2l1.04-0.41L30.95,58.06z M31.9,89.55l-0.3,0.16h0c-1.36,0.69-3.14,1.56-4.19,2.51L27.1,92.5
						l-0.08-0.15l-0.13-0.22c-0.5-0.89-1.81-1.77-2.81-2.46l-0.46-0.33l0.2-0.1l0.3-0.15c1.36-0.69,3.14-1.57,4.19-2.52l0.31-0.28
						l0.09,0.15l0.13,0.22c0.5,0.89,1.81,1.77,2.81,2.46l0.46,0.32L31.9,89.55z M32.06,80.1c0.54,0.44,1.14,0.85,1.67,1.22
						l0.46,0.32l-0.2,0.1l-0.3,0.16h0c-1.36,0.69-3.14,1.56-4.19,2.51l-0.29,0.26l-0.02-0.04l-0.03,0.03l-0.08-0.14l-0.12-0.21
						c-0.25-0.44-0.7-0.89-1.22-1.3c-0.51-0.41-1.07-0.79-1.56-1.14l-0.56-0.39l0.26-0.08l0.19-0.06l0.12-0.06
						c1.36-0.69,3.14-1.57,4.19-2.52l0.25-0.23l0.03,0.03l0.04-0.03l0.08,0.12l0.13,0.19l0.01,0.01L32.06,80.1z"/>
				</g>
			</g>
		</g>
	</g>
</g>
</svg>
