<!-- Generated by IcoMoon.io -->
<svg version="1.1" xmlns="http://www.w3.org/2000/svg" width="32" height="32" viewBox="0 0 32 32">
<title>basketball</title>
<path fill="#ff3d00" d="M15.99 28.98v-11.99h-4.010c-0.135 3.421-1.644 6.488-3.99 8.665 2.117 1.964 4.915 3.204 8 3.325v0zM6.601 24.136c-1.541-1.991-2.495-4.459-2.601-7.146h6.979c-0.134 3.143-1.531 5.96-3.695 7.956 0.014 0.015-0.455-0.515-0.684-0.81v0zM25.696 24.946c1.94-2.111 3.164-4.892 3.284-7.956v0h-6.979c0.134 3.143 1.531 5.96 3.695 7.956v0 0zM24.99 25.655c-2.117 1.964-4.915 3.204-8 3.325v0-11.99h4.010c0.135 3.421 1.644 6.488 3.99 8.665v0 0zM25.696 8.034c1.94 2.111 3.164 4.892 3.284 7.956v0h-6.979c0.134-3.143 1.531-5.96 3.695-7.956v0 0zM24.99 7.325c-2.117-1.964-4.915-3.204-8-3.325v11.99h4.010c0.135-3.421 1.644-6.488 3.99-8.665v0zM7.284 8.034c-1.94 2.111-3.164 4.892-3.284 7.956v0h6.979c-0.134-3.143-1.531-5.96-3.695-7.956v0zM7.99 7.325c2.117-1.964 4.915-3.204 8-3.325v0 11.99h-4.010c-0.135-3.421-1.644-6.488-3.99-8.665v0z"></path>
</svg>
