<svg width="448" height="512" xmlns="http://www.w3.org/2000/svg" class="svg-inline--fa fa-skull-crossbones fa-w-14">

 <g>
  <title>background</title>
  <rect fill="none" id="canvas_background" height="402" width="582" y="-1" x="-1"/>
 </g>
 <g>
  <title>Layer 1</title>
  <path id="svg_1" d="m439.15,453.06l-141.98,-69.06l141.99,-69.06c7.9,-3.95 11.11,-13.56 7.15,-21.46l-14.31,-28.63c-3.95,-7.9 -13.56,-11.11 -21.47,-7.16l-186.53,90.72l-186.53,-90.72c-7.9,-3.95 -17.51,-0.75 -21.47,7.16l-14.31,28.63c-3.95,7.9 -0.75,17.51 7.15,21.46l141.99,69.06l-141.98,69.06c-7.9,3.95 -11.11,13.56 -7.15,21.47l14.31,28.63c3.95,7.9 13.56,11.11 21.47,7.15l186.52,-90.72l186.53,90.72c7.9,3.95 17.51,0.75 21.47,-7.15l14.31,-28.63c3.95,-7.91 0.74,-17.52 -7.16,-21.47zm-289.15,-215.78l-5.48,25.87c-2.67,12.62 5.42,24.85 16.45,24.85l126.08,0c11.03,0 19.12,-12.23 16.45,-24.85l-5.5,-25.87c41.78,-22.41 70,-62.75 70,-109.28c0,-70.69 -64.47,-128 -144,-128s-144,57.31 -144,128c0,46.53 28.22,86.87 70,109.28zm130,-125.28c17.65,0 32,14.35 32,32s-14.35,32 -32,32s-32,-14.35 -32,-32s14.35,-32 32,-32zm-112,0c17.65,0 32,14.35 32,32s-14.35,32 -32,32s-32,-14.35 -32,-32s14.35,-32 32,-32z" fill="#848484"/>
 </g>
</svg>