<!-- Generated by IcoMoon.io -->
<svg version="1.1" xmlns="http://www.w3.org/2000/svg" width="32" height="32" viewBox="0 0 32 32">
<title>tombstone-solid</title>
<path fill="#ccc" d="M31 28h-30c-0.552 0-1 0.448-1 1v2c0 0.552 0.448 1 1 1h30c0.552 0 1-0.448 1-1v-2c0-0.552-0.448-1-1-1zM28 12c0-6.628-5.372-12-12-12s-12 5.372-12 12v14h24v-14zM22 11.5c0 0.553-0.448 1-1 1h-3.5v8c0 0.552-0.448 1-1 1h-1c-0.553 0-1-0.448-1-1v-8h-3.5c-0.553 0-1-0.447-1-1v-1c0-0.553 0.447-1 1-1h3.5v-3c0-0.553 0.447-1 1-1h1c0.552 0 1 0.447 1 1v3h3.5c0.552 0 1 0.447 1 1v1z"></path>
</svg>
