<?xml version="1.0" encoding="UTF-8"?>
<svg width="150px" height="150px" viewBox="0 0 150 150" version="1.1" xmlns="http://www.w3.org/2000/svg" xmlns:xlink="http://www.w3.org/1999/xlink">
    <!-- Generator: Sketch 51.2 (57519) - http://www.bohemiancoding.com/sketch -->
    <title>36ers</title>
    <desc>Created with Sketch.</desc>
    <defs></defs>
    <g id="36ers" stroke="none" stroke-width="1" fill="none" fill-rule="evenodd">
        <g id="adelaide-36ers" transform="translate(15.000000, 15.000000)">
            <path d="M118.097561,22.4268293 L113.45122,17.3780488 L98.5609756,14.0121951 L94.3902439,16.5731707 L92.9634146,15.2195122 L92.9634146,7.46341463 L89.195122,2.85365854 L88.6829268,2.7804878 C88.5365854,2.74390244 72.695122,0 59.2317073,0 C46.6829268,0 29.9634146,2.74390244 29.7804878,2.7804878 L29.2682927,2.85365854 L25.5,7.46341463 L25.5,15.1829268 L24,16.6097561 L19.8292683,14.0121951 L5.04878049,17.3414634 L0.365853659,22.4268293 L0.365853659,49.7195122 C0.365853659,49.8658537 0.365853659,50.0121951 0.365853659,50.1219512 C0.329268293,51.4390244 0.292682927,53.2317073 2.92682927,54.8780488 C5.23170732,56.304878 12.1463415,60.4390244 12.2195122,60.4756098 L12.8414634,60.8414634 L13.5,60.5487805 C21,57.2195122 30.3292683,55.0609756 39.3292683,53.7804878 C38.6341463,55.6463415 37.902439,57.8414634 37.5731707,59.8170732 L36.0365854,57.1829268 C36.0365854,57.1829268 30.9146341,74.2317073 36.2560976,82.8292683 C37.3170732,84.5121951 38.5609756,85.9756098 42.4756098,90.1463415 C44.2317073,92.0121951 46.6097561,94.6097561 49.7195122,98.0121951 C53.6341463,102.292683 55.3902439,106.609756 57.6585366,114.219512 C58.1341463,115.756098 59.195122,119.780488 59.195122,119.780488 C59.195122,119.780488 60.3292683,115.756098 60.7317073,114.219512 C62.6707317,106.756098 64.7560976,102.256098 68.6341463,98.0121951 C71.195122,95.2317073 73.2439024,93 74.8902439,91.2439024 C79.4634146,86.304878 80.9268293,84.5853659 82.097561,82.7926829 C87.2195122,75.1097561 82.3170732,57.1463415 82.3170732,57.1463415 L80.7804878,59.7439024 C80.6341463,57.6585366 79.902439,55.3902439 79.1707317,53.5609756 C90.5853659,55.1341463 99.804878,57.8414634 105.658537,60.4756098 L106.353659,60.804878 L115.463415,54.804878 C118.02439,53.2317073 118.02439,51.0731707 118.02439,49.6463415 L118.097561,22.4268293 Z" id="Shape" fill="#9E9784" fill-rule="nonzero"></path>
            <path d="M116.670732,22.9756098 L112.719512,18.6585366 L98.8170732,15.5487805 L94.2073171,18.402439 L91.5365854,15.8780488 L91.5365854,7.97560976 L88.4268293,4.17073171 C88.4268293,4.17073171 72.695122,1.42682927 59.2317073,1.42682927 C46.6829268,1.42682927 30.0365854,4.17073171 30.0365854,4.17073171 L26.9268293,7.97560976 L26.9268293,15.7682927 L24.1829268,18.402439 L19.5731707,15.5487805 L5.7804878,18.6585366 L1.79268293,22.9756098 L1.79268293,26.8536585 C1.79268293,26.8536585 1.79268293,29.5243902 1.79268293,33 C1.79268293,35.2682927 1.79268293,37.902439 1.79268293,40.4268293 C1.79268293,45.0731707 1.79268293,48.9146341 1.79268293,49.6829268 C1.79268293,51.2926829 1.82926829,52.5365854 3.69512195,53.6707317 C5.96341463,55.0243902 12.9512195,59.2682927 12.9512195,59.2682927 C19.2073171,56.4878049 30.0731707,53.304878 43.6097561,51.804878 C43.0609756,52.8658537 42.5487805,54.0365854 42.1097561,55.3536585 C41.7439024,54.5121951 41.2682927,53.4878049 41.2682927,53.4878049 C38.3780488,60.2926829 39.2195122,64.5365854 39.2195122,64.5365854 C38.0853659,63.7317073 36.8414634,61.5731707 36.8414634,61.5731707 C35.0487805,70.3536585 35.4512195,78.1463415 37.7195122,82.097561 C39.0365854,84.402439 41.195122,86.304878 51,97.0243902 C57.695122,104.378049 59.0853659,113.414634 59.304878,114.439024 C59.5243902,113.414634 60.8780488,104.341463 67.6097561,97.0243902 C77.195122,86.597561 79.5365854,84.402439 80.8902439,82.097561 C83.1585366,78.1829268 83.5609756,70.3902439 81.7682927,61.5731707 C81.7682927,61.5731707 80.5243902,63.695122 79.3902439,64.5365854 C79.3902439,64.5365854 80.2317073,60.2926829 77.3414634,53.4878049 C77.3414634,53.4878049 76.8658537,54.5121951 76.5,55.3536585 C76.0243902,54 75.5121951,52.7926829 74.9268293,51.695122 C88.902439,53.1585366 100.02439,56.4146341 106.426829,59.2682927 L114.914634,53.6707317 C116.817073,52.5 116.817073,51.0365854 116.817073,49.6829268 L116.670732,22.9756098 Z" id="Shape" fill="#061030" fill-rule="nonzero"></path>
            <g id="Group" transform="translate(8.048780, 46.829268)" fill="#EE312F" fill-rule="nonzero">
                <path d="M3.95121951,5.67073171 C3.84146341,5.70731707 3.73170732,5.70731707 3.65853659,5.74390244 L0.146341463,4.7195122 L3.51219512,6.87804878 L3.76829268,6.80487805 C4.93902439,6.47560976 14.1585366,3.54878049 24.9878049,2.08536585 C28.1707317,1.64634146 31.2804878,1.31707317 34.2073171,1.06097561 C34.3902439,0.804878049 34.5365854,0.585365854 34.7195122,0.365853659 C31.7560976,0.62195122 29.195122,0.87804878 27.4756098,1.13414634 C20.6707317,2.01219512 12.4756098,3.36585366 3.95121951,5.67073171 Z" id="Shape"></path>
                <path d="M98.7073171,5.74390244 C98.6341463,5.70731707 98.5609756,5.70731707 98.4146341,5.67073171 C89.8902439,3.40243902 81.695122,2.04878049 74.8536585,1.09756098 C73.1341463,0.87804878 70.6097561,0.585365854 67.6097561,0.329268293 C67.7926829,0.548780488 67.9756098,0.804878049 68.1219512,1.02439024 C71.0121951,1.2804878 74.1219512,1.6097561 77.3414634,2.04878049 C88.1707317,3.51219512 97.3902439,6.43902439 98.5609756,6.76829268 L98.8170732,6.84146341 L102.182927,4.68292683 L98.7073171,5.74390244 Z" id="Shape"></path>
            </g>
            <g id="Group" transform="translate(29.634146, 3.658537)" fill="#FFFFFF" fill-rule="nonzero">
                <path d="M2.81707317,2.19512195 C1.97560976,4.68292683 1.13414634,7.13414634 0.256097561,9.62195122 C0.987804878,9.47560976 1.35365854,9.43902439 2.08536585,9.29268293 C2.26829268,8.67073171 2.37804878,8.34146341 2.56097561,7.7195122 C3.43902439,7.57317073 3.87804878,7.5 4.75609756,7.35365854 C4.93902439,7.93902439 5.04878049,8.23170732 5.23170732,8.7804878 C5.96341463,8.67073171 6.32926829,8.63414634 7.06097561,8.52439024 C6.03658537,5.85365854 5.52439024,4.53658537 4.5,1.90243902 C3.87804878,2.01219512 3.51219512,2.08536585 2.81707317,2.19512195 Z M2.96341463,6.54878049 C3.25609756,5.56097561 3.40243902,5.04878049 3.73170732,4.06097561 C4.02439024,4.93902439 4.17073171,5.41463415 4.5,6.29268293 C3.84146341,6.40243902 3.54878049,6.43902439 2.96341463,6.54878049 Z" id="Shape"></path>
                <path d="M9.36585366,1.2804878 C9.36585366,4.06097561 9.36585366,5.48780488 9.36585366,8.26829268 C11.195122,8.04878049 12.1097561,7.93902439 13.9390244,7.75609756 C14.304878,7.5 14.4512195,7.35365854 14.8170732,7.09756098 C14.8170732,4.75609756 14.8170732,3.58536585 14.8170732,1.24390244 C14.4512195,1.06097561 14.304878,0.951219512 13.9390244,0.768292683 C12.1097561,0.951219512 11.195122,1.02439024 9.36585366,1.2804878 Z M12.9878049,6.58536585 C12.9146341,6.65853659 12.8780488,6.69512195 12.804878,6.73170732 C12.1463415,6.80487805 11.8536585,6.84146341 11.195122,6.91463415 C11.195122,5.01219512 11.195122,4.06097561 11.195122,2.15853659 C11.8536585,2.08536585 12.1463415,2.04878049 12.804878,1.97560976 C12.8780488,2.01219512 12.9146341,2.04878049 12.9878049,2.08536585 C12.9878049,3.87804878 12.9878049,4.79268293 12.9878049,6.58536585 Z" id="Shape"></path>
                <path d="M17.4878049,7.46341463 C19.5731707,7.31707317 20.597561,7.24390244 22.6829268,7.17073171 C22.6829268,6.73170732 22.6829268,6.47560976 22.6829268,6.03658537 C21.3292683,6.1097561 20.6341463,6.14634146 19.2804878,6.2195122 C19.2804878,5.48780488 19.2804878,5.08536585 19.2804878,4.35365854 C20.304878,4.2804878 20.7804878,4.2804878 21.804878,4.20731707 C21.804878,3.76829268 21.804878,3.51219512 21.804878,3.07317073 C20.7804878,3.1097561 20.304878,3.14634146 19.2804878,3.2195122 C19.2804878,2.52439024 19.2804878,2.15853659 19.2804878,1.46341463 C20.6341463,1.3902439 21.3292683,1.35365854 22.6829268,1.2804878 C22.6829268,0.841463415 22.6829268,0.585365854 22.6829268,0.146341463 C20.597561,0.219512195 19.5731707,0.292682927 17.4878049,0.43902439 C17.4878049,3.25609756 17.4878049,4.64634146 17.4878049,7.46341463 Z" id="Shape"></path>
                <path d="M27.0365854,5.8902439 C27.0365854,3.54878049 27.0365854,2.37804878 27.0365854,0.0365853659 C26.304878,0.0365853659 25.9390244,0.0731707317 25.2073171,0.0731707317 C25.2073171,2.85365854 25.2073171,4.2804878 25.2073171,7.06097561 C27.2195122,7.02439024 28.2073171,6.98780488 30.2195122,6.98780488 C30.2195122,6.54878049 30.2195122,6.29268293 30.2195122,5.85365854 C28.902439,5.8902439 28.2804878,5.8902439 27.0365854,5.8902439 Z" id="Shape"></path>
                <path d="M34.5731707,0.0731707317 C33.5487805,2.85365854 33.0365854,4.24390244 32.0121951,7.02439024 C32.7439024,7.02439024 33.1463415,7.02439024 33.8780488,7.06097561 C34.0609756,6.47560976 34.1707317,6.14634146 34.3536585,5.56097561 C35.2317073,5.59756098 35.7073171,5.59756098 36.5853659,5.63414634 C36.7682927,6.25609756 36.8780488,6.54878049 37.0609756,7.17073171 C37.7926829,7.20731707 38.1585366,7.20731707 38.9268293,7.2804878 C37.902439,4.42682927 37.3902439,3 36.3658537,0.146341463 C35.6341463,0.109756098 35.2682927,0.109756098 34.5731707,0.0731707317 Z M34.7195122,4.42682927 C35.0121951,3.47560976 35.1585366,3.03658537 35.4878049,2.08536585 C35.7804878,3.03658537 35.9268293,3.51219512 36.2560976,4.46341463 C35.597561,4.46341463 35.304878,4.46341463 34.7195122,4.42682927 Z" id="Shape"></path>
                <path d="M41.1585366,7.3902439 C41.8902439,7.42682927 42.2560976,7.46341463 42.9878049,7.53658537 C42.9878049,4.75609756 42.9878049,3.32926829 42.9878049,0.548780488 C42.2560976,0.475609756 41.8902439,0.475609756 41.1585366,0.402439024 C41.1585366,3.18292683 41.1585366,4.6097561 41.1585366,7.3902439 Z" id="Shape"></path>
                <path d="M50.2317073,1.2804878 C48.402439,1.06097561 47.4878049,0.951219512 45.6585366,0.768292683 C45.6585366,3.54878049 45.6585366,4.97560976 45.6585366,7.75609756 C47.4878049,7.93902439 48.402439,8.04878049 50.2317073,8.26829268 C50.597561,8.08536585 50.7439024,7.97560976 51.1097561,7.79268293 C51.1097561,5.45121951 51.1097561,4.2804878 51.1097561,1.93902439 C50.7439024,1.68292683 50.597561,1.53658537 50.2317073,1.2804878 Z M49.2804878,6.87804878 C49.2073171,6.91463415 49.1707317,6.95121951 49.097561,6.98780488 C48.4390244,6.91463415 48.1463415,6.87804878 47.4878049,6.80487805 C47.4878049,4.90243902 47.4878049,3.95121951 47.4878049,2.04878049 C48.1463415,2.12195122 48.4390244,2.15853659 49.097561,2.23170732 C49.1707317,2.30487805 49.2073171,2.34146341 49.2804878,2.37804878 C49.2804878,4.20731707 49.2804878,5.08536585 49.2804878,6.87804878 Z" id="Shape"></path>
                <path d="M58.9390244,3.69512195 C58.9390244,3.25609756 58.9390244,3 58.9390244,2.56097561 C56.8902439,2.19512195 55.8658537,2.04878049 53.7804878,1.7195122 C53.7804878,4.5 53.7804878,5.92682927 53.7804878,8.70731707 C55.8292683,9 56.8902439,9.18292683 58.9390244,9.54878049 C58.9390244,9.1097561 58.9390244,8.85365854 58.9390244,8.41463415 C57.5853659,8.19512195 56.9268293,8.04878049 55.5731707,7.86585366 C55.5731707,7.13414634 55.5731707,6.73170732 55.5731707,6 C56.5609756,6.14634146 57.0731707,6.2195122 58.0609756,6.40243902 C58.0609756,5.96341463 58.0609756,5.70731707 58.0609756,5.26829268 C57.0731707,5.08536585 56.5609756,5.01219512 55.5731707,4.86585366 C55.5731707,4.17073171 55.5731707,3.80487805 55.5731707,3.1097561 C56.9268293,3.36585366 57.5853659,3.47560976 58.9390244,3.69512195 Z" id="Shape"></path>
            </g>
            <g id="Group" transform="translate(44.268293, 74.268293)" fill="#EE312F" fill-rule="nonzero">
                <path d="M29.6707317,0.0365853659 C28.6463415,0.585365854 27.7317073,1.20731707 27,1.90243902 C27.0731707,2.08536585 27.1829268,2.41463415 27.2560976,2.81707317 C27.1829268,2.85365854 27.1097561,2.8902439 27.0731707,2.92682927 C26.597561,3.2195122 26.1219512,3.80487805 26.3414634,4.06097561 C26.4878049,4.2804878 27,4.20731707 27.4390244,4.06097561 C27.4390244,4.68292683 27.3292683,5.26829268 26.9268293,5.67073171 C25.7195122,6.87804878 24.5121951,5.85365854 24.1463415,5.48780488 C23.597561,6.36585366 23.4146341,7.06097561 23.4146341,7.06097561 C23.9634146,7.2804878 25.902439,7.86585366 27.4390244,6.58536585 C29.2682927,5.04878049 28.3902439,1.90243902 28.3902439,1.90243902 C28.6829268,1.09756098 29.6707317,0.0365853659 29.6707317,0.0365853659 Z" id="Shape"></path>
                <path d="M3,5.67073171 C2.59756098,5.26829268 2.48780488,4.68292683 2.48780488,4.06097561 C2.92682927,4.20731707 3.43902439,4.24390244 3.58536585,4.06097561 C3.80487805,3.80487805 3.32926829,3.18292683 2.85365854,2.92682927 C2.7804878,2.8902439 2.70731707,2.85365854 2.67073171,2.81707317 C2.7804878,2.41463415 2.8902439,2.08536585 2.92682927,1.90243902 C2.15853659,1.20731707 1.2804878,0.585365854 0.256097561,0.0365853659 C0.256097561,0.0365853659 1.24390244,1.09756098 1.57317073,1.90243902 C1.57317073,1.90243902 0.695121951,5.08536585 2.52439024,6.58536585 C4.06097561,7.86585366 5.96341463,7.2804878 6.54878049,7.06097561 C6.54878049,7.06097561 6.36585366,6.36585366 5.81707317,5.48780488 C5.41463415,5.85365854 4.20731707,6.84146341 3,5.67073171 Z" id="Shape"></path>
            </g>
            <g id="Group" transform="translate(37.317073, 49.024390)" fill="#FFFFFF" fill-rule="nonzero">
                <path d="M6,26.4146341 C6,26.4146341 4.86585366,29.1585366 6.76829268,31.5365854 C8.30487805,33.4756098 10.9390244,33.1463415 10.9390244,33.1463415 C10.9390244,33.1463415 6.54878049,32.7073171 7.35365854,27.8780488 C7.31707317,27.8780488 6.2195122,26.7073171 6,26.4146341 Z" id="Shape"></path>
                <path d="M32.9268293,33.1463415 C32.9268293,33.1463415 35.5243902,33.4756098 37.097561,31.5365854 C39,29.1585366 37.8658537,26.4146341 37.8658537,26.4146341 C37.6463415,26.7073171 36.5121951,27.8780488 36.5121951,27.8780488 C37.3170732,32.7073171 32.9268293,33.1463415 32.9268293,33.1463415 Z" id="Shape"></path>
                <path d="M10.0609756,20.9634146 C10.0609756,20.9634146 7.6097561,13.4268293 9.84146341,0.182926829 C9.84146341,0.182926829 6.36585366,5.41463415 5.70731707,9.84146341 C5.70731707,9.84146341 5.52439024,16.7926829 8.34146341,23.7804878 C8.34146341,23.7804878 13.7195122,26.8902439 15.6219512,34.1707317 C15.5853659,34.1707317 16.8658537,27.3658537 10.0609756,20.9634146 Z" id="Shape"></path>
                <path d="M35.4878049,23.8170732 C38.304878,16.7926829 38.1219512,9.87804878 38.1219512,9.87804878 C37.4634146,5.45121951 33.9878049,0.219512195 33.9878049,0.219512195 C36.2195122,13.4634146 33.7682927,21 33.7682927,21 C26.9634146,27.402439 28.2439024,34.2073171 28.2439024,34.2073171 C30.0731707,26.9268293 35.4878049,23.8170732 35.4878049,23.8170732 Z" id="Shape"></path>
                <path d="M2.81707317,21.4756098 C2.81707317,21.4756098 4.68292683,22.4268293 6.47560976,23.2317073 C6.47560976,23.2317073 4.79268293,20.1585366 3.62195122,14.2682927 C3.62195122,14.2682927 3.62195122,17.3780488 3.98780488,19.6463415 C3.98780488,19.6463415 2.04878049,18.2926829 0.87804878,16.902439 C0.87804878,16.902439 -0.914634146,26.0853659 1.3902439,31.1341463 C3,34.6829268 6.73170732,37.9756098 8.70731707,40.097561 C9.95121951,41.4146341 13.3536585,45.5853659 13.3536585,45.5853659 L9.98780488,36.6219512 C9.98780488,36.5853659 0.43902439,33.804878 2.81707317,21.4756098 Z" id="Shape"></path>
                <path d="M42.9146341,16.8658537 C41.7439024,18.2560976 39.804878,19.6097561 39.804878,19.6097561 C40.1707317,17.3414634 40.1707317,14.2317073 40.1707317,14.2317073 C39,20.1219512 37.3170732,23.195122 37.3170732,23.195122 C39.1097561,22.3902439 40.9756098,21.4390244 40.9756098,21.4390244 C43.3536585,33.7682927 33.804878,36.5121951 33.804878,36.5121951 L30.4390244,45.4756098 C30.4390244,45.4756098 33.8414634,41.304878 35.0853659,39.9878049 C37.0609756,37.902439 40.7926829,34.6097561 42.402439,31.0243902 C44.7073171,26.0487805 42.9146341,16.8658537 42.9146341,16.8658537 Z" id="Shape"></path>
            </g>
            <path d="M63.8414634,84.9512195 C63.1829268,84.7317073 62.5243902,84.2195122 61.9390244,83.5609756 C62.7804878,84.9512195 63.5487805,86.2317073 63.8414634,87.3658537 C63.8414634,87.3658537 60.3658537,96.0365854 59.2317073,106.829268 L59.2317073,79.3170732 C58.6463415,80.5243902 56.7439024,84.2195122 54.6219512,84.9146341 C52.0609756,85.7560976 49.2804878,85.6829268 49.2804878,85.6829268 C49.2804878,85.6829268 52.5,90.1097561 54.6219512,95.1219512 C56.9634146,100.646341 58.5365854,105.146341 59.2317073,111.54878 C59.9268293,105.146341 61.5,100.646341 63.8414634,95.1219512 C65.9634146,90.1097561 69.1829268,85.6829268 69.1829268,85.6829268 C69.1829268,85.6829268 66.3658537,85.8292683 63.8414634,84.9512195 Z" id="Shape" fill="#9E9784"></path>
            <g id="Group" transform="translate(4.024390, 13.536585)" fill="#9E9784">
                <path d="M2.96341463,6.84146341 C1.79268293,8.08536585 1.20731707,8.74390244 0.0365853659,10.0243902 C0.0365853659,12.5121951 0.0365853659,13.7560976 0.0365853659,16.2439024 C2.37804878,15.5853659 3.58536585,15.2926829 5.92682927,14.7073171 C5.92682927,13.4268293 5.92682927,12.7682927 5.92682927,11.4878049 C6.2195122,11.195122 6.36585366,11.0487805 6.62195122,10.7560976 C8.45121951,10.3170732 9.36585366,10.097561 11.2317073,9.73170732 C11.5243902,9.91463415 11.6707317,9.98780488 11.9634146,10.1707317 C11.9634146,12.6219512 11.9634146,13.8658537 11.9634146,16.3536585 C11.6707317,16.6463415 11.5243902,16.7926829 11.2317073,17.0853659 C9.1097561,17.5243902 8.04878049,17.7804878 5.92682927,18.2926829 C5.92682927,20.195122 5.92682927,21.1463415 5.92682927,23.0487805 C8.04878049,22.5365854 9.1097561,22.2804878 11.2317073,21.8414634 C11.5243902,22.0243902 11.6707317,22.097561 11.9634146,22.2804878 C11.9634146,24.8780488 11.9634146,26.195122 11.9634146,28.7926829 C11.6707317,29.0853659 11.5243902,29.2317073 11.2317073,29.5243902 C9.36585366,29.9268293 8.45121951,30.1463415 6.62195122,30.5853659 C6.32926829,30.4390244 6.18292683,30.3292683 5.92682927,30.1829268 C5.92682927,28.902439 5.92682927,28.2439024 5.92682927,26.9634146 C3.54878049,27.5487805 2.37804878,27.8414634 0.0365853659,28.5 C0.0365853659,30.9878049 0.0365853659,32.2317073 0.0365853659,34.7195122 C1.20731707,35.3414634 1.79268293,35.6707317 2.96341463,36.3292683 C6.98780488,35.304878 11.0487805,34.3902439 15.1463415,33.5853659 C16.3170732,32.4146341 16.9390244,31.7926829 18.1097561,30.6585366 C18.1097561,27.2926829 18.1097561,23.9634146 18.1097561,20.597561 C16.9390244,19.8658537 16.3170732,19.5 15.1463415,18.7682927 C16.3170732,17.597561 16.9390244,16.9756098 18.1097561,15.8414634 C18.1097561,12.6219512 18.1097561,9.40243902 18.1097561,6.18292683 C16.9390244,5.45121951 16.3170732,5.08536585 15.1463415,4.35365854 C11.0487805,4.90243902 6.98780488,5.81707317 2.96341463,6.84146341 Z" id="Shape"></path>
                <path d="M25.7560976,2.30487805 C24.5487805,3.43902439 23.9634146,3.98780488 22.7926829,5.12195122 C22.7926829,13.2804878 22.7926829,21.4756098 22.7926829,29.6341463 C24,30.402439 24.5853659,30.804878 25.7560976,31.5731707 C29.8536585,30.9878049 33.9512195,30.5487805 38.0853659,30.1829268 C39.2926829,29.1219512 39.8780488,28.6097561 41.0853659,27.5853659 C41.0853659,23.4512195 41.0853659,19.3170732 41.0853659,15.1829268 C39.8780488,14.304878 39.2926829,13.8658537 38.0853659,13.0243902 C35.0121951,13.2804878 31.9390244,13.6097561 28.8658537,13.9756098 C28.8658537,11.2682927 28.8658537,9.91463415 28.8658537,7.24390244 C29.1219512,6.98780488 29.2682927,6.84146341 29.5243902,6.58536585 C31.4268293,6.36585366 32.3780488,6.25609756 34.3170732,6.03658537 C34.6097561,6.25609756 34.7560976,6.32926829 35.0487805,6.54878049 C35.0487805,7.79268293 35.0487805,8.41463415 35.0487805,9.62195122 C37.4634146,9.40243902 38.6707317,9.29268293 41.0853659,9.1097561 C41.0853659,6.69512195 41.0853659,5.48780488 41.0853659,3.07317073 C39.8780488,2.19512195 39.2926829,1.75609756 38.0853659,0.914634146 C33.9512195,1.2804878 29.8536585,1.7195122 25.7560976,2.30487805 Z M29.5243902,18.6585366 C31.4268293,18.4390244 32.3780488,18.3292683 34.3170732,18.1097561 C34.6097561,18.3292683 34.7560976,18.402439 35.0487805,18.6219512 C35.0487805,21.2195122 35.0487805,22.5365854 35.0487805,25.1341463 C34.7560976,25.3902439 34.6097561,25.5365854 34.3170732,25.7926829 C32.4146341,25.9756098 31.4634146,26.0853659 29.5243902,26.3414634 C29.2682927,26.1585366 29.1219512,26.0487805 28.8658537,25.8658537 C28.8658537,23.2682927 28.8658537,21.9512195 28.8658537,19.3536585 C29.1219512,19.0609756 29.2317073,18.9146341 29.5243902,18.6585366 Z" id="Shape"></path>
                <path d="M87.5487805,5.12195122 C86.3414634,3.98780488 85.7560976,3.40243902 84.5487805,2.30487805 C79.2804878,1.6097561 74.0121951,1.06097561 68.7073171,0.695121951 C68.7073171,10.4634146 68.7073171,20.2317073 68.7073171,30 C71.1585366,30.1463415 72.402439,30.2560976 74.8536585,30.4756098 C74.8536585,26.6707317 74.8536585,22.8658537 74.8536585,19.0609756 C76.3170732,19.2073171 77.0487805,19.2804878 78.5121951,19.4268293 C79.5,23.3414634 80.5243902,27.2560976 81.5121951,31.2073171 C83.9268293,31.5 85.1341463,31.6829268 87.5121951,32.0487805 C86.5243902,28.097561 85.5365854,24.1463415 84.5121951,20.195122 C85.7195122,19.3902439 86.304878,19.0243902 87.5121951,18.2560976 C87.5487805,13.8658537 87.5487805,9.51219512 87.5487805,5.12195122 Z M80.7804878,14.9268293 C78.4390244,14.6341463 77.2317073,14.5243902 74.8902439,14.304878 C74.8902439,10.9756098 74.8902439,9.29268293 74.8902439,5.92682927 C77.2682927,6.14634146 78.4390244,6.29268293 80.7804878,6.54878049 C81.0365854,6.80487805 81.1829268,6.91463415 81.4390244,7.17073171 C81.4390244,10.0609756 81.4390244,11.5243902 81.4390244,14.4146341 C81.1829268,14.6341463 81.0365854,14.7439024 80.7804878,14.9268293 Z" id="Shape"></path>
                <path d="M110.414634,16.0609756 C110.414634,13.6463415 110.414634,12.4390244 110.414634,10.0243902 C109.243902,8.74390244 108.658537,8.12195122 107.487805,6.84146341 C103.426829,5.7804878 99.3292683,4.86585366 95.2317073,4.06097561 C94.0609756,4.79268293 93.4390244,5.15853659 92.2682927,5.8902439 C92.2682927,9.87804878 92.2682927,13.8658537 92.2682927,17.8902439 C93.4390244,19.0609756 94.0609756,19.6463415 95.2317073,20.8170732 C98.0487805,21.3658537 100.865854,21.9878049 103.646341,22.6463415 C103.939024,22.9390244 104.085366,23.0853659 104.341463,23.3780488 C104.341463,26.0121951 104.341463,27.3658537 104.341463,30 C104.04878,30.1463415 103.902439,30.2560976 103.646341,30.402439 C101.817073,29.9634146 100.902439,29.7439024 99.0365854,29.3780488 C98.7439024,29.0853659 98.597561,28.9390244 98.304878,28.6463415 C98.304878,27.402439 98.304878,26.7804878 98.304878,25.5365854 C95.8902439,25.0243902 94.6829268,24.804878 92.2317073,24.3658537 C92.2317073,26.7804878 92.2317073,27.9878049 92.2317073,30.402439 C93.402439,31.5731707 94.0243902,32.1585366 95.195122,33.3292683 C99.2926829,34.1341463 103.390244,35.0487805 107.45122,36.1097561 C108.621951,35.4512195 109.207317,35.1219512 110.378049,34.5 C110.378049,30.3292683 110.378049,26.1585366 110.378049,22.0243902 C109.207317,20.7439024 108.621951,20.1219512 107.45122,18.8414634 C104.634146,18.1097561 101.853659,17.4512195 99,16.8658537 C98.7073171,16.5731707 98.5609756,16.4268293 98.2682927,16.1341463 C98.2682927,13.6829268 98.2682927,12.4756098 98.2682927,10.0609756 C98.5609756,9.87804878 98.7073171,9.80487805 99,9.62195122 C100.865854,10.0243902 101.780488,10.2073171 103.609756,10.6463415 C103.902439,10.9390244 104.04878,11.0853659 104.304878,11.3780488 C104.304878,12.6219512 104.304878,13.2439024 104.304878,14.4512195 C106.792683,15.1097561 108,15.402439 110.414634,16.0609756 Z" id="Shape"></path>
                <path d="M46.3170732,0.402439024 C46.3170732,10.0609756 46.3170732,19.7560976 46.3170732,29.4146341 C53.6341463,30.3292683 55.3536585,36.9146341 55.3536585,36.9146341 C55.3536585,36.9146341 57.1097561,30.3292683 63.9512195,29.3780488 C63.9512195,27.5121951 63.9512195,26.5609756 63.9512195,24.695122 C60.1463415,24.5487805 56.304878,24.4756098 52.4634146,24.5487805 C52.4634146,21.4756098 52.4634146,19.9390244 52.4634146,16.8292683 C55.8658537,16.7926829 57.5853659,16.7926829 60.9878049,16.902439 C60.9878049,15.0365854 60.9878049,14.0853659 60.9878049,12.2195122 C57.5853659,12.1097561 55.8658537,12.1097561 52.4634146,12.1463415 C52.4634146,9.25609756 52.4634146,7.82926829 52.4634146,4.93902439 C56.304878,4.90243902 60.1097561,4.93902439 63.9512195,5.08536585 C63.9512195,3.2195122 63.9512195,2.26829268 63.9512195,0.402439024 C58.0243902,0.182926829 52.1707317,0.182926829 46.3170732,0.402439024 Z" id="Shape"></path>
            </g>
        </g>
    </g>
</svg>