<?xml version="1.0" encoding="utf-8"?>
<!-- Generator: Adobe Illustrator 23.0.3, SVG Export Plug-In . SVG Version: 6.00 Build 0)  -->
<svg version="1.1" id="MASTER_LOGO" xmlns="http://www.w3.org/2000/svg" xmlns:xlink="http://www.w3.org/1999/xlink" x="0px"
	 y="0px" viewBox="0 0 427.66 439.56" style="enable-background:new 0 0 427.66 439.56;" xml:space="preserve">
<style type="text/css">
	.st0{fill:#1C1F2A;}
	.st1{fill:#FFFFFF;}
	.st2{fill:none;}
	.st3{fill:#F58220;}
	.st4{fill:#BBBCBC;}
</style>
<g>
	<path class="st0" d="M415.24,318.69c-29.58-6.7-59.42-11.89-89.39-15.6l52.33-66.7c6.1-7.8,9.45-17.67,9.42-27.79
		c0.03-10.14-3.32-20.01-9.43-27.81L255.44,24.04C240.93,6.56,223.72,2.89,211.83,2.89c-16.47,0-31.03,7.09-43.28,21.07l-0.07,0.08
		l-123,156.76c-6.1,7.8-9.45,17.67-9.42,27.79c-0.03,10.13,3.32,20.01,9.43,27.81l52.59,67.17c-28.72,3.67-57.3,8.71-85.66,15.13
		c-6.36,1.44-10.43,7.31-9.06,12.93c5.28,22,10.56,43.99,15.84,65.99c1.37,5.63,7.15,9.11,12.86,7.82
		c35.75-8.1,71.92-13.75,108.24-17.01c3.23,13.45,6.46,26.91,9.69,40.36c1.32,5.32,6.73,8.56,12.13,7.49
		c33.06-6.58,67.09-6.58,100.14,0c5.4,1.07,10.81-2.17,12.13-7.49c3.25-13.55,6.51-27.1,9.76-40.65
		c37.41,3.21,74.65,8.97,111.46,17.3c5.71,1.29,11.49-2.19,12.86-7.82c5.28-22,10.56-43.99,15.84-65.99
		C425.67,325.99,421.6,320.13,415.24,318.69z"/>
	<g>
		<path class="st1" d="M77.35,372.08c-1.37-6.26-2.75-12.52-4.13-18.77c-2.82,5.2-5.57,10.42-8.24,15.65
			c-0.32,0.07-0.64,0.13-0.96,0.2c-4.59-3.71-9.24-7.37-13.95-10.99c1.29,6.28,2.58,12.55,3.88,18.83
			c-2.89,0.66-5.77,1.33-8.65,2.02c-2.47-12.91-4.9-25.83-7.31-38.75c0.42-0.14,0.84-0.27,1.25-0.41
			c7.86,5.81,15.56,11.73,23.08,17.77c4.33-8.52,8.84-17.01,13.54-25.46c0.44-0.04,0.87-0.09,1.31-0.13
			c3.01,12.8,5.99,25.6,8.93,38.41C83.19,370.98,80.27,371.52,77.35,372.08z"/>
		<path class="st1" d="M94.09,369.06c-2.17-12.86-4.33-25.72-6.5-38.58c8.68-1.46,17.38-2.77,26.1-3.93c0.37,2.75,0.73,5.5,1.1,8.25
			c-5.46,0.73-10.92,1.51-16.37,2.36c0.36,2.3,0.72,4.61,1.07,6.91c4.92-0.76,9.85-1.48,14.78-2.14c0.35,2.61,0.71,5.22,1.06,7.83
			c-4.88,0.66-9.75,1.36-14.62,2.12c0.39,2.51,0.78,5.03,1.17,7.54c5.29-0.82,10.58-1.58,15.88-2.29c0.36,2.73,0.73,5.47,1.09,8.2
			C110.58,366.43,102.32,367.68,94.09,369.06z"/>
		<path class="st1" d="M126.86,364.32c-1.57-12.95-3.15-25.89-4.72-38.84c3.2-0.39,6.4-0.76,9.6-1.1
			c1.11,10.22,2.22,20.45,3.33,30.67c5.31-0.58,10.62-1.1,15.94-1.56c0.24,2.75,0.47,5.5,0.71,8.24
			C143.42,362.45,135.13,363.31,126.86,364.32z"/>
		<path class="st1" d="M168.76,360.83c-3.43,0.21-7.92,0.21-11.82,0.04c-1.01-12.7-2.01-25.4-3.02-38.1
			c2.96-0.67,8.14-1.47,11.54-1.68c12.1-0.76,18.42,4.14,18.62,9.56c0.16,4.11-2.12,6.97-6.62,9.01c5.6,1.33,8.31,4.34,8.48,8.82
			C186.16,354.57,180.54,360.11,168.76,360.83z M168.04,328.84c-1.74,0.11-2.96,0.35-4.29,0.65c0.18,2.72,0.36,5.43,0.55,8.15
			c1.06,0.03,1.79,0.04,3.5-0.07c4.54-0.28,6.73-1.99,6.59-4.82C174.26,330.41,172.08,328.6,168.04,328.84z M168.24,343.7
			c-1.43,0.09-2.59,0.22-3.51,0.39c0.2,3.02,0.4,6.04,0.61,9.05c1.31,0.02,2.02,0.03,3.86-0.09c4.67-0.28,6.8-2.15,6.65-5.08
			C175.69,344.98,173.18,343.39,168.24,343.7z"/>
		<path class="st1" d="M211.86,359.68c-12.14,0.04-20.2-8.35-20.62-19.83c-0.41-11.51,7.94-20.54,20.89-20.58
			c12.89-0.02,20.95,8.95,20.61,20.46C232.4,351.22,223.95,359.65,211.86,359.68z M211.93,327.38c-6.53,0.02-10.83,5.18-10.68,12.23
			c0.13,7,4.47,12.03,10.75,12.01c6.29-0.02,10.59-5.07,10.69-12.07C222.78,332.51,218.47,327.37,211.93,327.38z"/>
		<path class="st1" d="M255.54,360.87c-10.54-0.6-16.27-6.4-15.92-17.3c0.27-7.74,0.54-15.47,0.8-23.21
			c3.21,0.11,6.42,0.24,9.63,0.39c-0.36,7.52-0.71,15.03-1.07,22.55c-0.25,5.55,1.97,9.01,7.24,9.31c5.2,0.3,7.82-2.87,8.21-8.42
			c0.51-7.51,1.03-15.02,1.54-22.53c3.21,0.22,6.42,0.46,9.62,0.72c-0.62,7.71-1.25,15.43-1.87,23.14
			C272.81,356.4,266.09,361.48,255.54,360.87z"/>
		<path class="st1" d="M301.26,364.31c-1.72-4.49-3.48-8.98-5.27-13.46c-0.55-0.01-1.05-0.06-1.59-0.12
			c-1.36-0.15-2.13-0.28-3.42-0.47c-0.45,4.25-0.89,8.49-1.34,12.74c-3.04-0.32-6.07-0.62-9.11-0.9
			c1.19-12.86,2.37-25.73,3.56-38.59c3.54-0.05,7.41,0.06,12.27,0.59c12.91,1.43,17.2,7.95,16.24,15.02
			c-0.61,4.61-3.75,8.38-8.37,10.34c2.52,5.38,4.97,10.78,7.35,16.18C308.15,365.17,304.71,364.73,301.26,364.31z M296.6,332.28
			c-1.44-0.16-2.35-0.2-3.72-0.13c-0.37,3.57-0.75,7.15-1.13,10.72c1.2,0.23,1.85,0.36,2.96,0.48c4.45,0.49,7.57-1.23,8.03-5.15
			C303.14,334.97,300.7,332.73,296.6,332.28z"/>
		<path class="st1" d="M348.84,372.46c-6.5-8.42-13.24-16.76-20.23-25c-1.05,6.73-2.1,13.47-3.15,20.2
			c-3.02-0.47-6.05-0.92-9.07-1.36c1.87-13.09,3.74-26.17,5.61-39.26c0.44-0.01,0.88-0.02,1.33-0.02
			c7.18,8.12,14.13,16.35,20.83,24.66c1.18-6.66,2.37-13.31,3.56-19.97c3.18,0.57,6.35,1.15,9.52,1.76c-2.49,13-4.97,26-7.46,39
			C349.46,372.47,349.15,372.47,348.84,372.46z"/>
		<path class="st1" d="M358.36,373.57c2.6-12.78,5.2-25.56,7.81-38.34c8.64,1.76,17.26,3.67,25.84,5.73c-0.65,2.7-1.29,5.4-1.94,8.1
			c-5.38-1.29-10.78-2.52-16.18-3.7c-0.49,2.28-0.99,4.55-1.48,6.83c4.88,1.06,9.75,2.17,14.61,3.32c-0.61,2.56-1.22,5.12-1.83,7.69
			c-4.81-1.15-9.63-2.24-14.46-3.29c-0.54,2.49-1.08,4.97-1.62,7.46c5.24,1.14,10.47,2.33,15.7,3.59c-0.64,2.68-1.29,5.36-1.93,8.05
			C374.72,377.06,366.55,375.24,358.36,373.57z"/>
	</g>
	<g>
		<path class="st1" d="M181.82,410c-6.94,0.86-11.48-2.16-12.77-9.6c-0.88-5.28-1.77-10.55-2.65-15.83c2.3-0.44,4.61-0.83,6.93-1.18
			c0.69,5.16,1.38,10.32,2.06,15.48c0.52,3.81,2.43,5.85,5.98,5.41c3.5-0.42,4.94-2.85,4.66-6.69c-0.4-5.19-0.81-10.39-1.21-15.58
			c2.32-0.21,4.64-0.37,6.97-0.5c0.24,5.35,0.47,10.71,0.71,16.06C192.77,405.13,188.77,409.17,181.82,410"/>
		<path class="st1" d="M212.24,385.91c0.06,7.11,0.12,14.23,0.18,21.34c-2.02,0.02-4.05,0.07-6.07,0.17
			c-0.3-7.11-0.59-14.21-0.89-21.32c-2.92,0.13-5.84,0.34-8.76,0.61c-0.16-1.91-0.33-3.83-0.49-5.75c8.31-0.77,16.65-1,24.99-0.69
			c-0.07,1.92-0.13,3.85-0.2,5.77C218.09,385.93,215.16,385.89,212.24,385.91"/>
		<path class="st1" d="M233.62,408.03c-3.07-0.23-4.76-0.48-7.97-0.89c0.24-8.87,0.47-17.74,0.71-26.61
			c3.48-0.21,5.92-0.18,8.91,0.05c12.57,1.06,17.38,8.15,16.11,15.61C250.04,404.11,244.33,408.95,233.62,408.03 M235.79,386.26
			c-1.16-0.09-1.75-0.1-2.8-0.06c-0.32,5.31-0.64,10.63-0.95,15.94c1.13,0.19,1.6,0.26,2.96,0.38c5.83,0.52,8.84-2.35,9.48-7.39
			C245.1,390.26,242.12,386.8,235.79,386.26"/>
		<path class="st1" d="M255.31,404.04c1.59,0.37,2.56,1.95,2.19,3.53c-0.37,1.58-1.88,2.53-3.41,2.17c-1.5-0.35-2.48-1.88-2.17-3.47
			C252.23,404.68,253.75,403.68,255.31,404.04"/>
	</g>
	<path class="st2" d="M41.19,215.47c1.05,6.81,3.76,13.38,8.16,19l52.99,67.69c0.07-0.01,0.13-0.02,0.2-0.02l-53.25-68.01
		C44.97,228.6,42.27,222.15,41.19,215.47z"/>
	<g>
		<circle class="st3" cx="212.4" cy="61.51" r="38.04"/>
		<path class="st0" d="M212.4,20.76c-22.47,0-40.75,18.28-40.75,40.75s18.28,40.75,40.75,40.75s40.75-18.28,40.75-40.75
			S234.86,20.76,212.4,20.76z M247.62,58.8h-19.58c0.31-2.1,0.92-4.21,1.47-6.44c2.39-9.86,5.58-13.53,7.86-15.84
			C243.17,42.33,246.96,50.14,247.62,58.8z M202.22,64.21h7.47v32.52c-6.35-0.48-12.23-2.64-17.21-6.05
			C199.09,81.22,201.78,72.24,202.22,64.21z M202.18,58.8c-0.82-12.19-6.46-21.61-9.91-26.32c5.02-3.49,10.98-5.71,17.42-6.2V58.8
			H202.18z M215.1,64.21h7.16c-0.03,8.48,2.66,17.57,10.48,26.16c-5.07,3.58-11.11,5.86-17.65,6.36V64.21z M215.1,58.8V26.29
			c6.75,0.51,12.98,2.93,18.15,6.72c-3.48,5-9.11,14.58-10.61,25.8H215.1z M188.12,35.87c3.07,4.11,8.02,12.26,8.76,22.94h-19.71
			C177.86,49.8,181.93,41.73,188.12,35.87z M177.17,64.21h19.71c-0.48,6.97-2.9,14.78-8.62,23.07
			C181.99,81.41,177.86,73.29,177.17,64.21z M236.92,86.92c-6.19-6.72-9.28-14.32-9.29-22.7h19.99
			C246.94,73.1,242.97,81.07,236.92,86.92z"/>
	</g>
	<g>
		<path class="st4" d="M77.8,212.78c-1.81-2.32-1.81-6.38,0-8.7l45.76-58.44v-11.65L72,199.84c-3.77,4.82-3.77,12.36,0,17.17
			l51.56,65.85l0-11.65L77.8,212.78z"/>
	</g>
	<g>
		<path class="st4" d="M352.79,199.84l-51.72-66.07v11.65l45.92,58.65c1.81,2.32,1.81,6.38,0,8.7l-45.92,58.65l0,11.65l51.72-66.06
			C356.56,212.2,356.56,204.66,352.79,199.84z"/>
	</g>
	<g>
		<path class="st1" d="M131.19,128.25c-0.53,0-0.92,0.25-1.21,0.56l0,161.39l42.49-52l0-63.05l-29.19-36.94
			C135.88,128.97,132.16,128.25,131.19,128.25z"/>
	</g>
	<path class="st1" d="M164.89,88.62c6.18,0,11.35,6.24,11.4,6.31l65.87,83.37l-29.43,37.44l-64.41-81.51
		c-6.18-7.73-11.44-11.77-16.03-12.34l23.34-28.01C158.55,90.39,161.67,88.62,164.89,88.62z"/>
	<g>
		<path class="st1" d="M282.17,138.22l-30.02,37.98l0,61.99l42.49,52l0-161.9c-0.12-0.03-0.24-0.05-0.38-0.05
			C293.3,128.25,289.58,128.97,282.17,138.22z"/>
		<g>
			<path class="st1" d="M249.2,94.89c0.03-0.03,5.19-6.28,11.37-6.28c3.22,0,6.33,1.77,9.27,5.27l23.33,28
				c-4.59,0.56-9.84,4.61-16.01,12.32l-30.82,39.01l-29.51-37.35L249.2,94.89z"/>
		</g>
	</g>
	<g>
		<path class="st1" d="M78.26,372.08c-1.37-6.26-2.75-12.52-4.13-18.77c-2.82,5.2-5.57,10.42-8.24,15.65
			c-0.32,0.07-0.64,0.13-0.96,0.2c-4.59-3.71-9.24-7.37-13.95-10.99c1.29,6.28,2.58,12.55,3.88,18.83
			c-2.89,0.66-5.77,1.33-8.65,2.02c-2.47-12.91-4.9-25.83-7.31-38.75c0.42-0.14,0.84-0.27,1.25-0.41
			c7.86,5.81,15.56,11.73,23.08,17.77c4.33-8.52,8.84-17.01,13.54-25.46c0.44-0.04,0.87-0.09,1.31-0.13
			c3.01,12.8,5.99,25.6,8.93,38.41C84.09,370.98,81.17,371.52,78.26,372.08z"/>
		<path class="st1" d="M94.99,369.06c-2.17-12.86-4.33-25.72-6.5-38.58c8.68-1.46,17.38-2.77,26.1-3.93c0.37,2.75,0.73,5.5,1.1,8.25
			c-5.46,0.73-10.92,1.51-16.37,2.36c0.36,2.3,0.72,4.61,1.07,6.91c4.92-0.76,9.85-1.48,14.78-2.14c0.35,2.61,0.71,5.22,1.06,7.83
			c-4.88,0.66-9.75,1.36-14.62,2.12c0.39,2.51,0.78,5.03,1.17,7.54c5.29-0.82,10.58-1.58,15.88-2.29c0.36,2.73,0.73,5.47,1.09,8.2
			C111.48,366.43,103.22,367.68,94.99,369.06z"/>
		<path class="st1" d="M127.76,364.32c-1.57-12.95-3.15-25.89-4.72-38.84c3.2-0.39,6.4-0.76,9.6-1.1
			c1.11,10.22,2.22,20.45,3.33,30.67c5.31-0.58,10.62-1.1,15.94-1.56c0.24,2.75,0.47,5.5,0.71,8.24
			C144.32,362.45,136.03,363.31,127.76,364.32z"/>
		<path class="st1" d="M169.66,360.83c-3.43,0.21-7.92,0.21-11.82,0.04c-1.01-12.7-2.01-25.4-3.02-38.1
			c2.96-0.67,8.14-1.47,11.54-1.68c12.1-0.76,18.42,4.14,18.62,9.56c0.16,4.11-2.12,6.97-6.62,9.01c5.6,1.33,8.31,4.34,8.48,8.82
			C187.06,354.57,181.44,360.11,169.66,360.83z M168.94,328.84c-1.74,0.11-2.96,0.35-4.29,0.65c0.18,2.72,0.36,5.43,0.55,8.15
			c1.06,0.03,1.79,0.04,3.5-0.07c4.54-0.28,6.73-1.99,6.59-4.82C175.16,330.41,172.98,328.59,168.94,328.84z M169.14,343.7
			c-1.43,0.09-2.59,0.22-3.51,0.39c0.2,3.02,0.4,6.04,0.61,9.05c1.31,0.02,2.02,0.03,3.86-0.09c4.67-0.28,6.8-2.15,6.65-5.08
			C176.59,344.98,174.08,343.39,169.14,343.7z"/>
		<path class="st1" d="M212.76,359.68c-12.14,0.04-20.2-8.35-20.62-19.83c-0.41-11.51,7.94-20.54,20.89-20.58
			c12.89-0.02,20.95,8.95,20.61,20.46C233.3,351.22,224.85,359.65,212.76,359.68z M212.83,327.38c-6.53,0.02-10.83,5.18-10.68,12.23
			c0.13,7,4.47,12.03,10.75,12.01c6.29-0.02,10.59-5.07,10.69-12.07C223.68,332.51,219.37,327.37,212.83,327.38z"/>
		<path class="st1" d="M256.44,360.87c-10.54-0.6-16.27-6.4-15.92-17.3c0.27-7.74,0.54-15.47,0.8-23.21
			c3.21,0.11,6.42,0.24,9.63,0.39c-0.36,7.52-0.71,15.03-1.07,22.55c-0.25,5.55,1.97,9.01,7.24,9.31c5.2,0.3,7.82-2.87,8.21-8.42
			c0.51-7.51,1.03-15.02,1.54-22.53c3.21,0.22,6.42,0.46,9.62,0.72c-0.62,7.71-1.25,15.43-1.87,23.14
			C273.71,356.4,266.99,361.48,256.44,360.87z"/>
		<path class="st1" d="M302.17,364.31c-1.72-4.49-3.48-8.98-5.27-13.46c-0.55-0.01-1.05-0.06-1.59-0.12
			c-1.36-0.15-2.13-0.28-3.42-0.47c-0.45,4.25-0.89,8.49-1.34,12.74c-3.04-0.32-6.07-0.62-9.11-0.9
			c1.19-12.86,2.37-25.73,3.56-38.59c3.54-0.05,7.41,0.06,12.27,0.59c12.91,1.43,17.2,7.95,16.24,15.02
			c-0.61,4.61-3.75,8.38-8.37,10.34c2.52,5.38,4.97,10.78,7.35,16.18C309.05,365.17,305.61,364.73,302.17,364.31z M297.5,332.28
			c-1.44-0.16-2.35-0.2-3.72-0.13c-0.37,3.57-0.75,7.15-1.13,10.72c1.2,0.23,1.85,0.36,2.96,0.48c4.45,0.49,7.57-1.23,8.03-5.15
			C304.04,334.97,301.6,332.73,297.5,332.28z"/>
		<path class="st1" d="M349.74,372.46c-6.5-8.42-13.24-16.76-20.23-25c-1.05,6.73-2.1,13.47-3.15,20.2
			c-3.02-0.47-6.05-0.92-9.07-1.36c1.87-13.09,3.74-26.17,5.61-39.26c0.44-0.01,0.88-0.02,1.33-0.02
			c7.18,8.12,14.13,16.35,20.83,24.66c1.18-6.66,2.37-13.31,3.56-19.97c3.18,0.57,6.35,1.15,9.52,1.76c-2.49,13-4.97,26-7.46,39
			C350.36,372.47,350.05,372.47,349.74,372.46z"/>
		<path class="st1" d="M359.26,373.57c2.6-12.78,5.2-25.56,7.81-38.34c8.64,1.76,17.26,3.67,25.84,5.73c-0.65,2.7-1.29,5.4-1.94,8.1
			c-5.38-1.29-10.78-2.52-16.18-3.7c-0.49,2.28-0.99,4.55-1.48,6.83c4.88,1.06,9.75,2.17,14.61,3.32c-0.61,2.56-1.22,5.12-1.83,7.69
			c-4.81-1.15-9.63-2.24-14.46-3.29c-0.54,2.49-1.08,4.97-1.62,7.46c5.24,1.14,10.47,2.33,15.7,3.59c-0.64,2.68-1.29,5.36-1.93,8.04
			C375.63,377.05,367.45,375.24,359.26,373.57z"/>
	</g>
	<g>
		<path class="st1" d="M182.72,410c-6.94,0.86-11.48-2.16-12.77-9.6c-0.88-5.28-1.77-10.55-2.65-15.83c2.3-0.44,4.61-0.83,6.93-1.18
			c0.69,5.16,1.38,10.32,2.06,15.48c0.52,3.81,2.43,5.85,5.98,5.41c3.5-0.42,4.94-2.85,4.66-6.69c-0.4-5.19-0.81-10.39-1.21-15.58
			c2.32-0.21,4.64-0.37,6.97-0.5c0.24,5.35,0.47,10.71,0.71,16.06C193.67,405.13,189.67,409.17,182.72,410"/>
		<path class="st1" d="M213.14,385.91c0.06,7.11,0.12,14.23,0.18,21.34c-2.02,0.02-4.05,0.07-6.07,0.17
			c-0.3-7.11-0.59-14.21-0.89-21.32c-2.92,0.13-5.84,0.33-8.76,0.61c-0.16-1.91-0.33-3.83-0.49-5.75c8.31-0.77,16.65-1,24.99-0.69
			c-0.07,1.92-0.13,3.85-0.2,5.77C218.99,385.93,216.06,385.89,213.14,385.91"/>
		<path class="st1" d="M234.52,408.03c-3.07-0.23-4.76-0.48-7.97-0.89c0.24-8.87,0.47-17.74,0.71-26.61
			c3.48-0.21,5.92-0.18,8.91,0.05c12.57,1.06,17.38,8.15,16.11,15.61C250.94,404.11,245.23,408.95,234.52,408.03 M236.69,386.26
			c-1.16-0.09-1.75-0.1-2.8-0.06c-0.32,5.31-0.64,10.63-0.95,15.94c1.13,0.19,1.6,0.26,2.96,0.38c5.83,0.52,8.84-2.35,9.48-7.39
			C246,390.26,243.02,386.8,236.69,386.26"/>
		<path class="st1" d="M256.21,404.04c1.59,0.37,2.56,1.95,2.19,3.53c-0.37,1.58-1.88,2.53-3.41,2.17c-1.5-0.35-2.48-1.88-2.17-3.47
			C253.13,404.68,254.66,403.68,256.21,404.04"/>
	</g>
	<g>
		<path class="st4" d="M164.04,298.44l-4.61-3.84l45.09-54.01c1.64-1.86,3.92-2.9,6.33-2.9c0.01,0,0.02,0,0.02,0
			c2.41,0.01,4.7,1.05,6.28,2.87l44.79,54.28l-4.63,3.82l-44.73-54.22c-0.56-0.64-1.32-0.75-1.72-0.75c-0.35,0.02-1.16,0.1-1.78,0.8
			L164.04,298.44z"/>
	</g>
	<g>
		<path class="st1" d="M425.63,322.47c-2.11-3.4-5.65-5.87-9.71-6.79c-27.96-6.33-56.23-11.33-84.69-15l49.05-62.51
			c6.5-8.31,10.06-18.82,10.03-29.56c0.03-10.78-3.54-21.29-10.05-29.6L257.49,22.19C242.27,3.85,224.16,0,211.66,0
			c-17.34,0-32.63,7.42-45.45,22.06l-0.12,0.13L43.04,179.01c-6.5,8.31-10.06,18.82-10.03,29.56c-0.03,10.78,3.54,21.29,10.05,29.6
			L92.4,301.2c-27.09,3.62-54.02,8.44-80.66,14.47c-4.06,0.92-7.6,3.39-9.71,6.79c-1.89,3.05-2.48,6.56-1.68,9.88l15.84,65.99
			c1.49,6.15,7.03,10.45,13.46,10.45c1.03,0,2.07-0.12,3.08-0.34c34.44-7.8,69.81-13.41,105.17-16.7l9.07,37.78
			c1.47,5.91,6.84,10.04,13.06,10.04c0.89,0,1.79-0.09,2.68-0.26c32.51-6.47,66.43-6.47,98.94,0c0.88,0.18,1.78,0.26,2.68,0.26
			c6.22,0,11.59-4.13,13.06-10.07l9.14-38.06c36.4,3.24,72.86,8.96,108.39,17.01c1.01,0.23,2.05,0.34,3.08,0.34h0
			c6.43,0,11.97-4.3,13.46-10.46l15.84-65.98C428.12,329.02,427.52,325.51,425.63,322.47z M48.39,234.12
			c-5.79-7.39-8.67-16.47-8.65-25.53c-0.03-9.06,2.85-18.13,8.64-25.52L171.32,26.39c12-13.7,25.56-19.82,40.51-19.82
			c13.65,0,28.61,5.15,40.78,19.82l122.66,156.67c5.79,7.39,8.67,16.47,8.65,25.53c0.03,9.06-2.85,18.13-8.64,25.52l-51.49,65.63
			c-36.49-4.41-73.24-6.66-109.96-6.66c-37.98,0-76,2.38-113.71,7.1L48.39,234.12z M421.3,330.9l-15.84,65.98
			c-0.8,3.32-3.94,5.72-7.45,5.72h0c-0.58,0-1.16-0.06-1.72-0.19c-36.67-8.3-74.31-14.15-111.88-17.37l-2.65-0.23l-10.38,43.21
			c-0.78,3.15-3.68,5.35-7.05,5.35c-0.49,0-0.99-0.05-1.47-0.15c-16.65-3.31-33.7-4.99-50.68-4.99c-16.98,0-34.02,1.68-50.67,4.99
			c-0.48,0.1-0.98,0.15-1.47,0.15c-3.38,0-6.28-2.2-7.05-5.33l-10.31-42.95l-2.66,0.24c-36.52,3.28-73.07,9.02-108.64,17.07
			c-0.57,0.13-1.15,0.19-1.72,0.19c-3.51,0-6.65-2.41-7.45-5.72L6.36,330.89c-0.41-1.71-0.09-3.54,0.92-5.17
			c1.24-2,3.36-3.46,5.82-4.02c27.64-6.26,55.59-11.2,83.72-14.85c2.58-0.34,5.17-0.66,7.76-0.97c36.25-4.39,72.77-6.62,109.25-6.62
			c35.22,0,70.48,2.08,105.49,6.17c2.49,0.29,4.99,0.58,7.48,0.89c29.49,3.69,58.8,8.82,87.76,15.38c2.46,0.56,4.58,2.02,5.82,4.02
			C421.39,327.35,421.71,329.19,421.3,330.9z"/>
	</g>
</g>
</svg>
