<?xml version="1.0" encoding="UTF-8"?>
<svg width="150px" height="150px" viewBox="0 0 150 150" version="1.1" xmlns="http://www.w3.org/2000/svg" xmlns:xlink="http://www.w3.org/1999/xlink">
    <!-- Generator: Sketch 51.2 (57519) - http://www.bohemiancoding.com/sketch -->
    <title>Breakers</title>
    <desc>Created with Sketch.</desc>
    <defs>
        <radialGradient cx="21.8313646%" cy="-9.12849162%" fx="21.8313646%" fy="-9.12849162%" r="168.435475%" gradientTransform="translate(0.218314,-0.091285),scale(0.208321,1.000000),translate(-0.218314,0.091285)" id="radialGradient-1">
            <stop stop-color="#FFFFFF" offset="14.55%"></stop>
            <stop stop-color="#A2A3A5" offset="56.97%"></stop>
            <stop stop-color="#FFFFFF" offset="100%"></stop>
        </radialGradient>
        <linearGradient x1="41.554287%" y1="-65.4294314%" x2="56.7645273%" y2="145.121405%" id="linearGradient-2">
            <stop stop-color="#00A0CE" offset="0%"></stop>
            <stop stop-color="#0084B6" offset="13.41%"></stop>
            <stop stop-color="#005D94" offset="37.11%"></stop>
            <stop stop-color="#004780" offset="54.63%"></stop>
            <stop stop-color="#003E7A" offset="63.92%"></stop>
        </linearGradient>
        <radialGradient cx="72.9393875%" cy="47.7662168%" fx="72.9393875%" fy="47.7662168%" r="75.1953206%" gradientTransform="translate(0.729394,0.477662),scale(1.000000,0.676971),rotate(30.334040),translate(-0.729394,-0.477662)" id="radialGradient-3">
            <stop stop-color="#FBBA64" offset="0%"></stop>
            <stop stop-color="#C32126" offset="67.98%"></stop>
            <stop stop-color="#89181A" offset="100%"></stop>
        </radialGradient>
        <radialGradient cx="22.0720259%" cy="50.9175074%" fx="22.0720259%" fy="50.9175074%" r="104.967612%" gradientTransform="translate(0.220720,0.509175),scale(1.000000,0.516908),rotate(30.334040),translate(-0.220720,-0.509175)" id="radialGradient-4">
            <stop stop-color="#FBBA64" offset="0%"></stop>
            <stop stop-color="#C32126" offset="67.98%"></stop>
            <stop stop-color="#89181A" offset="100%"></stop>
        </radialGradient>
        <radialGradient cx="92.7656646%" cy="37.9738372%" fx="92.7656646%" fy="37.9738372%" r="77.0874685%" gradientTransform="translate(0.927657,0.379738),scale(1.000000,0.872351),rotate(30.334040),translate(-0.927657,-0.379738)" id="radialGradient-5">
            <stop stop-color="#FBBA64" offset="0%"></stop>
            <stop stop-color="#C32126" offset="67.98%"></stop>
            <stop stop-color="#89181A" offset="100%"></stop>
        </radialGradient>
        <radialGradient cx="-146.314%" cy="72.6478135%" fx="-146.314%" fy="72.6478135%" r="322.748809%" gradientTransform="translate(-1.463140,0.726478),scale(1.000000,0.392467),rotate(30.334040),translate(1.463140,-0.726478)" id="radialGradient-6">
            <stop stop-color="#FBBA64" offset="0%"></stop>
            <stop stop-color="#C32126" offset="67.98%"></stop>
            <stop stop-color="#89181A" offset="100%"></stop>
        </radialGradient>
        <linearGradient x1="43.2248393%" y1="1.74622708%" x2="65.7030676%" y2="73.5121266%" id="linearGradient-7">
            <stop stop-color="#94938A" offset="0%"></stop>
            <stop stop-color="#FFFFFF" offset="50%"></stop>
            <stop stop-color="#777771" offset="100%"></stop>
        </linearGradient>
        <linearGradient x1="-1.72304612%" y1="-20.9683647%" x2="73.0269513%" y2="107.967596%" id="linearGradient-8">
            <stop stop-color="#94938A" offset="0%"></stop>
            <stop stop-color="#FFFFFF" offset="50%"></stop>
            <stop stop-color="#777771" offset="100%"></stop>
        </linearGradient>
        <linearGradient x1="40.8554169%" y1="12.8588055%" x2="77.7712762%" y2="72.3208314%" id="linearGradient-9">
            <stop stop-color="#94938A" offset="0%"></stop>
            <stop stop-color="#FFFFFF" offset="50%"></stop>
            <stop stop-color="#777771" offset="100%"></stop>
        </linearGradient>
    </defs>
    <g id="Breakers" stroke="none" stroke-width="1" fill="none" fill-rule="evenodd">
        <g id="new-zealand-breakers" transform="translate(3.000000, 45.000000)">
            <path d="M7.57894737,19.2789474 C6.82105263,19.2789474 6.06315789,18.9473684 5.58947368,18.3789474 C5.11578947,17.8105263 4.92631579,17.0526316 5.02105263,16.2947368 L7.01052632,4.87894737 C7.24736842,3.45789474 8.57368421,2.36842105 9.99473684,2.36842105 L83.6052632,2.36842105 C85.1210526,2.36842105 86.4,3.6 86.4,5.16315789 L86.4,16.5315789 C86.4,18.0473684 85.1684211,19.3263158 83.6052632,19.3263158 L7.57894737,19.3263158 L7.57894737,19.2789474 Z" id="Shape" fill="url(#radialGradient-1)" fill-rule="nonzero"></path>
            <path d="M85.0263158,16.4842105 C85.0263158,17.2421053 84.4105263,17.8578947 83.6526316,17.8578947 L7.57894737,17.8578947 C6.82105263,17.8578947 6.3,17.2421053 6.44210526,16.4842105 L8.43157895,5.06842105 C8.57368421,4.31052632 9.28421053,3.69473684 10.0421053,3.69473684 L83.6526316,3.69473684 C84.4105263,3.69473684 85.0263158,4.31052632 85.0263158,5.06842105 L85.0263158,16.4842105 Z" id="Shape" fill="#D4D9DC" fill-rule="nonzero"></path>
            <path d="M85.0263158,16.4842105 C85.0263158,17.2421053 84.4105263,17.8578947 83.6526316,17.8578947 L7.57894737,17.8578947 C6.82105263,17.8578947 6.3,17.2421053 6.44210526,16.4842105 L8.43157895,5.06842105 C8.57368421,4.31052632 9.28421053,3.69473684 10.0421053,3.69473684 L83.6526316,3.69473684 C84.4105263,3.69473684 85.0263158,4.31052632 85.0263158,5.06842105 L85.0263158,16.4842105 Z" id="Shape" fill="url(#linearGradient-2)" fill-rule="nonzero"></path>
            <g id="Group" transform="translate(61.578947, 0.000000)" fill-rule="nonzero">
                <path d="M70.3894737,27.6631579 C68.3052632,20.1315789 58.4526316,15.8684211 45.9473684,16.0105263 C45.9473684,16.0578947 45.9473684,16.1052632 45.9947368,16.1526316 C55.6105263,16.4842105 63,20.0368421 64.6578947,25.9578947 C67.1684211,34.9105263 55.7526316,45.8526316 39.2210526,50.4947368 C22.6894737,55.0894737 7.24736842,51.5842105 4.78421053,42.6789474 C2.98421053,36.1894737 8.52631579,28.6105263 18.0473684,23.1631579 C18.0473684,23.1157895 18.0473684,23.1157895 18,23.0684211 C5.58947368,29.4631579 -1.84736842,39.0315789 0.426315789,47.1789474 C3.36315789,57.6947368 21.4105263,61.8631579 40.7368421,56.5105263 C60.0631579,51.1105263 73.3263158,38.1789474 70.3894737,27.6631579 Z" id="Shape" fill="#B0B7BC"></path>
                <path d="M43.6736842,26.9052632 C42.2526316,28.4684211 40.5473684,29.7947368 38.6052632,30.7421053 L37.8473684,31.0736842 C33.5368421,32.9210526 28.7052632,32.9210526 24.4421053,31.0736842 C23.2105263,32.4473684 22.6894737,33.8684211 23.0210526,35.1947368 C23.8736842,38.3684211 29.6052632,39.6473684 35.8578947,37.9894737 C42.1105263,36.3315789 46.4684211,32.4473684 45.6631579,29.2263158 C45.4263158,28.2789474 44.7157895,27.4736842 43.6736842,26.9052632 Z" id="Shape" fill="#B0B7BC"></path>
                <path d="M39.8368421,14.0210526 C38.4631579,8.05263158 34.9578947,3.12631579 30.5052632,0 C30.3157895,0 29.7947368,0.0473684211 29.7947368,0.0473684211 C25.6736842,0.426315789 21.8842105,2.41578947 19.2315789,5.54210526 C27.9,5.16315789 35.1,8.62105263 36.4263158,14.4 C37.7526316,20.1789474 32.7315789,26.4789474 24.7263158,29.9368421 C28.7526316,31.7842105 33.3473684,31.8315789 37.4210526,30.0315789 C37.4210526,30.0315789 37.8947368,29.7947368 38.0842105,29.7473684 C40.3578947,25.2 41.1157895,19.6105263 39.8368421,14.0210526 Z" id="Shape" fill="url(#radialGradient-3)"></path>
                <path d="M44.7157895,23.5894737 C45.5684211,22.1684211 46.1368421,20.6052632 46.5157895,19.0421053 L46.5631579,18.8526316 C44.0526316,17.3368421 42.3473684,15.2526316 41.7789474,12.6947368 C41.2105263,10.2789474 41.7789474,7.81578947 43.1526316,5.49473684 C43.1052632,5.44736842 43.0578947,5.35263158 43.0578947,5.35263158 C41.9684211,4.07368421 40.6421053,2.98421053 39.1736842,2.13157895 C36.8052632,0.757894737 34.1052632,-2.66453526e-15 31.3578947,-2.66453526e-15 C35.6684211,3.17368421 38.9842105,8.05263158 40.3578947,13.9263158 C41.6368421,19.4210526 40.9736842,24.8210526 38.8421053,29.4157895 C41.2578947,28.0421053 43.2947368,26.0526316 44.7157895,23.5894737 Z" id="Shape" fill="url(#radialGradient-4)"></path>
                <path d="M36,14.4947368 C34.7210526,8.85789474 27.4736842,5.49473684 18.8526316,6.01578947 C18.7578947,6.11052632 18.5684211,6.39473684 18.5684211,6.39473684 C18.2368421,6.82105263 17.9526316,7.29473684 17.6684211,7.76842105 C15.5368421,11.3684211 14.9684211,15.5842105 16.0105263,19.6578947 C17.0526316,23.7315789 19.6578947,27.0947368 23.2578947,29.2263158 L23.7789474,29.5105263 C23.7789474,29.5105263 24.0631579,29.6526316 24.2052632,29.7 C32.2578947,26.3842105 37.3263158,20.1789474 36,14.4947368 Z" id="Shape" fill="url(#radialGradient-5)"></path>
                <path d="M43.3894737,5.82631579 C42.1105263,8.05263158 41.6368421,10.3736842 42.1578947,12.6 C42.7263158,14.9684211 44.2894737,16.9578947 46.6578947,18.4263158 C46.8,17.5263158 46.8947368,16.5789474 46.8947368,15.6789474 C46.8947368,12.1263158 45.6631579,8.62105263 43.3894737,5.82631579 Z" id="Shape" fill="url(#radialGradient-6)"></path>
                <path d="M18.6157895,6.3 C27.3315789,5.73157895 34.4842105,9.18947368 35.7157895,14.5894737 C36.9473684,19.9894737 31.9736842,26.2421053 23.8736842,29.5578947 C24.0157895,29.6526316 24.2526316,29.7473684 24.2526316,29.7473684 C24.5368421,29.8894737 24.7736842,29.9842105 25.0578947,30.1263158 C33.2526316,26.5263158 38.0368421,20.1315789 36.7105263,14.3526316 C35.3842105,8.62105263 28.3736842,4.97368421 19.4684211,5.30526316 C19.2789474,5.54210526 19.0894737,5.73157895 18.9,5.96842105 C18.9,5.96842105 18.7105263,6.20526316 18.6157895,6.3 Z" id="Shape" fill="url(#linearGradient-7)"></path>
                <path d="M46.5631579,18.6631579 C46.5631579,18.6631579 46.5631579,18.6157895 46.5631579,18.6157895 C46.6105263,18.4263158 46.6105263,18.2842105 46.6578947,18.0947368 C44.3842105,16.6263158 42.9157895,14.7315789 42.3947368,12.5526316 C41.9210526,10.4684211 42.3,8.24210526 43.5315789,6.06315789 C43.4368421,5.92105263 43.3421053,5.82631579 43.2,5.68421053 C43.2,5.68421053 42.9631579,5.4 42.9157895,5.35263158 C42.8684211,5.30526316 42.8684211,5.30526316 42.8210526,5.25789474 C41.3052632,7.76842105 40.8315789,10.3263158 41.3526316,12.7421053 C41.9684211,15.3 43.6736842,17.4789474 46.3736842,19.0894737 C46.3736842,19.0421053 46.3736842,19.0421053 46.4210526,18.9947368 L46.5631579,18.6631579 Z" id="Shape" fill="url(#linearGradient-8)"></path>
                <path d="M30.5526316,0 C30.5526316,0 30.2684211,0 30.0315789,0.0473684211 C34.7684211,3.22105263 38.1789474,8.28947368 39.5526316,14.1157895 C40.8315789,19.6105263 40.1210526,25.2 37.6578947,29.9842105 C37.8473684,29.8894737 38.1315789,29.7473684 38.1315789,29.7473684 C38.5105263,29.5578947 38.8421053,29.3684211 39.1736842,29.1789474 C41.2578947,24.4894737 41.7315789,19.0894737 40.5473684,13.8789474 C39.2210526,8.24210526 36.1421053,3.36315789 31.7368421,0.0473684211 C31.3578947,0 30.9789474,0 30.5526316,0 Z" id="Shape" fill="url(#linearGradient-9)"></path>
            </g>
            <g id="Group" transform="translate(113.210526, 32.684211)" fill-rule="nonzero">
                <path d="M14.4947368,8.76315789 L10.2315789,8.76315789 C8.71578947,8.76315789 8.14736842,8.28947368 8.19473684,7.2 C8.19473684,5.92105263 9.18947368,5.35263158 10.9421053,5.35263158 L18.4736842,5.35263158 C19.4684211,5.35263158 20.3684211,4.54736842 20.5105263,3.55263158 C20.6526316,2.55789474 19.9894737,1.75263158 19.0421053,1.75263158 L10.5157895,1.75263158 C6.34736842,1.75263158 4.07368421,3.64736842 3.45789474,7.38947368 C2.55789474,12.9789474 7.29473684,12.3157895 8.71578947,12.3157895 L12.7894737,12.3157895 C14.4947368,12.3157895 15.2526316,12.9315789 15.0631579,14.1157895 C14.8736842,15.3473684 13.8789474,16.0105263 12.2210526,16.0105263 L2.41578947,16.0105263 L1.84736842,19.5631579 L13.8315789,19.5631579 C16.8157895,19.5631579 18.9947368,17.2421053 19.5631579,13.6894737 C20.0842105,9.56842105 17.3842105,8.76315789 14.4947368,8.76315789 Z" id="Shape" fill="#FFFFFF"></path>
                <path d="M13.8315789,21.0315789 L1.84736842,21.0315789 C1.42105263,21.0315789 0.994736842,20.8421053 0.710526316,20.5105263 C0.426315789,20.1789474 0.331578947,19.7526316 0.378947368,19.3263158 L0.947368421,15.7736842 C1.04210526,15.0631579 1.65789474,14.5421053 2.41578947,14.5421053 L12.2210526,14.5421053 C13.5,14.5421053 13.5473684,14.1157895 13.5947368,13.9263158 C13.5947368,13.9263158 13.5947368,13.9263158 13.5947368,13.8789474 C13.4526316,13.8315789 13.2157895,13.7842105 12.7894737,13.7842105 L8.71578947,13.7842105 C8.62105263,13.7842105 8.47894737,13.7842105 8.33684211,13.7842105 C7.10526316,13.8315789 4.59473684,13.9263158 3.03157895,12.1263158 C1.98947368,10.9421053 1.65789474,9.28421053 1.98947368,7.15263158 C2.7,2.65263158 5.63684211,0.284210526 10.5157895,0.284210526 L19.0421053,0.284210526 C19.0894737,0.284210526 19.1842105,0.284210526 19.2315789,0.284210526 C20.0368421,0.331578947 20.7947368,0.710526316 21.3157895,1.32631579 C21.8842105,1.98947368 22.1210526,2.88947368 21.9789474,3.78947368 C21.7421053,5.44736842 20.3210526,6.72631579 18.6631579,6.82105263 C18.6157895,6.82105263 18.5684211,6.82105263 18.5210526,6.82105263 L10.9894737,6.82105263 C9.94736842,6.82105263 9.71052632,7.05789474 9.71052632,7.05789474 C9.71052632,7.05789474 9.71052632,7.10526316 9.71052632,7.2 C9.71052632,7.2 9.71052632,7.24736842 9.71052632,7.24736842 C9.80526316,7.24736842 9.99473684,7.29473684 10.2789474,7.29473684 L14.5421053,7.29473684 C17.0526316,7.29473684 18.8526316,7.91052632 19.9421053,9.14210526 C20.9368421,10.2789474 21.3157895,11.8894737 21.0789474,13.8789474 C21.0789474,13.8789474 21.0789474,13.9263158 21.0789474,13.9263158 C20.3210526,18.2368421 17.5263158,21.0315789 13.8315789,21.0315789 Z M3.6,18.0947368 L13.8315789,18.0947368 C16.0578947,18.0947368 17.6210526,16.3894737 18.0947368,13.5 C18.2368421,12.3631579 18.0947368,11.5578947 17.6684211,11.0842105 C17.1473684,10.5157895 16.1052632,10.2315789 14.4947368,10.2315789 L10.2315789,10.2315789 C9.42631579,10.2315789 8.24210526,10.1368421 7.43684211,9.28421053 C6.91578947,8.71578947 6.67894737,8.00526316 6.72631579,7.15263158 C6.72631579,6.34736842 7.15263158,3.88421053 10.9421053,3.88421053 L18.3789474,3.88421053 C18.3789474,3.88421053 18.4263158,3.88421053 18.4263158,3.88421053 C18.7105263,3.88421053 18.9947368,3.6 19.0421053,3.31578947 C19.0421053,3.26842105 19.0421053,3.22105263 19.0421053,3.22105263 C19.0421053,3.22105263 19.0421053,3.22105263 18.9947368,3.22105263 C18.9473684,3.22105263 18.9473684,3.22105263 18.9,3.22105263 L10.5157895,3.22105263 C7.10526316,3.22105263 5.4,4.59473684 4.92631579,7.62631579 C4.78421053,8.47894737 4.73684211,9.61578947 5.25789474,10.1842105 C5.87368421,10.8947368 7.43684211,10.8473684 8.24210526,10.8473684 C8.43157895,10.8473684 8.57368421,10.8473684 8.71578947,10.8473684 L12.7894737,10.8473684 C14.2105263,10.8473684 15.2526316,11.2263158 15.9157895,11.9842105 C16.2947368,12.4105263 16.6736842,13.2157895 16.4842105,14.3526316 C16.3421053,15.3 15.6315789,17.4789474 12.1736842,17.4789474 L3.64736842,17.4789474 L3.6,18.0947368 Z" id="Shape" fill="#231F20"></path>
            </g>
            <path d="M127.705263,41.4473684 L123.442105,41.4473684 C121.926316,41.4473684 121.357895,40.9736842 121.405263,39.8842105 C121.405263,38.6052632 122.4,38.0368421 124.152632,38.0368421 L131.684211,38.0368421 C132.678947,38.0368421 133.578947,37.2315789 133.721053,36.2368421 C133.863158,35.2421053 133.2,34.4368421 132.252632,34.4368421 L123.726316,34.4368421 C119.557895,34.4368421 117.284211,36.3315789 116.668421,40.0736842 C115.768421,45.6631579 120.505263,45 121.926316,45 L126,45 C127.705263,45 128.463158,45.6157895 128.273684,46.8 C128.084211,48.0315789 127.089474,48.6947368 125.431579,48.6947368 L115.626316,48.6947368 L115.057895,52.2473684 L127.042105,52.2473684 C130.026316,52.2473684 132.205263,49.9263158 132.773684,46.3736842 C133.294737,42.2526316 130.594737,41.4473684 127.705263,41.4473684 Z" id="Shape" fill="#FFFFFF" fill-rule="nonzero"></path>
            <g id="Group" transform="translate(1.894737, 27.947368)">
                <path d="M6.20526316,14.4 L6.20526316,14.4947368 C6.30526316,14.8263158 6.40526316,15.2052632 6.50526316,15.5368421 C6.35526316,15.1578947 6.25526316,14.7789474 6.20526316,14.4 Z" id="Shape"></path>
                <path d="M8.66842105,20.6526316 C8.47894737,20.6526316 8.24210526,20.6526316 8.05263158,20.6526316 L7.81578947,20.6526316 L5.21052632,20.6526316 L5.87368421,16.2947368 L6.15789474,14.4473684 L6.15789474,14.3526316 L6.34736842,13.2157895 L6.39473684,12.9789474 L6.67894737,11.1315789 L6.82105263,10.2315789 L9.71052632,10.2315789 C14.1157895,10.2315789 14.5894737,12.5526316 14.1631579,15.3947368 C13.7842105,18.1894737 12.4105263,20.4157895 8.66842105,20.6526316 Z M11.5105263,6.48947368 L7.43684211,6.48947368 L8.1,2.27368421 C8.1,2.27368421 8.1,2.27368421 8.1,2.27368421 C8.14736842,2.08421053 8.14736842,1.89473684 8.1,1.70526316 C8.05263158,1.13684211 7.76842105,0.663157895 7.34210526,0.331578947 C7.2,0.236842105 7.01052632,0.142105263 6.82105263,0.0947368421 C6.63157895,0.0473684211 6.39473684,0 6.20526316,0 C6.11052632,0 5.96842105,0 5.87368421,0 C5.68421053,0.0473684211 5.49473684,0.0947368421 5.30526316,0.142105263 C4.40526316,0.473684211 3.69473684,1.32631579 3.55263158,2.27368421 C3.55263158,2.27368421 3.55263158,2.27368421 3.55263158,2.27368421 L3.55263158,2.41578947 L0.0947368421,24.3473684 L9,24.3473684 C9.33157895,24.3473684 9.61578947,24.3473684 9.9,24.3 C9.99473684,24.3 10.0894737,24.3 10.1368421,24.3 C16.4368421,23.6842105 18.5684211,18.2368421 19.0421053,15.2526316 C19.8,9.56842105 17.1947368,6.48947368 11.5105263,6.48947368 Z" id="Shape" fill="#FFFFFF" fill-rule="nonzero"></path>
            </g>
            <g id="Group" transform="translate(48.315789, 32.684211)" fill-rule="nonzero">
                <path d="M14.2578947,1.75263158 L6.3,1.75263158 C5.30526316,1.75263158 4.35789474,2.55789474 4.21578947,3.55263158 C4.07368421,4.54736842 4.73684211,5.35263158 5.73157895,5.35263158 L11.9842105,5.35263158 C15.3,5.35263158 16.1052632,6.11052632 15.6789474,8.85789474 L9.47368421,8.85789474 C4.73684211,8.85789474 2.22631579,10.3736842 1.61052632,14.3526316 C1.23157895,17.5736842 2.79473684,19.6105263 6.20526316,19.6105263 L18.6631579,19.6105263 L20.4157895,8.43157895 C21.3631579,1.75263158 16.2947368,1.75263158 14.2578947,1.75263158 Z M14.5421053,16.1052632 L8.66842105,16.1052632 C7.10526316,16.1052632 6.20526316,15.5842105 6.44210526,14.2105263 C6.72631579,12.4105263 8.14736842,12.2684211 9.66315789,12.2684211 L15.1578947,12.2684211 L14.5421053,16.1052632 Z" id="Shape" fill="#FFFFFF"></path>
                <path d="M18.6631579,21.0315789 L6.15789474,21.0315789 C3.55263158,21.0315789 2.13157895,20.0368421 1.37368421,19.1842105 C0.284210526,17.9526316 -0.142105263,16.2473684 0.0947368421,14.1631579 C0.0947368421,14.1631579 0.0947368421,14.1157895 0.0947368421,14.1157895 C1.04210526,8.05263158 5.87368421,7.38947368 9.42631579,7.38947368 L14.2578947,7.38947368 C14.2105263,7.2 14.2105263,7.15263158 14.2105263,7.15263158 C14.1631579,7.10526316 13.8789474,6.82105263 11.9842105,6.82105263 L5.73157895,6.82105263 C5.68421053,6.82105263 5.63684211,6.82105263 5.58947368,6.82105263 C4.73684211,6.77368421 3.93157895,6.39473684 3.41052632,5.77894737 C2.84210526,5.11578947 2.60526316,4.21578947 2.74736842,3.31578947 C3.03157895,1.61052632 4.54736842,0.284210526 6.25263158,0.284210526 L14.2578947,0.284210526 C15.6789474,0.284210526 18.7105263,0.284210526 20.5578947,2.41578947 C21.7894737,3.88421053 22.2631579,5.96842105 21.8842105,8.62105263 L20.1315789,19.8 C19.9894737,20.5105263 19.3736842,21.0315789 18.6631579,21.0315789 Z M3.03157895,14.5421053 C2.93684211,15.3947368 2.98421053,16.5315789 3.6,17.2421053 C4.12105263,17.8105263 4.97368421,18.0947368 6.15789474,18.0947368 L17.3842105,18.0947368 L18.9473684,8.19473684 C19.1842105,6.44210526 18.9947368,5.16315789 18.3315789,4.35789474 C17.3368421,3.22105263 15.3473684,3.22105263 14.2578947,3.22105263 L6.3,3.22105263 C6.01578947,3.22105263 5.73157895,3.50526316 5.68421053,3.78947368 C5.68421053,3.83684211 5.68421053,3.88421053 5.68421053,3.88421053 C5.68421053,3.88421053 5.73157895,3.88421053 5.73157895,3.88421053 C5.77894737,3.88421053 5.77894737,3.88421053 5.82631579,3.88421053 L11.9842105,3.88421053 C13.6894737,3.88421053 15.4421053,4.02631579 16.4842105,5.25789474 C17.4315789,6.39473684 17.3368421,7.91052632 17.1473684,9.09473684 C17.0526316,9.80526316 16.4368421,10.3263158 15.6789474,10.3263158 L9.47368421,10.3263158 C4.68947368,10.2789474 3.45789474,11.8894737 3.03157895,14.5421053 Z M14.5421053,17.5736842 L8.66842105,17.5736842 C7.24736842,17.5736842 6.20526316,17.1947368 5.58947368,16.4368421 C5.21052632,16.0105263 4.78421053,15.2052632 4.97368421,13.9263158 C5.44736842,10.7526316 8.47894737,10.7526316 9.61578947,10.7526316 L15.1578947,10.7526316 C15.5842105,10.7526316 16.0105263,10.9421053 16.2947368,11.2736842 C16.5789474,11.6052632 16.6736842,12.0315789 16.6263158,12.4578947 L16.0105263,16.3421053 C15.8684211,17.0526316 15.2526316,17.5736842 14.5421053,17.5736842 Z M7.81578947,14.5421053 C7.91052632,14.5894737 8.19473684,14.6368421 8.62105263,14.6368421 L13.2631579,14.6368421 L13.4052632,13.6894737 L9.56842105,13.6894737 C7.91052632,13.6894737 7.91052632,13.9263158 7.81578947,14.4 C7.86315789,14.4473684 7.81578947,14.4947368 7.81578947,14.5421053 Z" id="Shape" fill="#231F20"></path>
            </g>
            <g id="Group" transform="translate(31.736842, 32.684211)" fill-rule="nonzero">
                <path d="M14.7315789,16.0105263 C14.7315789,16.0105263 14.7315789,16.0105263 14.7315789,16.0105263 L10.3263158,16.0105263 C6.72631579,16.0105263 6.06315789,15.0631579 6.48947368,12.5052632 L15.2526316,12.5052632 C15.2526316,12.5052632 15.2526316,12.5052632 15.2526316,12.5052632 C16.2473684,12.5052632 17.1947368,11.7 17.3842105,10.6578947 C17.5263158,9.66315789 16.8631579,8.81052632 15.8684211,8.81052632 C15.8210526,8.81052632 15.8210526,8.81052632 15.8210526,8.81052632 L7.15263158,8.81052632 C7.57894737,6.11052632 8.95263158,5.30526316 12.0789474,5.30526316 L16.4368421,5.30526316 C17.4315789,5.30526316 18.3315789,4.5 18.5210526,3.50526316 C18.6631579,2.51052632 18,1.70526316 17.0052632,1.70526316 L11.9842105,1.70526316 C8.76315789,1.70526316 2.98421053,2.55789474 1.70526316,10.6105263 C0.9,16.0105263 3.22105263,19.5157895 9.18947368,19.5157895 L14.1631579,19.5157895 C14.1631579,19.5157895 14.1631579,19.5157895 14.1631579,19.5157895 C15.1578947,19.5157895 16.0578947,18.7105263 16.2,17.7157895 C16.3894737,16.8157895 15.7263158,16.0105263 14.7315789,16.0105263 Z" id="Shape" fill="#FFFFFF"></path>
                <path d="M14.1631579,21.0315789 L9.18947368,21.0315789 C5.96842105,21.0315789 3.55263158,20.0842105 1.98947368,18.2842105 C0.378947368,16.4368421 -0.189473684,13.6894737 0.284210526,10.4210526 C1.32631579,3.78947368 5.4,0.284210526 12.0315789,0.284210526 L17.0052632,0.284210526 C17.9052632,0.284210526 18.7578947,0.663157895 19.2789474,1.32631579 C19.8473684,1.98947368 20.0842105,2.88947368 19.9421053,3.78947368 C19.6578947,5.44736842 18.1894737,6.77368421 16.5315789,6.82105263 C16.4842105,6.82105263 16.4368421,6.82105263 16.3894737,6.82105263 L12.0315789,6.82105263 C10.5631579,6.82105263 9.75789474,7.01052632 9.28421053,7.38947368 L15.6315789,7.38947368 C15.6789474,7.38947368 15.7263158,7.38947368 15.8210526,7.38947368 C16.7210526,7.38947368 17.5736842,7.76842105 18.1421053,8.43157895 C18.7105263,9.09473684 18.9473684,9.99473684 18.8052632,10.9421053 C18.5210526,12.6473684 17.0526316,13.9736842 15.3473684,14.0210526 C15.3,14.0210526 15.2526316,14.0210526 15.2526316,14.0210526 L7.86315789,14.0210526 C7.86315789,14.1631579 7.91052632,14.2105263 7.91052632,14.2105263 C7.95789474,14.2578947 8.28947368,14.5894737 10.3263158,14.5894737 L14.7315789,14.5894737 C15.6315789,14.5894737 16.4842105,14.9684211 17.0052632,15.6315789 C17.5736842,16.2947368 17.8105263,17.1947368 17.6684211,18.0947368 C17.4315789,19.7052632 15.8684211,21.0315789 14.1631579,21.0315789 Z M16.9578947,3.22105263 L11.9842105,3.22105263 C6.86842105,3.22105263 3.93157895,5.73157895 3.12631579,10.8947368 C2.88947368,12.5526316 2.84210526,14.8736842 4.16842105,16.3894737 C5.16315789,17.5263158 6.82105263,18.1421053 9.14210526,18.1421053 L14.1157895,18.1421053 C14.4,18.1421053 14.6842105,17.8578947 14.7315789,17.6210526 C14.7315789,17.5736842 14.7315789,17.5736842 14.7315789,17.5263158 C14.7315789,17.5263158 14.7315789,17.5263158 14.6842105,17.5263158 L10.2789474,17.5263158 C8.57368421,17.5263158 6.67894737,17.3368421 5.63684211,16.1052632 C4.68947368,15.0157895 4.78421053,13.5947368 4.97368421,12.3157895 C5.06842105,11.6052632 5.68421053,11.0842105 6.44210526,11.0842105 L15.0631579,11.0842105 C15.1105263,11.0842105 15.1578947,11.0842105 15.2052632,11.0842105 C15.4894737,11.0842105 15.8210526,10.8 15.8684211,10.5157895 C15.8684211,10.4210526 15.8684211,10.4210526 15.8684211,10.3736842 C15.8684211,10.3736842 15.8684211,10.3736842 15.8210526,10.3736842 C15.7736842,10.3736842 15.7263158,10.3736842 15.6789474,10.3736842 L7.15263158,10.3736842 C6.72631579,10.3736842 6.3,10.1842105 6.01578947,9.85263158 C5.73157895,9.52105263 5.63684211,9.09473684 5.68421053,8.66842105 C6.34736842,4.45263158 9.28421053,3.88421053 12.0315789,3.88421053 L16.2947368,3.88421053 C16.3421053,3.88421053 16.3421053,3.88421053 16.3894737,3.88421053 C16.6736842,3.88421053 16.9578947,3.6 17.0052632,3.31578947 C17.0052632,3.26842105 17.0052632,3.22105263 17.0052632,3.22105263 C17.0526316,3.22105263 17.0052632,3.22105263 16.9578947,3.22105263 Z" id="Shape" fill="#231F20"></path>
            </g>
            <g id="Group" transform="translate(85.263158, 32.684211)" fill-rule="nonzero">
                <path d="M14.7315789,16.0105263 C14.7315789,16.0105263 14.7315789,16.0105263 14.7315789,16.0105263 L10.3263158,16.0105263 C6.67894737,16.0105263 6.06315789,15.0631579 6.48947368,12.5052632 L15.2526316,12.5052632 C15.2526316,12.5052632 15.2526316,12.5052632 15.2526316,12.5052632 C16.2473684,12.5052632 17.1947368,11.7 17.3842105,10.6578947 C17.5263158,9.66315789 16.8631579,8.81052632 15.8684211,8.81052632 C15.8210526,8.81052632 15.8210526,8.81052632 15.7736842,8.81052632 L7.15263158,8.81052632 C7.57894737,6.11052632 8.95263158,5.30526316 12.0789474,5.30526316 L16.4368421,5.30526316 C17.4315789,5.30526316 18.3315789,4.5 18.5210526,3.50526316 C18.6631579,2.51052632 18,1.70526316 17.0052632,1.70526316 L12.0315789,1.70526316 C8.81052632,1.70526316 3.03157895,2.55789474 1.75263158,10.6105263 C0.947368421,16.0105263 3.26842105,19.5157895 9.23684211,19.5157895 L14.2105263,19.5157895 C14.2105263,19.5157895 14.2105263,19.5157895 14.2105263,19.5157895 C15.2052632,19.5157895 16.1052632,18.7105263 16.2473684,17.7157895 C16.3894737,16.8157895 15.7263158,16.0105263 14.7315789,16.0105263 Z" id="Shape" fill="#FFFFFF"></path>
                <path d="M14.1631579,21.0315789 L9.18947368,21.0315789 C5.96842105,21.0315789 3.55263158,20.0842105 1.98947368,18.2842105 C0.378947368,16.4368421 -0.189473684,13.7368421 0.284210526,10.4210526 C1.32631579,3.78947368 5.4,0.284210526 12.0315789,0.284210526 L17.0052632,0.284210526 C17.9052632,0.284210526 18.7578947,0.663157895 19.2789474,1.32631579 C19.8473684,1.98947368 20.0842105,2.88947368 19.9421053,3.78947368 C19.6578947,5.44736842 18.1894737,6.77368421 16.5315789,6.82105263 C16.4842105,6.82105263 16.4368421,6.82105263 16.3894737,6.82105263 L12.0315789,6.82105263 C10.5631579,6.82105263 9.75789474,7.01052632 9.28421053,7.38947368 L15.6315789,7.38947368 C15.6789474,7.38947368 15.7263158,7.38947368 15.8210526,7.38947368 C16.7210526,7.38947368 17.5736842,7.76842105 18.1421053,8.43157895 C18.7105263,9.09473684 18.9473684,9.99473684 18.8052632,10.9421053 C18.5210526,12.6473684 17.0052632,13.9736842 15.3473684,14.0210526 C15.3,14.0210526 15.2526316,14.0210526 15.2526316,14.0210526 L7.91052632,14.0210526 C7.91052632,14.1631579 7.95789474,14.2105263 7.95789474,14.2105263 C8.00526316,14.2578947 8.33684211,14.5894737 10.3736842,14.5894737 L14.7789474,14.5894737 C15.6789474,14.5894737 16.5315789,14.9684211 17.0526316,15.6315789 C17.6210526,16.2947368 17.8578947,17.1947368 17.7157895,18.0947368 C17.4315789,19.7052632 15.8684211,21.0315789 14.1631579,21.0315789 Z M16.9578947,3.22105263 L11.9842105,3.22105263 C6.86842105,3.22105263 3.97894737,5.73157895 3.12631579,10.8947368 C2.88947368,12.5526316 2.84210526,14.8736842 4.16842105,16.3894737 C5.16315789,17.5263158 6.82105263,18.1421053 9.14210526,18.1421053 L14.1157895,18.1421053 C14.4,18.1421053 14.6842105,17.8578947 14.7315789,17.6210526 C14.7315789,17.5736842 14.7315789,17.5263158 14.7315789,17.5263158 C14.7315789,17.5263158 14.6842105,17.5263158 14.6842105,17.5263158 L10.2789474,17.5263158 C8.57368421,17.5263158 6.67894737,17.3368421 5.63684211,16.1052632 C4.68947368,15.0157895 4.78421053,13.5947368 4.97368421,12.3157895 C5.06842105,11.6052632 5.68421053,11.0842105 6.44210526,11.0842105 L15.1578947,11.0842105 C15.1578947,11.0842105 15.2052632,11.0842105 15.2052632,11.0842105 C15.4894737,11.0842105 15.8210526,10.8 15.8684211,10.5157895 C15.8684211,10.4210526 15.8684211,10.4210526 15.8684211,10.3736842 C15.8684211,10.3736842 15.8684211,10.3736842 15.8210526,10.3736842 C15.7736842,10.3736842 15.7263158,10.3736842 15.6789474,10.3736842 L7.05789474,10.3736842 C6.63157895,10.3736842 6.20526316,10.1842105 5.92105263,9.85263158 C5.63684211,9.52105263 5.54210526,9.09473684 5.58947368,8.66842105 C6.25263158,4.45263158 9.18947368,3.88421053 11.9368421,3.88421053 L16.2,3.88421053 C16.2473684,3.88421053 16.2473684,3.88421053 16.2947368,3.88421053 C16.5789474,3.88421053 16.8631579,3.6 16.9105263,3.31578947 C16.9105263,3.26842105 16.9105263,3.22105263 16.9105263,3.22105263 C17.0052632,3.22105263 17.0052632,3.22105263 16.9578947,3.22105263 Z" id="Shape" fill="#231F20"></path>
            </g>
            <g id="Group" transform="translate(67.263158, 26.052632)" fill-rule="nonzero">
                <path d="M22.5,8.38421053 L16.7210526,8.38421053 L7.76842105,16.9578947 L9.80526316,4.12105263 C9.99473684,2.84210526 9.14210526,1.84736842 7.86315789,1.84736842 C6.58421053,1.84736842 5.4,2.84210526 5.21052632,4.12105263 L1.70526316,26.1947368 L6.25263158,26.1947368 L7.62631579,17.5263158 L13.4526316,26.1947368 L19.6105263,26.1947368 L13.0263158,17.0526316 L22.5,8.38421053 Z" id="Shape" fill="#FFFFFF"></path>
                <path d="M19.7052632,27.6631579 L13.5473684,27.6631579 C13.0736842,27.6631579 12.6,27.4263158 12.3157895,27 L8.57368421,21.4105263 L7.76842105,26.3842105 C7.67368421,27.0947368 7.05789474,27.6157895 6.3,27.6157895 L1.75263158,27.6157895 C1.32631579,27.6157895 0.9,27.4263158 0.615789474,27.0947368 C0.331578947,26.7631579 0.236842105,26.3368421 0.284210526,25.9105263 L3.78947368,3.83684211 C3.78947368,3.78947368 3.78947368,3.74210526 3.83684211,3.69473684 C4.21578947,1.8 5.96842105,0.331578947 7.91052632,0.331578947 C8.95263158,0.331578947 9.9,0.757894737 10.5157895,1.51578947 C11.1789474,2.27368421 11.4157895,3.26842105 11.2736842,4.31052632 L9.9,12.8368421 L15.7263158,7.29473684 C16.0105263,7.01052632 16.3421053,6.86842105 16.7210526,6.86842105 L22.5,6.86842105 C23.1157895,6.86842105 23.6368421,7.24736842 23.8736842,7.81578947 C24.1105263,8.38421053 23.9210526,9.04736842 23.4947368,9.42631579 L14.9684211,17.2421053 L20.8894737,25.2947368 C21.2210526,25.7210526 21.2684211,26.3368421 21.0315789,26.8105263 C20.7473684,27.3315789 20.2263158,27.6631579 19.7052632,27.6631579 Z M14.3052632,24.7263158 L16.8157895,24.7263158 L11.8421053,17.9052632 C11.4157895,17.2894737 11.4631579,16.4368421 12.0315789,15.9631579 L18.7105263,9.85263158 L17.2894737,9.85263158 L9.37894737,17.4315789 L14.3052632,24.7263158 Z M3.45789474,24.7263158 L5.02105263,24.7263158 L6.20526316,17.2894737 C6.20526316,17.1947368 6.25263158,17.1 6.3,17.0052632 C6.3,16.9105263 6.3,16.8157895 6.3,16.7210526 L8.33684211,3.88421053 C8.38421053,3.69473684 8.33684211,3.55263158 8.24210526,3.45789474 C8.14736842,3.36315789 7.95789474,3.31578947 7.86315789,3.31578947 C7.34210526,3.31578947 6.77368421,3.78947368 6.67894737,4.35789474 C6.67894737,4.40526316 6.67894737,4.45263158 6.67894737,4.45263158 L3.45789474,24.7263158 Z" id="Shape" fill="#231F20"></path>
            </g>
            <g id="Group" transform="translate(20.368421, 32.684211)" fill-rule="nonzero">
                <path d="M12.4578947,1.70526316 C12.4578947,1.70526316 12.4105263,1.70526316 12.4578947,1.70526316 L4.02631579,1.70526316 L3.50526316,5.02105263 L1.56315789,17.3368421 C1.56315789,17.3368421 1.56315789,17.3368421 1.56315789,17.3368421 C1.37368421,18.5684211 2.22631579,19.6105263 3.45789474,19.6105263 C4.73684211,19.6105263 5.87368421,18.6157895 6.06315789,17.3368421 C6.06315789,17.3368421 6.06315789,17.3368421 6.06315789,17.3368421 L8.00526316,5.02105263 L11.8894737,5.02105263 C11.8894737,5.02105263 11.8894737,5.02105263 11.9368421,5.02105263 C12.8368421,5.02105263 13.6894737,4.26315789 13.8315789,3.36315789 C13.9736842,2.46315789 13.3578947,1.70526316 12.4578947,1.70526316 Z" id="Shape" fill="#FFFFFF"></path>
                <path d="M3.45789474,21.0789474 C2.41578947,21.0789474 1.46842105,20.6526316 0.852631579,19.8947368 C0.236842105,19.1368421 -0.0473684211,18.1421053 0.0947368421,17.1473684 C0.0947368421,17.1473684 0.0947368421,17.1 0.0947368421,17.1 L2.55789474,1.46842105 C2.65263158,0.757894737 3.26842105,0.236842105 4.02631579,0.236842105 L12.3157895,0.236842105 C12.3631579,0.236842105 12.4105263,0.236842105 12.4105263,0.236842105 C13.2631579,0.236842105 14.0684211,0.615789474 14.6368421,1.23157895 C15.1578947,1.84736842 15.3947368,2.74736842 15.3,3.6 C15.0631579,5.21052632 13.5473684,6.48947368 11.9368421,6.48947368 C11.9368421,6.48947368 11.9368421,6.48947368 11.8894737,6.48947368 L9.28421053,6.48947368 L7.53157895,17.5263158 C7.53157895,17.5263158 7.53157895,17.5736842 7.53157895,17.5736842 C7.2,19.5157895 5.4,21.0789474 3.45789474,21.0789474 Z M2.98421053,17.5263158 C2.98421053,17.5263158 2.98421053,17.5736842 2.98421053,17.5736842 C2.93684211,17.7631579 2.98421053,17.9052632 3.07894737,18 C3.17368421,18.0947368 3.31578947,18.1421053 3.45789474,18.1421053 C3.97894737,18.1421053 4.5,17.6684211 4.64210526,17.1473684 C4.64210526,17.1473684 4.64210526,17.1 4.64210526,17.1 L6.58421053,4.78421053 C6.67894737,4.07368421 7.29473684,3.55263158 8.05263158,3.55263158 L11.7947368,3.55263158 C11.8421053,3.55263158 11.9368421,3.55263158 11.9842105,3.55263158 C12.1263158,3.50526316 12.3157895,3.36315789 12.3631579,3.17368421 L5.25789474,3.17368421 L2.98421053,17.5263158 Z" id="Shape" fill="#231F20"></path>
            </g>
            <g id="Group" transform="translate(101.842105, 32.684211)" fill-rule="nonzero">
                <path d="M12.6947368,1.70526316 C12.6473684,1.70526316 12.6473684,1.70526316 12.6947368,1.70526316 L4.26315789,1.70526316 L3.74210526,5.02105263 L1.8,17.3368421 C1.8,17.3368421 1.8,17.3368421 1.8,17.3368421 C1.61052632,18.5684211 2.46315789,19.6105263 3.69473684,19.6105263 C4.97368421,19.6105263 6.11052632,18.6157895 6.34736842,17.3368421 C6.34736842,17.3368421 6.34736842,17.3368421 6.34736842,17.3368421 L8.28947368,5.02105263 L12.1736842,5.02105263 C12.1736842,5.02105263 12.1736842,5.02105263 12.1736842,5.02105263 C13.0736842,5.02105263 13.9263158,4.26315789 14.0684211,3.36315789 C14.2105263,2.46315789 13.5947368,1.70526316 12.6947368,1.70526316 Z" id="Shape" fill="#FFFFFF"></path>
                <path d="M3.64736842,21.0789474 C2.60526316,21.0789474 1.65789474,20.6526316 1.04210526,19.8947368 C0.378947368,19.1368421 0.142105263,18.1421053 0.284210526,17.1 C0.284210526,17.0526316 0.284210526,17.0052632 0.331578947,16.9578947 L2.79473684,1.46842105 C2.88947368,0.757894737 3.50526316,0.236842105 4.26315789,0.236842105 L12.6,0.236842105 C12.6473684,0.236842105 12.6947368,0.236842105 12.6947368,0.236842105 C13.5473684,0.236842105 14.3526316,0.615789474 14.9210526,1.23157895 C15.4421053,1.84736842 15.6789474,2.74736842 15.5368421,3.6 C15.3,5.21052632 13.8315789,6.48947368 12.1736842,6.48947368 C12.1736842,6.48947368 12.1736842,6.48947368 12.1736842,6.48947368 L9.56842105,6.48947368 L7.81578947,17.4789474 C7.81578947,17.4789474 7.81578947,17.5263158 7.81578947,17.5263158 C7.43684211,19.5631579 5.63684211,21.0789474 3.64736842,21.0789474 Z M3.22105263,17.6684211 C3.22105263,17.8105263 3.22105263,17.9526316 3.31578947,18 C3.41052632,18.0947368 3.55263158,18.1421053 3.69473684,18.1421053 C4.21578947,18.1421053 4.78421053,17.6684211 4.87894737,17.1473684 C4.87894737,17.1473684 4.87894737,17.1 4.87894737,17.1 L6.82105263,4.78421053 C6.91578947,4.07368421 7.53157895,3.55263158 8.28947368,3.55263158 L12.0315789,3.55263158 C12.0789474,3.55263158 12.1736842,3.55263158 12.2210526,3.55263158 C12.3631579,3.50526316 12.5526316,3.36315789 12.6,3.17368421 L5.49473684,3.17368421 L3.22105263,17.5263158 C3.22105263,17.5736842 3.22105263,17.6210526 3.22105263,17.6684211 Z" id="Shape" fill="#231F20"></path>
            </g>
            <g id="Group" transform="translate(0.000000, 26.052632)" fill-rule="nonzero">
                <path d="M13.4052632,8.38421053 L9.33157895,8.38421053 L9.99473684,4.16842105 C9.99473684,4.16842105 9.99473684,4.16842105 9.99473684,4.16842105 C10.1842105,2.88947368 9.33157895,1.89473684 8.05263158,1.89473684 C6.77368421,1.89473684 5.58947368,2.93684211 5.4,4.16842105 C5.4,4.16842105 5.4,4.16842105 5.4,4.16842105 L1.89473684,26.2421053 L10.8,26.2421053 C18,26.2421053 20.3684211,20.2736842 20.8421053,17.1473684 C21.6947368,11.4631579 19.0894737,8.38421053 13.4052632,8.38421053 Z M9.94736842,22.5947368 L7.10526316,22.5947368 L8.76315789,12.2210526 L11.6526316,12.2210526 C16.0578947,12.2210526 16.5315789,14.5421053 16.1052632,17.3842105 C15.6315789,20.2263158 14.1631579,22.5947368 9.94736842,22.5947368 Z" id="Shape" fill="#FFFFFF"></path>
                <path d="M10.8473684,27.6631579 L1.94210526,27.6631579 C1.51578947,27.6631579 1.08947368,27.4736842 0.805263158,27.1421053 C0.521052632,26.8105263 0.426315789,26.3842105 0.473684211,25.9578947 L3.97894737,3.88421053 C3.97894737,3.83684211 3.97894737,3.78947368 3.97894737,3.78947368 C4.35789474,1.84736842 6.11052632,0.378947368 8.05263158,0.378947368 C9.09473684,0.378947368 10.0421053,0.805263158 10.6578947,1.56315789 C11.2736842,2.27368421 11.5578947,3.26842105 11.4157895,4.31052632 C11.4157895,4.35789474 11.4157895,4.35789474 11.4157895,4.40526316 L10.9894737,6.96315789 L13.3578947,6.96315789 C16.5789474,6.96315789 19.0421053,7.86315789 20.6052632,9.66315789 C22.1684211,11.4631579 22.7842105,14.0684211 22.3105263,17.3368421 C21.6,22.0736842 18.1421053,27.6631579 10.8473684,27.6631579 Z M3.64736842,24.7263158 L10.8473684,24.7263158 C17.8578947,24.7263158 19.2315789,18.1894737 19.4210526,16.8631579 C19.7526316,14.4947368 19.3736842,12.6947368 18.3789474,11.5578947 C17.3842105,10.4210526 15.7263158,9.85263158 13.3578947,9.85263158 L9.28421053,9.85263158 C8.85789474,9.85263158 8.43157895,9.66315789 8.14736842,9.33157895 C7.86315789,9 7.76842105,8.57368421 7.81578947,8.14736842 L8.47894737,3.97894737 C8.47894737,3.93157895 8.47894737,3.88421053 8.47894737,3.88421053 C8.52631579,3.69473684 8.47894737,3.55263158 8.38421053,3.45789474 C8.28947368,3.36315789 8.1,3.31578947 8.00526316,3.31578947 C7.48421053,3.31578947 6.91578947,3.78947368 6.82105263,4.35789474 C6.82105263,4.40526316 6.82105263,4.45263158 6.82105263,4.45263158 L3.64736842,24.7263158 Z M9.94736842,24.0631579 L7.10526316,24.0631579 C6.67894737,24.0631579 6.25263158,23.8736842 5.96842105,23.5421053 C5.68421053,23.2105263 5.58947368,22.7842105 5.63684211,22.3578947 L7.29473684,11.9842105 C7.38947368,11.2736842 8.00526316,10.7526316 8.76315789,10.7526316 L11.6526316,10.7526316 C13.9736842,10.7526316 15.5842105,11.3210526 16.5789474,12.5052632 C17.9052632,14.0210526 17.7631579,16.1526316 17.5263158,17.6210526 C16.9105263,21.7894737 14.3052632,24.0631579 9.94736842,24.0631579 Z M8.81052632,21.0789474 L9.94736842,21.0789474 C12.8368421,21.0789474 14.2105263,19.9421053 14.6368421,17.1 C14.8263158,15.7263158 14.7315789,14.8263158 14.3526316,14.3526316 C13.8315789,13.7368421 12.6,13.6421053 11.6526316,13.6421053 L9.99473684,13.6421053 L8.81052632,21.0789474 Z" id="Shape" fill="#231F20"></path>
            </g>
            <path d="M62.5736842,34.4368421 L54.6157895,34.4368421 C53.6210526,34.4368421 52.6736842,35.2421053 52.5315789,36.2368421 C52.3894737,37.2315789 53.0526316,38.0368421 54.0473684,38.0368421 L60.3,38.0368421 C63.6157895,38.0368421 64.4210526,38.7947368 63.9947368,41.5421053 L57.7894737,41.5421053 C53.0526316,41.5421053 50.5421053,43.0578947 49.9263158,47.0368421 C49.5473684,50.2578947 51.1105263,52.2947368 54.5210526,52.2947368 L66.9789474,52.2947368 L68.7315789,41.1157895 C69.6789474,34.4368421 64.6105263,34.4368421 62.5736842,34.4368421 Z M62.8578947,48.7894737 L56.9842105,48.7894737 C55.4210526,48.7894737 54.5210526,48.2684211 54.7578947,46.8947368 C55.0421053,45.0947368 56.4631579,44.9526316 57.9789474,44.9526316 L63.4736842,44.9526316 L62.8578947,48.7894737 Z" id="Shape" fill="#FFFFFF" fill-rule="nonzero"></path>
            <path d="M46.4684211,48.6947368 C46.4684211,48.6947368 46.4684211,48.6947368 46.4684211,48.6947368 L42.0631579,48.6947368 C38.4631579,48.6947368 37.8,47.7473684 38.2263158,45.1894737 L46.9894737,45.1894737 C46.9894737,45.1894737 46.9894737,45.1894737 46.9894737,45.1894737 C47.9842105,45.1894737 48.9315789,44.3842105 49.1210526,43.3421053 C49.2631579,42.3473684 48.6,41.4947368 47.6052632,41.4947368 C47.5578947,41.4947368 47.5578947,41.4947368 47.5578947,41.4947368 L38.8894737,41.4947368 C39.3157895,38.7947368 40.6894737,37.9894737 43.8157895,37.9894737 L48.1736842,37.9894737 C49.1684211,37.9894737 50.0684211,37.1842105 50.2578947,36.1894737 C50.4,35.1947368 49.7368421,34.3894737 48.7421053,34.3894737 L43.7210526,34.3894737 C40.5,34.3894737 34.7210526,35.2421053 33.4421053,43.2947368 C32.6368421,48.6947368 34.9578947,52.2 40.9263158,52.2 L45.9,52.2 C45.9,52.2 45.9,52.2 45.9,52.2 C46.8947368,52.2 47.7947368,51.3947368 47.9368421,50.4 C48.1263158,49.5 47.4631579,48.6947368 46.4684211,48.6947368 Z" id="Shape" fill="#FFFFFF" fill-rule="nonzero"></path>
            <path d="M99.9947368,48.6947368 C99.9947368,48.6947368 99.9947368,48.6947368 99.9947368,48.6947368 L95.5894737,48.6947368 C91.9421053,48.6947368 91.3263158,47.7473684 91.7526316,45.1894737 L100.515789,45.1894737 C100.515789,45.1894737 100.515789,45.1894737 100.515789,45.1894737 C101.510526,45.1894737 102.457895,44.3842105 102.647368,43.3421053 C102.789474,42.3473684 102.126316,41.4947368 101.131579,41.4947368 C101.084211,41.4947368 101.084211,41.4947368 101.036842,41.4947368 L92.4157895,41.4947368 C92.8421053,38.7947368 94.2157895,37.9894737 97.3421053,37.9894737 L101.7,37.9894737 C102.694737,37.9894737 103.594737,37.1842105 103.784211,36.1894737 C103.926316,35.1947368 103.263158,34.3894737 102.268421,34.3894737 L97.2947368,34.3894737 C94.0736842,34.3894737 88.2947368,35.2421053 87.0157895,43.2947368 C86.2105263,48.6947368 88.5315789,52.2 94.5,52.2 L99.4736842,52.2 C99.4736842,52.2 99.4736842,52.2 99.4736842,52.2 C100.468421,52.2 101.368421,51.3947368 101.510526,50.4 C101.652632,49.5 100.989474,48.6947368 99.9947368,48.6947368 Z" id="Shape" fill="#FFFFFF" fill-rule="nonzero"></path>
            <path d="M89.7631579,34.4368421 L83.9842105,34.4368421 L75.0315789,43.0105263 L77.0684211,30.1736842 C77.2578947,28.8947368 76.4052632,27.9 75.1263158,27.9 C73.8473684,27.9 72.6631579,28.8947368 72.4736842,30.1736842 L68.9684211,52.2473684 L73.5157895,52.2473684 L74.8894737,43.5789474 L80.7157895,52.2473684 L86.8736842,52.2473684 L80.2894737,43.1052632 L89.7631579,34.4368421 Z" id="Shape" fill="#FFFFFF" fill-rule="nonzero"></path>
            <path d="M32.8263158,34.3894737 C32.8263158,34.3894737 32.7789474,34.3894737 32.8263158,34.3894737 L24.3947368,34.3894737 L23.8736842,37.7052632 L21.9315789,50.0210526 C21.9315789,50.0210526 21.9315789,50.0210526 21.9315789,50.0210526 C21.7421053,51.2526316 22.5947368,52.2947368 23.8263158,52.2947368 C25.1052632,52.2947368 26.2421053,51.3 26.4315789,50.0210526 C26.4315789,50.0210526 26.4315789,50.0210526 26.4315789,50.0210526 L28.3736842,37.7052632 L32.2578947,37.7052632 C32.2578947,37.7052632 32.2578947,37.7052632 32.3052632,37.7052632 C33.2052632,37.7052632 34.0578947,36.9473684 34.2,36.0473684 C34.3421053,35.1473684 33.7263158,34.3894737 32.8263158,34.3894737 Z" id="Shape" fill="#FFFFFF" fill-rule="nonzero"></path>
            <path d="M114.536842,34.3894737 C114.489474,34.3894737 114.489474,34.3894737 114.536842,34.3894737 L106.105263,34.3894737 L105.584211,37.7052632 L103.642105,50.0210526 C103.642105,50.0210526 103.642105,50.0210526 103.642105,50.0210526 C103.452632,51.2526316 104.305263,52.2947368 105.536842,52.2947368 C106.815789,52.2947368 107.952632,51.3 108.189474,50.0210526 C108.189474,50.0210526 108.189474,50.0210526 108.189474,50.0210526 L110.131579,37.7052632 L114.015789,37.7052632 C114.015789,37.7052632 114.015789,37.7052632 114.015789,37.7052632 C114.915789,37.7052632 115.768421,36.9473684 115.910526,36.0473684 C116.052632,35.1473684 115.436842,34.3894737 114.536842,34.3894737 Z" id="Shape" fill="#FFFFFF" fill-rule="nonzero"></path>
            <path d="M13.4052632,34.4368421 L9.33157895,34.4368421 L9.99473684,30.2210526 C9.99473684,30.2210526 9.99473684,30.2210526 9.99473684,30.2210526 C10.1842105,28.9421053 9.33157895,27.9473684 8.05263158,27.9473684 C6.77368421,27.9473684 5.58947368,28.9894737 5.4,30.2210526 C5.4,30.2210526 5.4,30.2210526 5.4,30.2210526 L1.89473684,52.2947368 L10.8,52.2947368 C18,52.2947368 20.3684211,46.3263158 20.8421053,43.2 C21.6947368,37.5157895 19.0894737,34.4368421 13.4052632,34.4368421 Z M9.94736842,48.6473684 L7.10526316,48.6473684 L8.76315789,38.2736842 L11.6526316,38.2736842 C16.0578947,38.2736842 16.5315789,40.5947368 16.1052632,43.4368421 C15.6315789,46.2789474 14.1631579,48.6473684 9.94736842,48.6473684 Z" id="Shape" fill="#FFFFFF" fill-rule="nonzero"></path>
            <g id="Group" transform="translate(12.789474, 21.315789)" fill-rule="nonzero">
                <g transform="translate(8.526316, 0.000000)" id="Shape">
                    <path d="M9.9,1.13684211 L3.07894737,1.13684211 C2.60526316,1.13684211 2.13157895,1.56315789 2.03684211,2.03684211 C1.94210526,2.51052632 2.27368421,2.93684211 2.79473684,2.93684211 L6.82105263,2.93684211 L1.13684211,7.72105263 L0.852631579,9.47368421 L8.57368421,9.47368421 L8.85789474,7.72105263 L3.97894737,7.72105263 L9.66315789,2.93684211 L9.9,1.13684211 Z" fill="#808184"></path>
                    <path d="M8.57368421,10.1842105 L0.852631579,10.1842105 C0.663157895,10.1842105 0.473684211,10.0894737 0.331578947,9.94736842 C0.189473684,9.80526316 0.142105263,9.56842105 0.189473684,9.37894737 L0.473684211,7.62631579 C0.521052632,7.48421053 0.568421053,7.29473684 0.710526316,7.2 L4.92631579,3.64736842 L2.79473684,3.64736842 C2.36842105,3.64736842 1.94210526,3.45789474 1.70526316,3.12631579 C1.42105263,2.79473684 1.32631579,2.36842105 1.37368421,1.94210526 C1.51578947,1.08947368 2.27368421,0.473684211 3.07894737,0.426315789 L9.9,0.426315789 C10.0894737,0.426315789 10.2789474,0.521052632 10.4210526,0.663157895 C10.5631579,0.805263158 10.6105263,1.04210526 10.5631579,1.23157895 L10.2789474,3.03157895 C10.2315789,3.17368421 10.1842105,3.36315789 10.0421053,3.45789474 L5.82631579,7.01052632 L8.85789474,7.01052632 C9.04736842,7.01052632 9.23684211,7.10526316 9.37894737,7.24736842 C9.52105263,7.38947368 9.56842105,7.62631579 9.52105263,7.81578947 L9.23684211,9.56842105 C9.23684211,9.9 8.90526316,10.1842105 8.57368421,10.1842105 Z M1.65789474,8.76315789 L8.00526316,8.76315789 L8.05263158,8.38421053 L3.97894737,8.38421053 C3.69473684,8.38421053 3.41052632,8.19473684 3.31578947,7.91052632 C3.22105263,7.62631579 3.31578947,7.34210526 3.50526316,7.15263158 L9,2.55789474 L9.14210526,1.8 L3.07894737,1.8 C2.93684211,1.8 2.74736842,1.94210526 2.74736842,2.13157895 C2.74736842,2.17894737 2.74736842,2.22631579 2.74736842,2.22631579 C2.74736842,2.22631579 2.79473684,2.22631579 2.79473684,2.22631579 L6.82105263,2.22631579 C7.10526316,2.22631579 7.38947368,2.41578947 7.48421053,2.7 C7.57894737,2.98421053 7.48421053,3.26842105 7.29473684,3.45789474 L1.8,8.05263158 L1.65789474,8.76315789 Z" fill="#231F20"></path>
                </g>
                <g transform="translate(0.000000, 0.473684)" id="Shape">
                    <path d="M8.57368421,9 L6.39473684,9 L7.2,3.97894737 C7.29473684,3.41052632 7.57894737,2.46315789 5.96842105,2.46315789 L4.21578947,2.46315789 L3.17368421,9 L1.04210526,9 L2.36842105,0.663157895 L6.44210526,0.663157895 C8.62105263,0.663157895 9.75789474,1.18421053 9.42631579,3.74210526 L8.57368421,9 Z" fill="#808184"></path>
                    <path d="M8.57368421,9.71052632 L6.39473684,9.71052632 C6.20526316,9.71052632 6.01578947,9.61578947 5.87368421,9.47368421 C5.73157895,9.33157895 5.68421053,9.09473684 5.73157895,8.90526316 L6.53684211,3.74210526 C6.53684211,3.6 6.58421053,3.36315789 6.58421053,3.31578947 C6.58421053,3.31578947 6.44210526,3.22105263 5.96842105,3.22105263 L4.78421053,3.22105263 L3.83684211,9.14210526 C3.78947368,9.47368421 3.50526316,9.71052632 3.17368421,9.71052632 L1.04210526,9.71052632 C0.852631579,9.71052632 0.663157895,9.61578947 0.521052632,9.47368421 C0.378947368,9.33157895 0.331578947,9.09473684 0.378947368,8.90526316 L1.70526316,0.568421053 C1.75263158,0.236842105 2.03684211,-7.10542736e-15 2.36842105,-7.10542736e-15 L6.44210526,-7.10542736e-15 C7.57894737,-7.10542736e-15 8.81052632,0.0947368421 9.52105263,0.947368421 C10.0894737,1.61052632 10.2315789,2.51052632 10.0894737,3.83684211 L9.23684211,9.14210526 C9.18947368,9.42631579 8.90526316,9.71052632 8.57368421,9.71052632 Z M7.24736842,8.28947368 L8.00526316,8.28947368 L8.76315789,3.6 C8.90526316,2.74736842 8.81052632,2.13157895 8.52631579,1.84736842 C8.24210526,1.51578947 7.57894737,1.37368421 6.48947368,1.37368421 L2.98421053,1.37368421 L1.89473684,8.33684211 L2.60526316,8.33684211 L3.55263158,2.41578947 C3.6,2.08421053 3.88421053,1.84736842 4.21578947,1.84736842 L5.96842105,1.84736842 C6.77368421,1.84736842 7.34210526,2.03684211 7.67368421,2.46315789 C8.1,2.98421053 8.00526316,3.64736842 7.91052632,4.02631579 L7.91052632,4.16842105 L7.24736842,8.28947368 Z" fill="#231F20"></path>
                </g>
                <path d="M18.4263158,1.13684211 L11.6052632,1.13684211 C11.1315789,1.13684211 10.6578947,1.56315789 10.5631579,2.03684211 C10.4684211,2.51052632 10.8,2.93684211 11.3210526,2.93684211 L15.3473684,2.93684211 L9.66315789,7.72105263 L9.37894737,9.47368421 L17.1,9.47368421 L17.3842105,7.72105263 L12.5052632,7.72105263 L18.1894737,2.93684211 L18.4263158,1.13684211 Z" id="Shape" fill="#FFFFFF"></path>
                <path d="M8.57368421,9.47368421 L6.39473684,9.47368421 L7.2,4.45263158 C7.29473684,3.88421053 7.57894737,2.93684211 5.96842105,2.93684211 L4.21578947,2.93684211 L3.17368421,9.47368421 L1.04210526,9.47368421 L2.36842105,1.13684211 L6.44210526,1.13684211 C8.62105263,1.13684211 9.75789474,1.65789474 9.42631579,4.21578947 L8.57368421,9.47368421 Z" id="Shape" fill="#FFFFFF"></path>
            </g>
            <path d="M12.1263158,13.0736842 C13.1684211,13.0263158 14.4473684,12.6473684 14.4473684,12.0789474 C14.4473684,11.7473684 14.2105263,11.6052632 13.3578947,11.1789474 C12.5526316,10.8 11.8421053,10.3263158 11.8421053,9.56842105 C11.8421053,8.47894737 13.4526316,7.43684211 15.7263158,7.15263158 L16.0105263,8.43157895 C14.9210526,8.47894737 13.8789474,8.76315789 13.8789474,9.33157895 C13.8789474,9.66315789 14.4,9.9 15.0157895,10.1842105 C15.6789474,10.5157895 16.5315789,10.8947368 16.5315789,11.7 C16.5315789,12.6947368 15.3473684,13.9736842 12.5052632,14.3052632 L12.1263158,13.0736842" id="Shape" fill="#FFFFFF" fill-rule="nonzero"></path>
            <path d="M20.7473684,14.2578947 C20.7473684,13.9736842 20.7947368,12.3631579 20.7947368,11.2263158 L20.7947368,10.1842105 C20.7947368,9.33157895 20.7473684,7.43684211 20.7473684,7.2 L22.6894737,7.2 C22.6894737,7.34210526 22.6421053,9.23684211 22.6421053,10.0894737 L22.6421053,10.4210526 L22.6894737,10.4210526 C23.3052632,9.80526316 25.6263158,7.48421053 25.9105263,7.24736842 L27.2368421,8.33684211 C26.8105263,8.71578947 25.2,10.0421053 24.6315789,10.6105263 C25.0105263,10.9894737 27.0473684,12.7894737 27.4736842,13.1684211 L26.0526316,14.3052632 C25.9105263,14.1157895 23.4473684,11.6526316 22.7368421,10.8473684 L22.6894737,10.8473684 L22.6894737,11.1789474 C22.6894737,11.9368421 22.7368421,14.0684211 22.7368421,14.2578947 L20.7473684,14.2578947" id="Shape" fill="#FFFFFF" fill-rule="nonzero"></path>
            <path d="M33.2052632,14.1631579 C33.2052632,13.9263158 33.2526316,12.9315789 33.2526316,12.7894737 L33.2526316,12.2210526 C33.2526316,10.9421053 32.5894737,9.94736842 31.8315789,9.37894737 C31.4052632,9.04736842 30.8842105,8.76315789 30.4578947,8.66842105 L31.2157895,7.2 C31.8789474,7.43684211 32.6368421,7.86315789 33.0631579,8.24210526 C33.4894737,8.66842105 34.0105263,9.28421053 34.2473684,10.0421053 L34.2947368,10.0421053 C34.5789474,9.37894737 35.0052632,8.81052632 35.5736842,8.33684211 C36.0947368,7.86315789 36.8526316,7.43684211 37.6105263,7.2 L38.2263158,8.66842105 C37.6578947,8.81052632 36.9473684,9.14210526 36.3789474,9.61578947 C35.6684211,10.1842105 35.1473684,11.1315789 35.1473684,12.2684211 L35.1473684,13.0263158 C35.1473684,13.1684211 35.1947368,14.0210526 35.1947368,14.2105263 L33.2052632,14.2105263" id="Shape" fill="#FFFFFF" fill-rule="nonzero"></path>
            <path d="M46.8473684,14.2105263 C46.4684211,14.2578947 46.0421053,14.3052632 45.4736842,14.3052632 C41.8263158,14.3052632 40.6421053,12.5526316 40.6421053,11.4157895 C40.6421053,9.80526316 42.3,7.86315789 46.0894737,7.15263158 L46.4684211,8.62105263 C44.1,8.95263158 42.6789474,9.99473684 42.6789474,11.2263158 C42.6789474,12.1736842 43.6736842,12.9789474 45.6157895,12.9789474 C46.0421053,12.9789474 46.4684211,12.9315789 46.7526316,12.8842105 L46.8473684,14.2105263" id="Shape" fill="#FFFFFF" fill-rule="nonzero"></path>
            <path d="M51.2052632,14.1631579 C51.2052632,13.7368421 51.2526316,11.4631579 51.2526316,11.2263158 L51.2526316,10.1842105 C51.2526316,10.0421053 51.2052632,7.57894737 51.2052632,7.34210526 L53.1473684,7.34210526 C53.1473684,7.53157895 53.1,9.04736842 53.1,10.1842105 L53.1,11.2263158 C53.1,12.1736842 53.1473684,13.9263158 53.1473684,14.1631579 L51.2052632,14.1631579" id="Shape" fill="#FFFFFF" fill-rule="nonzero"></path>
            <path d="M59.3526316,14.1631579 C59.4,13.9263158 59.4,11.9368421 59.4,10.7052632 L59.4,8.62105263 C58.5947368,8.62105263 57.0315789,8.66842105 56.7,8.71578947 L56.7,7.38947368 C57.1736842,7.43684211 59.7789474,7.48421053 59.9210526,7.48421053 L60.8684211,7.48421053 C61.0578947,7.48421053 63.4736842,7.43684211 63.9947368,7.38947368 L63.9947368,8.71578947 C63.8052632,8.66842105 61.7684211,8.62105263 61.2947368,8.62105263 L61.2947368,10.8473684 C61.2947368,12.2210526 61.3421053,13.9736842 61.3894737,14.1631579 L59.3526316,14.1631579" id="Shape" fill="#FFFFFF" fill-rule="nonzero"></path>
            <path d="M69.6315789,14.1631579 C69.6315789,13.9263158 69.6789474,12.9315789 69.6789474,12.7894737 L69.6789474,12.2210526 C69.6789474,10.9421053 69.0157895,9.94736842 68.2578947,9.37894737 C67.8315789,9.04736842 67.3105263,8.76315789 66.8842105,8.66842105 L67.5947368,7.2 C68.2578947,7.43684211 69.0157895,7.86315789 69.4421053,8.24210526 C69.9157895,8.66842105 70.3894737,9.28421053 70.6263158,10.0421053 L70.6736842,10.0421053 C70.9578947,9.37894737 71.3842105,8.81052632 71.9526316,8.33684211 C72.4736842,7.86315789 73.2315789,7.43684211 73.9894737,7.2 L74.6052632,8.66842105 C74.0368421,8.81052632 73.3263158,9.14210526 72.7578947,9.61578947 C72.0473684,10.1842105 71.5263158,11.1315789 71.5263158,12.2684211 L71.5263158,13.0263158 C71.5263158,13.1684211 71.5736842,14.0210526 71.5736842,14.2105263 L69.6315789,14.2105263" id="Shape" fill="#FFFFFF" fill-rule="nonzero"></path>
        </g>
    </g>
</svg>