<?xml version="1.0" encoding="utf-8"?>
<!-- Generator: Adobe Illustrator 23.0.3, SVG Export Plug-In . SVG Version: 6.00 Build 0)  -->
<svg version="1.1" id="图层_1" xmlns="http://www.w3.org/2000/svg" xmlns:xlink="http://www.w3.org/1999/xlink" x="0px" y="0px"
	 viewBox="0 0 376.48 329.98" style="enable-background:new 0 0 376.48 329.98;" xml:space="preserve">
<style type="text/css">
	.st0{fill:#FFFFFF;}
	.st1{fill:#2C2D69;}
	.st2{fill:#2C2D69;stroke:#2C2D69;stroke-width:0.25;}
	.st3{fill:#AF2C2D;}
	.st4{fill:#414042;}
	.st5{fill:#D98A35;}
	.st6{fill:#FFFFFF;stroke:#FFFFFF;stroke-width:0.25;}
	.st7{fill:none;}
	.st8{fill:#C5C8CC;}
</style>
<g>
	<path class="st0" d="M358.87,137.98c-1.31-1.27-3.24-1.61-5.05-0.89l-0.81,0.32l-0.62,0.62c-1.37,1.38-8.33,7.56-17.29,14.98
		c-2.35,1.95-4.72,4.15-6.94,6.35c2.79-5.66,5.59-11.87,6.07-30.23v-0.01c0-11.19-4.14-20.09-11.99-25.85
		c-1.98-1.45-3.81-2.67-5.53-3.73c6.44-2.31,16.41-5.89,16.41-5.89l0.21-2.74c0.05-0.66,0.22-3.05,0.22-6.29
		c0-6.62-0.69-16.81-4.47-23.3c-5.79-9.95-11.51-12.12-16.1-13.87l-0.25-0.09c-6.05-2.3-19.58,0.34-27.32,5.34
		c-5.91,3.82-13.32,10.33-17.94,20.4c-17.69-16.09-34.15-22.04-38.53-23.42c-3.25-16.96-18.17-29.82-36.06-29.82
		c-9.8,0-19.02,3.83-25.96,10.77c-5.53,5.53-9.04,12.51-10.26,20.07c-0.64,0-22.79,0-22.79,0l-1.09,2.63
		c-1.02,2.47-1.71,3.6-2.14,4.24h-1.69c-0.64-1.51-2.39-5.63-2.39-5.63h-27.2l1.81,5.56c0.39,1.21,3,9.23,4.57,14.02
		c-0.27,0-6.83,0-6.83,0l1.68,5.5c0.5,1.64,4.94,16.11,6.03,18.9c0.66,1.69,1.44,2.92,2.16,3.83c-0.28,0.98-0.62,2.21-1.05,3.84
		c0,0-0.17,0.62-0.34,1.23c-0.46,0-5.31,0-5.31,0s0,5.42,0,5.69h-0.28c0-1.26,0-6.91,0-6.91s-25.86,0-32.27,0v-8.87
		c6.14,0,28.25,0,28.25,0V77.02c0,0-2.37,0-3.44,0c0-2.77,0-9.91,0-9.91s-18.97,0-24.81,0c0-2,0-8.26,0-8.26s-1.91,0-3.13,0
		c0-1.82,0-7.91,0-7.91h-26.1c0,0,0,45.47,0,52.66c-5.79,0-24.35,0-24.35,0v23.89c0,0,5.93,0,7.56,0c0,1.05,0,3.46,0,3.46
		s22.28,0,38.36,0C56,135.17,50,141.41,45.74,150.68l-0.05,0.12c-3.88,9.17-5.56,19.2-5.56,28.22c0,10.47,2.26,19.57,5.98,24.4
		c4.32,5.61,8.25,9.64,13.81,12.56c-7.19,2.91-19.4,7.85-19.4,7.85v21.08c0,0.04,0,0.11,0,0.23c0,2.32,0.46,20.08,14,26.23
		c14.08,6.4,31.76,1.21,35.38-0.41c0,0,0.27-0.12,0.27-0.12c3.93-1.76,13.68-6.16,22.12-18.63c1.55,2.7,4.39,4.23,5.38,4.68
		c1.75,0.81,3.89,1.1,6.3,1.37l1.24,0.15c0,0,0.2,0.03,0.38,0.06c2.18,2.93,7.72,7.58,7.78,7.63c4.68,3.88,9.65,7.34,14.78,10.26
		c6.29,3.58,15.98,8.31,23.43,10.8l3.33,1.09c4.12,1.33,5.83,1.91,6.83,2.91c1.74,1.74,3.75,3.43,5.06,4.43
		c0.07,0.06,7.19,5.4,13.03,7.91c5.18,2.23,14.6,4.87,21.22,6.33l3.48,0.75c5.33,1.13,11.96,2.55,14.61,3.92
		c1.8,0.93,5.14,2.66,7.73,0.24c0.61-0.58,1.42-1.64,1.42-3.25c0-0.72-0.16-1.54-0.57-2.48c-0.13-0.3-0.33-0.8-5.23-10.61
		c6.48-0.15,11.88-0.53,21.07-1.19l1.16-0.08c13.69-0.98,26.05-4.96,35.08-7.86c10.94-3.52,23.45-11.96,30.84-18.11
		c7.48-6.24,12.84-14.55,15.93-24.7c0.98-3.22,1.34-7.22,1.34-11.37c0-5.17-0.56-10.58-1.2-15.05c-0.26-1.82-0.83-3.87-1.39-5.84
		c-0.51-1.83-1.15-4.11-1.15-5.06c0-1.64,0.16-7.72,2.16-17.21c1.12-5.31,2.37-10.22,3.59-14.98l2.48-10.02
		c1.57-6.78,5.22-16.93,6.41-20.27l0.68-1.9c0.34-0.92,0.79-2.17,0.79-3.46C360.26,140.16,359.92,139,358.87,137.98z M104.5,182.41
		l-5.8-4.38l5.8-2V182.41z M129.8,135.64c0,0,0-0.1,0-0.1s-11.07,3.97-14.9,5.35c-1.69-3.57-4.81-8.71-9.95-12.73v-1.15
		c0.62,0,1.4,0,1.4,0s1.71,0,3.37,0c0,1.26,0,2.87,0,2.87h15.11c2.57,0,4.53-1.31,5.99-2.86h3.4c0,1.24,0,2.63,0,2.63
		s9.18,0,12.56,0C145.89,129.96,134.73,133.9,129.8,135.64z M150.48,130.1v-0.46h0.09C150.55,129.76,150.48,130.1,150.48,130.1z
		 M269.46,128.29c0,0,6.17,5.42,8.17,5.42c-4.17,1.75-5.75,2.25-5.75,2.25S268.71,131.12,269.46,128.29z M229.48,59.82
		c0.74,0.37,1.32,0.66,1.32,0.66c6.08,2.96,11.95,5.83,20.83,13.44c-0.64-0.39-1.26-0.75-1.82-1.09
		c-9.08-5.34-16.15-8.07-21.09-8.15C229.07,63.08,229.33,61.47,229.48,59.82z M195.79,198.95c-0.24-0.07-0.51-0.14-0.77-0.21
		c0.26-0.11,0.55-0.22,0.77-0.31V198.95z M199.54,200.02c-0.98-0.29-2.15-0.62-3.54-1.01c0.4-0.19,5.86-2.77,5.86-2.77
		s2.24-1.06,3.43-1.63C203.32,196.29,201.41,198.11,199.54,200.02z M223.92,100.05c0,0,0,5.4,0,7.78c-2.1-1.53-5.17-3.06-9.12-3.06
		c-3.65,0-4.77,0.33-7.46,1.3l-2.45,0.85c-4.75,1.58-17.75,6.8-18.3,7.03c0,0-0.1,0.04-0.11,0.04v-3.03c1.23,0,2.56,0,2.56,0V93.2
		c0,0-1.16,0-2.3,0V92.8c2.03,0.35,4.09,0.54,6.16,0.54c9.8,0,19.02-3.83,25.97-10.77c2.9-2.9,5.22-6.21,6.98-9.78
		c0.78,0.42,1.63,0.72,2.35,0.97l2.7,1l2.97,1.4c2.07,0.96,4.32,2.02,6.75,3.3c-4.73-1.76-7.99-2.49-8.26-2.55l-0.1-0.02l-0.1-0.02
		c-2.5-0.42-6.69-1.13-7.58,3.01c-0.08,0.4-0.13,0.77-0.13,1.11c0,3.23,3.53,4.14,6.43,4.89c3.96,1.02,9.71,3.83,14.17,6.44
		C244.64,92.47,223.92,100.05,223.92,100.05z M319.5,220.43l-0.27,1.18c-1.23,5.52-1.8,8.04-9.26,15.51
		c-6.9,6.9-19.31,3.74-25.98,2.05l-0.64-0.16c-4.54-1.15-9.74-4.45-14.32-7.36l-4.74-2.93c-9.26-5.42-13.29-8.26-15.08-9.73
		c-0.19-1.36-0.31-2.7-0.31-3.98c0-6.94,2.35-12.43,2.38-12.5l0.07-0.17l0.06-0.18c3.08-9.09,14.71-19.21,14.83-19.31
		c0,0,0.38-0.33,0.42-0.36c4.87,2.95,10.59,6.24,16.34,8.92c5.23,2.44,31.51,14.66,35.36,15.87c0.95,0.3,1.87,1.26,2.47,1.96
		c0,0.05,0.01,0.06,0.01,0.12C320.85,211.31,320.56,215.81,319.5,220.43z"/>
	<path class="st1" d="M320.04,106.62c-6.81-5-12-7.31-15.13-8.56c-0.44,0-0.44-0.25-0.44-0.25v-0.69l3-1v2.25l21.94-7.88
		c0,0,1.44-18.31-3.69-27.13s-9.75-10.44-14.19-12.13s-16.44,0.38-23.5,4.94s-15.06,12.25-18.56,24.31
		c-1.13,2.5-1.69,5.88-2.06,8.19L247.92,96l-0.44,2.13l-1.56-1.56l-17.44,6.38v10.63c0,0-0.88,0.56-2.25-0.81
		c-0.25,0.25-1.59,1.09-2.94-0.25c-1.34-1.34-4.19-3.56-8.19-3.56c-4,0-3.88,0.38-8.56,1.94s-18.06,6.94-18.06,6.94v23.25h-0.88
		l-1.81-15.44l-6.56,2.06l-0.94-6.48l-23.31,9.56l-1.63,8.41l-6.81,2.38v-7.29l-18.94,6.69v6.79l-1.75,0.38v-6.62l-13.06,4.69
		c0,0-5-17.06-21.25-19.56c-7.25,0-8.38,0-8.38,0s-22.62,2.62-33.25,25.75c-7.88,18.63-6,40.75-0.13,48.38s10.5,11.63,19.38,14.13
		c1.97,0.54,4.37,0.29,0.21,1.92l-24.29,9.83v18.21c0,0-0.33,17.21,11.5,22.58c11.83,5.38,27.79,1.42,31.87-0.42
		c4.08-1.83,15.08-6.5,23.58-22.13s10.34-13.5,10.34-13.5l9.12-26.67l51.38-5.25l-0.28-0.25l14.32-5.77v-3.31l3.44-1.94v4.13
		l15.31-7.25v-2.31l3.63-2v3.19l15.88-6.06v-2.5l4.81-1.56v3.25l28.5-10.81c0,0,1.44,4.31,4.38,6.44s41.53,0.5,41.53,0.5
		s5.22-4.62,8.41-11.87s6.94-10.81,7.5-32.38C330.29,119.43,326.85,111.62,320.04,106.62z M104.5,182.4l-5.8-4.38l5.8-2V182.4z
		 M271.88,135.96c0,0-3.17-4.83-2.42-7.67c0,0,6.17,5.42,8.17,5.42C273.46,135.46,271.88,135.96,271.88,135.96z"/>
	<g>
		<path d="M227.04,53.37c0,0,20.91,5.6,42.16,26.85c2.48,3.49,1.88,3.91-0.8,3.49c-20.9-21.75-29.03-23.73-40.19-29.5
			C226.84,53.5,227.04,53.37,227.04,53.37z"/>
		<path d="M227.97,68.86c0.55,0.01,5.32-1.07,19.99,7.55c5,2.94,11.21,6.9,18.41,12.66c2.48,3.49,0.51,2.22-2.17,1.79
			c-14.12-12.92-23.57-16.38-31.16-20.03C231.65,70.17,227.32,68.85,227.97,68.86z"/>
		<path d="M231.76,80.97c0,0,12.96,2.8,25.18,11.64l0.14,1.12c0,0,0.72,3.03-2.58-0.27c-3.3-3.3-15.33-9.99-22.24-11.78
			C225.34,79.89,231.76,80.97,231.76,80.97z"/>
	</g>
	<g>
		<g>
			<path class="st2" d="M44.89,107.78V55.12h17.59v16.16h27.94V86.5H62.48v21.28h35.4v15.39H20.54v-15.39H44.89z"/>
		</g>
		<g>
			<path class="st2" d="M48.01,114.68V63.03H65.6v18.16h28.25v9.21H65.6v24.28H101v11.94H28.1v-11.94H48.01z"/>
		</g>
		<g>
			<path class="st0" d="M46.89,109.78V56.94h13.69v16.34h26.88V84.5H60.57v25.28h35.3v11.39H22.54v-11.39H46.89z"/>
		</g>
		<g>
			<path class="st3" d="M48.89,111.63V58.94h9.69v16.34h26.88v7.21H58.57v29.13h35.3v7.72H24.54v-7.72H48.89z"/>
		</g>
		<path class="st1" d="M105.53,56.12h18.54l2.4,5.63c0,0,5.72,0,6.25,0c0.53,0,1.01-0.74,1.58-1.58c0.57-0.84,1.48-2.23,2.74-5.29
			c1.19,0,18.24,0,18.24,0l-1.63,3.31l9.5-0.94l19.64,29.62v10.51h2.3v9.25h-2.56c0,0,0,5.04,0,7.94c0,2.9-3.06,7.06-3.06,7.06
			l-11.43,3.69h-29.26v-2.63h-7.69v-2.31h-0.78c0,0-2,5.17-5.17,5.17c-3.17,0-10.86,0-10.86,0v-2.87h-7.63V109h3.25
			c0,0,0.94,0.19,1.44-1.44s2.27-8.63,2.61-8.97c-0.53-0.53-1.99-1.55-3.05-4.28c-1.06-2.73-5.93-18.6-5.93-18.6h7.25
			c0,0-0.54-0.9-1.01-2.21C110.76,72.23,105.53,56.12,105.53,56.12z"/>
		<g>
			<path class="st0" d="M129.09,77.79h-8.64c-4.51,0-7.1-3.54-8.41-7.5l-3.37-11.41h12.19l2.78,7.37c0.55,1.33,1.38,1.95,2.97,1.95
				h1.15V64c0,0,2.89,0,4.1,0c1.13,0,1.96-1.14,2.78-2.27c1.57-2.43,2.33-4.67,2.33-4.67h14.33l-2.09,3.23h7.3v9.6h-12.13
				c-1.77,2.73-3.11,2.9-5.68,2.9h-9.6V77.79z"/>
			<path class="st0" d="M174.61,91.81V73.75h-41.78v17.83h-3.69v-4.26h-2.05c-1.84,0-2.16-0.3-2.96-1.78l-2.88-6.6h-13.62
				l4.79,13.72c1.27,2.66,3.19,5.88,8.62,5.88h6.41v0.83h-11.62l-2.91,9.43c-0.55,1.86-1.04,2.97-2.53,2.97h-2.54v8.81h9.63
				c3.95,0,6.07-1.84,7.12-5.29l4.15-14.53h4.07v19.98h34.96c4.57,0,6.69-4.57,6.82-9.23v-10.07h3.5v-9.65H174.61z M162.63,108.13
				c0,1.44,0.04,1.95-0.83,1.95c-0.76,0-0.48,0-0.75,0l-3.48-6.24h-12.11v0.56l2.93,5.81h-4.13v-8.75h18.36V108.13z M162.86,91.54
				h-1.64l-3.42-6.38h-12.33v0.44l2.76,5.94h-3.83v-8.96h18.46V91.54z"/>
		</g>
		<g>
			<path class="st3" d="M127.14,96.54h-6.41c-3.14-0.05-5.03-1.22-6.3-3.88l-4.56-12.19h9.76l2.88,7.07
				c0.81,1.48,1.12,1.78,2.96,1.78h1.67v4.62V96.54z M128.84,93.93h5.67V75.75h37.78v18.06h4.19v5.65h-4.19v12.07
				c-0.13,4.67-2.25,7.23-6.82,7.23h-30.96v-19.3h-5.67v-2.92V93.93z M117.17,119.04h-8.06v-5.73h2.02c1.78,0,2.42-0.65,2.97-2.5
				l3.08-10.22h9.68l-3.56,13.17C122.23,117.2,121.12,119.04,117.17,119.04z M127.29,75.96h-7.16c-2.67-0.2-5-1.71-6.3-5.68
				l-3.37-9.69h8.56l2.78,7.35c0.55,1.33,1.38,1.95,2.97,1.95h2.52V75.96z M129.44,65.62h3.17c0,0,1.79-0.27,2.94-1.9
				c1.15-1.63,2.44-4.67,2.44-4.67h9.61l-2.09,3.23h10.67v5.6h-13.8c-1.77,2.73-3.54,2.9-6.01,2.9h-6.93V65.62z M164.43,80.58
				h-21.88v12.96h8.38l-3.17-6.63h8.84l3.42,6.63h4.42V80.58z M162.6,112.21c1.12,0,1.83-0.5,1.83-1.95l0-10.8h-21.88v12.75h8.54
				l-2.93-5.81v-0.56h8.11l3.6,6.37C162.14,112.21,161.84,112.21,162.6,112.21z"/>
		</g>
	</g>
	<path class="st4" d="M162.53,57l-8.24,1.37c0,0-0.31,19.19,19.38,29.13c0,0,3.91-0.06,7.85-0.68C185.46,86.2,162.53,57,162.53,57z"
		/>
	<g>
		<path d="M193.21,24.03c-17.91,0-32.48,14.57-32.48,32.48c0,17.91,14.57,32.48,32.48,32.48c17.91,0,32.48-14.57,32.48-32.48
			C225.69,38.61,211.12,24.03,193.21,24.03z M223.89,56.52c0,3.53-0.61,6.92-1.71,10.07c-7.18-2.41-34.76-14.06-48.95-20.09
			c0.8-2.18,1.81-4.08,2.96-5.74c2.11,1.61,4.77,2.88,7.93,2.88c4.59,0,6.21-0.45,9.77-1.45l3.34-0.91
			c5.89-1.54,12.27-1.71,16.25-0.43c3.99,1.29,7.51,4.31,8.62,5.34C223.26,49.42,223.89,52.9,223.89,56.52z M220.85,43.2
			c-1.75-1.33-4.2-2.9-6.91-3.77c-5.14-1.66-12.2-0.88-17.09,0.4l-3.37,0.92c-3.52,0.98-4.98,1.39-9.36,1.39
			c-2.75,0-5.12-1.15-7.02-2.61c3.22-4.08,7.25-6.51,10.6-7.93c8.72-3.68,17.75-2.92,21.12-1.24l0.09-0.19
			C214.06,33.25,218.23,37.78,220.85,43.2z M203.31,27.55c-4.72-0.38-10.7,0.35-16.19,2.67c-3.53,1.49-7.77,4.05-11.17,8.34
			c-1.84-1.69-3.09-3.52-3.68-4.45c5.49-5.13,12.85-8.28,20.93-8.28C196.75,25.83,200.14,26.44,203.31,27.55z M171.18,35.19
			c0.7,1.1,2.01,2.92,3.86,4.6c-1.23,1.76-2.32,3.79-3.18,6.12c-2.94-1.25-5.16-2.2-6.3-2.69C166.99,40.24,168.9,37.54,171.18,35.19
			z M164.94,44.59c1.17,0.5,3.44,1.47,6.42,2.74c-0.91,2.89-1.42,5.56-1.64,8.03c-2.77,0.64-5.53,2.57-7.08,3.8
			c-0.07-0.87-0.12-1.75-0.12-2.64C162.52,52.29,163.38,48.26,164.94,44.59z M175.66,73.61c-2.6-4.39-4.95-9.72-4.55-16.98
			c2.79-0.32,5.85,0.48,9.36,6.63c1.33,2.33,2.28,4.2,3.12,5.85c1.98,3.87,3.28,6.43,7.08,10.23c4.33,4.33,9.36,6.05,15.03,5.19
			c-3.38,1.52-7.08,2.44-10.97,2.63C192.15,86.45,181.19,82.94,175.66,73.61z M162.85,60.92c1.13-0.98,4-3.2,6.78-3.99
			c-0.3,7.57,2.22,13.17,4.75,17.45c4.05,6.84,10.68,10.66,15.33,12.61C175.88,85.41,164.82,74.62,162.85,60.92z M211.26,81.31
			c-7.61,3.33-14.17,2.32-19.52-3.03c-3.63-3.63-4.83-5.97-6.81-9.85c-0.85-1.66-1.81-3.55-3.16-5.91
			c-3.08-5.41-6.36-7.73-10.54-7.4c0.23-2.22,0.71-4.61,1.52-7.2c14.2,6.04,41.49,17.57,48.9,20.07
			C219.49,73.34,215.86,77.95,211.26,81.31z"/>
		<g>
			<path class="st5" d="M223.89,56.52c0,3.53-0.61,6.92-1.71,10.07c-7.18-2.41-34.76-14.06-48.95-20.09
				c0.8-2.18,1.81-4.08,2.96-5.74c2.11,1.61,4.77,2.88,7.93,2.88c4.59,0,6.21-0.45,9.77-1.45l3.34-0.91
				c5.89-1.54,12.27-1.71,16.25-0.43c3.99,1.29,7.51,4.31,8.62,5.34C223.26,49.42,223.89,52.9,223.89,56.52z"/>
			<path class="st5" d="M220.85,43.2c-1.75-1.33-4.2-2.9-6.91-3.77c-5.14-1.66-12.2-0.88-17.09,0.4l-3.37,0.92
				c-3.52,0.98-4.98,1.39-9.36,1.39c-2.75,0-5.12-1.15-7.02-2.61c3.22-4.08,7.25-6.51,10.6-7.93c8.72-3.68,17.75-2.92,21.12-1.24
				l0.09-0.19C214.06,33.25,218.23,37.78,220.85,43.2z"/>
			<path class="st5" d="M203.31,27.55c-4.72-0.38-10.7,0.35-16.19,2.67c-3.53,1.49-7.77,4.05-11.17,8.34
				c-1.84-1.69-3.09-3.52-3.68-4.45c5.49-5.13,12.85-8.28,20.93-8.28C196.75,25.83,200.14,26.44,203.31,27.55z"/>
			<path class="st5" d="M171.18,35.19c0.7,1.1,2.01,2.92,3.86,4.6c-1.23,1.76-2.32,3.79-3.18,6.12c-2.94-1.25-5.16-2.2-6.3-2.69
				C166.99,40.24,168.9,37.54,171.18,35.19z"/>
			<path class="st5" d="M164.94,44.59c1.17,0.5,3.44,1.47,6.42,2.74c-0.91,2.89-1.42,5.56-1.64,8.03c-2.77,0.64-5.53,2.57-7.08,3.8
				c-0.07-0.87-0.12-1.75-0.12-2.64C162.52,52.29,163.38,48.26,164.94,44.59z"/>
			<path class="st5" d="M175.66,73.61c-2.6-4.39-4.95-9.72-4.55-16.98c2.79-0.32,5.85,0.48,9.36,6.63c1.33,2.33,2.28,4.2,3.12,5.85
				c1.98,3.87,3.28,6.43,7.08,10.23c4.33,4.33,9.36,6.05,15.03,5.19c-3.38,1.52-7.08,2.44-10.97,2.63
				C192.15,86.45,181.19,82.94,175.66,73.61z"/>
			<path class="st5" d="M162.85,60.92c1.13-0.98,4-3.2,6.78-3.99c-0.3,7.57,2.22,13.17,4.75,17.45
				c4.05,6.84,10.68,10.66,15.33,12.61C175.88,85.41,164.82,74.62,162.85,60.92z"/>
			<path class="st5" d="M211.26,81.31c-7.61,3.33-14.17,2.32-19.52-3.03c-3.63-3.63-4.83-5.97-6.81-9.85
				c-0.85-1.66-1.81-3.55-3.16-5.91c-3.08-5.41-6.36-7.73-10.54-7.4c0.23-2.22,0.71-4.61,1.52-7.2c14.2,6.04,41.49,17.57,48.9,20.07
				C219.49,73.34,215.86,77.95,211.26,81.31z"/>
		</g>
	</g>
	<path class="st6" d="M80.67,173.08l22.44-8c0,0-0.85-22.1-2.25-26.89c-1.4-3.31-5.5-9.82-15.05-9c-9.3,0.8-23.01,7.65-30.4,20.47
		c-7.39,12.81-8.98,23.8-7.48,35.57c1.17,9.17,7.34,22.41,17.2,25.28c6.67,1.94,10.1,4.25,13.29,9.34
		c1.41,2.25,1.76,6.73,1.43,11.69c-0.15,2.27-0.88,7.33-3.86,8.14c-2.57,0.33-3.92-3.22-3.92-5.57c0-2.35-0.09-15.28-0.09-15.28
		l-24.51,10.01c0,0,0,12.78,0,16.43c0,3.18,0.96,15.5,9.27,19.69c6.57,3.31,14.17,2.65,21.87,0.06c7.45-2.5,14.2-9.65,17.57-13.75
		c3.37-4.1,5.32-6.24,7.84-15.9l-3.63-44.22c0,0-3.16-5.81-12.77-10.81c-6.17-3.13-9.79-2.91-12.25-6.25
		c-2.46-3.33-2.25-4.3-2.25-8.81c0-2.79,0.73-5.34,2.52-7.13c1.06-1.06,3.88-2.83,5.35,0.38c0.62,1.56,0.69,6.03,0.69,7.27
		C81.67,168.14,80.97,171.61,80.67,173.08z"/>
	<polygon class="st0" points="110.12,149.64 110.12,193.37 123.96,192.33 123.96,186 129.96,183.15 129.96,193.09 142.54,194.59 
		142.54,138.12 129.96,142.47 129.96,166.89 123.96,169.98 123.96,144.59 	"/>
	<path class="st0" d="M175.5,126.43l-18.42,7.11l-9.68,65.21l15.3-6.79l0.17-4l8.08-3.08l2.5,11.71l12.84-5.08L175.5,126.43z
		 M164.31,170.79l1.88-15.82l0.54-0.21l2.88,13.4L164.31,170.79z"/>
	<g>
		<g>
			<path class="st0" d="M221.14,115.58c-3.09-4.06-10.83-2.87-10.83-2.87l-18.92,6.97v69.85l12.91-5.71c0,0,0-20.88,0-25.34
				c0.46-1.66,1.78-2.28,3.42-2.24c2.19,0,2.55,1.94,2.59,2.26v22.67l13.03-5.83c0-23.88-0.11-22.82-0.11-25.28
				c-0.22-2.48-0.56-3.43-2.13-4.99c-1.25-1.25-2.36-1.4-2.61-1.53c4.78-6.18,5.13-8.37,6.02-12.92
				C225.3,124.28,223.82,118.26,221.14,115.58z M210.31,158.53C210.31,158.56,210.31,158.56,210.31,158.53L210.31,158.53z
				 M211.21,134.42c-0.77,8.77-7.54,10.33-7.54,10.33V129.3c0,0,1.09-0.25,2.39-0.8c1.31-0.55,2.37-0.29,3.2,0.2
				C211.16,129.96,211.39,131.69,211.21,134.42z"/>
		</g>
	</g>
	<path class="st0" d="M231,104.53l11.24-3.82c0,0,1.16-0.45,1.16,0.34s-0.12,24.13-0.12,25.06c0,0.94,0.56-0.27,0.56-0.27l7.38-27.5
		l11.72-4.56l0.7,0.65l-7.42,34.26l10.33,31.79l-14.85,5.73l-7.95-29.07c0,0-0.25-1.69-0.25,0.68l0.1,31.5l-12.65,4.46L231,104.53z"
		/>
	<path class="st0" d="M299.53,95.27l19.56-7.1c0,0-0.13-6.88-0.13-11.79c0-6.21-0.97-11.66-3.14-15.46
		c-1.96-3.41-6.86-9.43-16.68-6.3c-11.25,3.58-23.84,15.14-27.67,29.89c-2.75,10.17-2,22.75-0.58,29
		c1.42,6.25,6.85,9.49,11.48,12.12c3.52,2,6.73,3.37,13.15,8.78c2.21,2.21,3.26,3.62,3.26,7.46c0,1.81,0.38,4-0.28,7.96
		c-1.37,8.26-7.61,5.33-8.22-1.35c-0.17-1.83,0.36-7.89,1.28-11.89c-2.75,1.17-22.33,8.33-22.33,8.33s-0.13,11.67,0.13,15.08
		c0.4,5.4,6.13,15.26,12.82,15.53l21.29-2.48c0,0,13.59-7.39,17.84-27.55c1.58-8.58,2.17-20.08-1-27.17
		c-3.17-7.08-9.17-12.72-15.89-15.71c-2.79-1.24-4.04-0.94-8.46-4.26c-4.12-3.1-5.63-9.79-3.28-14.71c0.62-1.31,3.8-6.82,5.79-1.92
		C299.38,84.03,299.53,90.29,299.53,95.27z"/>
	<g>
		<path class="st3" d="M83.79,169.08l16.17-5.83c0,0-0.42-20.17-1.67-24.75c-1.25-3.17-5.58-8.17-13.75-6.5
			c-8.17,1.67-20.5,7-27.08,19.25c-6.58,12.25-8,22.75-6.67,34c1.33,11.25,8.07,20.86,17.17,23.25c9.05,2.38,13.2,10.16,14.12,12.49
			c0.92,2.34,0.8,7.29,0.13,12.67c-0.38,3.03-1.75,8-6.42,8.92c-2.75,0.58-6.17-3.58-6.17-5.83s-0.08-14.17-0.08-14.17l-19.17,8.17
			c0,0-0.33,9.79-0.33,12.83s0.61,15.71,8.17,19.08c7.38,3.29,11.92,1.92,18.92-0.08s14.17-8.92,17.17-12.83s4.84-6.68,7.08-15.92
			l0.21-1.65l-4.91-41.02c0,0-2.19-5.35-10.75-8.79c-5.5-2-10.5-4-12.69-7.19c-2.19-3.19-2.37-5-2.37-9.31s0.25-7.5,3.94-10.38
			s7.27-1.21,8.58,1.85c0.55,1.49,0.67,3.17,0.67,4.36C84.04,163.98,84.06,167.33,83.79,169.08z"/>
		<polygon class="st3" points="112.71,151.5 112.71,191.55 121.29,191.42 121.29,184.03 132.46,178.58 132.46,192.08 140.04,193.58 
			140.04,141.66 132.46,144.08 132.46,168.91 121.29,174.57 121.29,148.41 		"/>
		<path class="st3" d="M173.37,129.75l-14.08,5.58l-8.25,58.17l0.42,4.58l8.05-3.83l0.87-8.17l12.33-5.42l2.92,11.75l7.5-3.25
			L173.37,129.75z M160.87,175.33l4.25-33.58l1.23-0.44l6.52,28.44L160.87,175.33z"/>
		<g>
			<g>
				<path class="st3" d="M222.14,130.62c1.16-5.98-1.16-11.35-3-13.44c-2.81-3.19-8.84-1.85-8.84-1.85l-16.41,6.13v64.12l7.95-3.88
					c0,0,0-20.94,0-25.4c1.96-2.32,4.54-2.95,6.18-2.9c3.2,0.09,4.81,3.34,4.81,3.34v20.89l7.94-3.96c0-23.88,0-21.63,0-24.08
					c-0.99-4.48-5.01-4.35-7.01-2.98c-2,1.38-1.96,0.63-2.21,0.38C218.6,140.66,221.25,135.17,222.14,130.62z M213.83,134.33
					c-1.21,12.71-12.5,13.58-12.5,13.58v-20.67c0,0,2.08-0.71,4.13-1.5c2.04-0.79,3.25-0.83,4.54-0.13
					C212.96,127.46,214.13,130.37,213.83,134.33z"/>
			</g>
		</g>
		<path class="st3" d="M233.23,106.72l7.81-2.69v26.94c0,0,1.53-1.84,3.56,0.19c0.25,0.25,1.06,0.06,1.06-0.63
			s7.75-30.97,7.75-30.97l7.33-2.6l-7.39,32.26l9.75,29.31l-9.56,3.81l-8.31-28.12c0,0-1.13-0.75-1.88,0s-1.59,1.03-2.13,0.5v32.52
			l-8.06,3.05L233.23,106.72z"/>
		<path class="st3" d="M302.29,91.46L316.38,86c0,0,0-6.5,0-11.42s-1.04-9.29-2.98-12.85c-1.88-3.46-5.19-7.98-14.85-4.4
			c-9.67,3.58-21.17,13.75-25,28.5c-2.75,10.17-1.75,18.5-0.33,24.75c1.42,6.25,3.68,8.75,7.1,10.91
			c3.42,2.17,10.9,5.67,17.32,11.09c2.21,2.21,3.33,3.17,3.67,7.83c0.33,4.67,0,10.17-1.08,13c-1.08,2.83-5,6.83-10,1.83
			c-1.71-1.71-2.17-3.67-2.42-5.5c-0.24-1.82-0.42-5.42,0.5-9.42c-2.75,1.17-16.58,6.33-16.58,6.33s0,6.58,0,10
			c0,5.42,3.06,14.7,9.75,14.98l19.58-0.76c0,0,13.59-7.38,17.84-27.55c1.58-8.58,2.17-17.33-1-24.42
			c-3.17-7.08-8.98-11.7-13.32-13.78c-4.33-2.08-9.33-2.76-12.58-7.51s-4.02-9.96-1.35-15.54c0.62-1.31,1.37-2.38,2.16-3.21
			c2.6-2.74,6.17-3.33,8.16,1.58C301.87,82.72,302.29,86.48,302.29,91.46z"/>
	</g>
	<path class="st3" d="M71.46,267.83"/>
	<path class="st7" d="M225.26,174.56"/>
	<path class="st7" d="M191.15,189.64"/>
	<path class="st0" d="M262.93,93.79c0,0,1.2-0.32,0.93,0.88c-0.26,1.2-7.88,34.54-7.88,34.54"/>
	<path class="st0" d="M74.35,218.81v3.88c0,0,0.84,1.56,1.63,0C75.95,220.37,76.1,219.37,74.35,218.81z"/>
	<circle class="st0" cx="88.17" cy="175.25" r="1"/>
	<path class="st0" d="M89.26,177.28c0,0,12.59,7.34,17.75,13.22c1.09,0,1.34-0.03,1.34-0.03v-19.94L89.26,177.28z M104.5,182.4
		l-5.8-4.38l5.8-2V182.4z"/>
	<path class="st0" d="M280.04,130.12c-6-2.16-10.67-8.42-11.92-13.33l-3.25,14.42l3.83,9.83l19-6.17
		C287.71,134.87,286.42,132.41,280.04,130.12z M271.88,135.96c0,0-3.17-4.83-2.42-7.67c0,0,6.17,5.42,8.17,5.42
		C273.46,135.46,271.88,135.96,271.88,135.96z"/>
	<path class="st4" d="M83.79,201.87c0,0-9.67,1.33-5.75,6.58c3.92,5.25,10.71,9.29,10.71,9.29c0,0.01,0.79,2.79,2.88,3.5
		c0.75,1.67,0.35,4.1,0.75,5.96c0.38,1.75,0.58,3.42,4.21,3.71c1,0.11,4.17,1.63,4.65,1.63c0.47,0,2.97,3.83,2.97,3.83l6.92,8.17
		l0.71,0.71c0,0,5.71-10.21,10.71-14.38s-0.75-14.08-0.75-14.08l-4.5-9.42L83.79,201.87z"/>
	<g>
		<path d="M263.79,179.54c0,0-12.58,10.83-16.08,21.17c0,0-4.25,9.58-2.17,20.33c2.79,2.79,11.08,7.83,16.92,11.25
			c5.83,3.42,13.25,9,20.17,10.75c6.92,1.75,21.79,5.88,30.67-3s9.17-12.17,10.67-18.75c1.5-6.58,1.67-13.5,1.25-13.92
			c-0.42-0.42-2.33-3.33-5.25-4.25c-2.92-0.92-22.5-9.92-34.83-15.67c-12.33-5.75-24.67-14.42-28.42-16.33
			c-2.17-1.42,2.58-1.42,4.75-1.42c2.17,0,40,1,44.42,1.67c4.42,0.67,14.25,3.25,14.25,3.25s9.25-11.17,18-18.42
			s15.96-13.63,17.58-15.25c1.25-0.5,0.25,1.67-0.17,2.92c-0.42,1.25-5.08,13.75-7,22c-1.92,8.25-4.17,16-6.08,25.08
			c-1.92,9.08-2.25,15.33-2.25,18.08s2.08,8,2.58,11.5s2.33,16.92,0,24.58c-2.33,7.67-6.58,16-14.58,22.67
			c-8,6.67-19.83,14.25-29.42,17.33c-9.58,3.08-21.25,6.75-34.08,7.67c-12.83,0.92-18.33,1.33-28.58,1.33
			c-0.38,0.38,0.25,0.88,0.71,1.79c0.46,0.92,6.92,13.83,7.21,14.54c0.29,0.71,1.13,2.12-2.67,0.17c-3.79-1.96-12.5-3.58-19.13-5.04
			c-6.63-1.46-15.71-4.04-20.46-6.08c-4.75-2.04-10.87-6.42-12.12-7.38c-1.08-0.82-2.97-2.39-4.64-4.06
			c-2.15-2.15-5.07-2.77-11.82-5.02c-6.75-2.25-16.08-6.71-22.67-10.46s-11.46-7.58-14.17-9.83c-2.71-2.25-6.5-5.83-7.33-7.21
			c-0.83-1.38-1.46-1.13-2.71-1.38s-4.79-0.38-6.58-1.21c-1.79-0.83-5.58-3.42-3.21-6.58c1.1-1.1,1.58-1.67,3.96-1.5
			c0.08-1.71-1.77-8.64-0.56-10.14c0.54-0.54,1.02-0.13,1.77,0.94s5.94,6.87,8.33,7.64c0.65,0,0.38-0.71,0.27-1.29
			c-0.1-0.58-0.29-7.83,0.31-9.17c0.6-1.33,0.79,0.11,0.98,0.65s3.73,6.69,7.33,9.19c0.52,0.35,1.75,1.81,1.3-0.43
			c-0.64-3.05,3.08-9.83,3.51-10.26c0.43-0.43,3.54,8.58,9.38,12.5c0.44,0.44,0.83,0.67,0.83-0.54s1.1-2.31,1.1-2.31
			s-0.35-3.48-0.1-4.4s-2.33,2.08-2.88,3.29c-0.54,1.21-1.33-0.67-1.83-1.96s-1.54-1.58-2.54-9.75c-1-1-3.54-3.67-3.54-3.67
			s-0.29-0.54-0.63,0.21s-2.88,7.33-3.71,11.46c-0.46,1.25-0.5,1.71-3.13-0.92s-4.29-7.04-4.83-10.75
			c-0.54-3.71-0.54-5.21-0.54-5.42c0-0.21-1.09,0.22-1.79,1.71c-0.7,1.49-1.97,4.63-2.4,8.92c-0.43,4.29,0,6.59,0,6.67
			c0,0.07-0.01,1.25-1.64-0.92c-1.63-2.17-7.08-11.25-7.96-12.13s-0.31,1.44-0.31,3.38s0.19,9.38,0.19,9.38s-0.33,2.29-1.63,1
			c-1.29-1.29-7.52-6.15-12.13-10.75c-0.48-0.48-0.48,0.17-0.48,1.08s-0.56,2.96-4.23,0.17c-1.98-1.1-2.46-1-2.46-1
			s-1.17-0.08-1.17-2.96c0-3.92,0-5.62,0-5.62s-1.38,0.04-1.75-0.79c-0.38-0.83-0.73-3.88-0.73-3.88s-4.75-1.94-7.69-4.88
			s-3.3-4.76-3.06-7.44c-0.81-1.88-3.69-5.13,8.31-9.31c0,0,9.44-2.5,26.94-1.81s26.69,2.75,30,3.38s4.38,1.13,4.94,1.69
			c1.69-0.69,3.13-2.13,4.19-3.19s3.03-3.03,3.03-3.03s1.69-0.13,2.41,0.59c0.72,0.72,3.73,2.65,3.73,2.65l4.31-0.52
			c0,0,11,5.42,12.92,7.33c2.71,1.13,15.92,4.38,18.17,5.33c1.92-1.92,12.5-14.42,31-20.5C250,178.75,262.62,179.54,263.79,179.54z"
			/>
		<path class="st0" d="M225.17,272.62c0,0,36.75,12.13,69.88,10.5c1.5,0,0.52,0.98-1.23,1.69s-11.64,4.6-25.21,5.38
			c-12.5,0.71-31.73,0.44-33.56,0.02c-1.83-0.42-6.96-10.79-8.71-14.25C224.58,272.5,224.87,272.75,225.17,272.62z"/>
		<path class="st8" d="M337.38,206.54c0,0,0.25-5.17,2.83-15.83c2.58-10.67,5.75-23.83,7.75-30.42c2-6.58,4.67-14.83,4.67-14.83
			s-24.75,24.5-31.33,31.83c0,0-4.83-3.58-14.25-4.17c-9.42-0.58-41.17-2.33-46.5-1.38c0,0,58.75,29.75,60.63,30.5s4.63,3,5.5,5
			c0,0,2,6.38,0,15.5c0,0-2.88,13.88-12.13,20.25s-12.25,4.63-24,4.63c-9.58-1.78-13.25-2.63-21.38-7.75S243.79,224,243.79,224
			s-1.88-2.88-1.13-14s11.5-25.13,13.75-27.38c-5.75,0-36.88,5.13-52.38,23.13c3.5,1.25,8.81,3.6,10,4.79s-24.29-8.54-32.63-9.04
			c-2.83-2.42-3.88-4.5-9.63-6.5c-1,0-1.44,0.44-1.44,0.44l-2.06-2.06h-3.38l-4.63-2l-1.38,1.63c0,0-5.13,3.13-6.25,4.25
			c-1.13-0.25-3.08-1.5-3.08-1.5s-0.04,0.56-3.54-0.31s-27.56-4.13-36.25-3.75s-18.13,0.88-23.13,3.5s-5.13,4.19-3.19,6.13
			c-0.31,1.44-1.25,3.63,2.63,6.88s6.69,4.63,7.25,4.63s1.31-0.25,1.31,0.31s-0.81,2.94,0,3.75s2.13,0.5,2.13,1.38
			s-0.75,8.13,0,8.13s2.81,0.5,3.63,1.31s1.75,1,1.75,0.44s-1.5-7.69,3.44-12c3.16-3.16,7.81-6.25,16.56-7.06s15.44,1.31,23,5.25
			s13.75,6.69,22.25,13.38s13.29,13.27,13.88,15.69c0.58,1.5-3.67,4.5-3.67,4.5s-52.08-0.42-54.42-0.42c-2.33,0-3.67-1.17-4.25-0.58
			c-0.58,0-2.58,1.92-0.58,3.92c0,0,2.17,2.83,18.33,2.25c2.33,0-6.33,1.33-6.33,1.33s-0.29,0.29,0.5,1.08
			c0.79,0.79,7.17,8,15.83,12.83c8.67,4.83,19.25,10.08,28.25,12.08c4.33,1.33,6.46,3.46,6.46,3.46s1.44-1.35,0-2.79
			s-1.13-4.83-7.29-12.33c0.67,0,1.92-0.92,11.42,14.92c1.92,1.92,3.71,3.55,6.58,6.42c2.65,2.65,8.42,6.5,13.58,8.33
			c5.17,1.83,28.33,7.08,32.25,9c-0.92-4.17-14.5-35.92-16.17-39c1.46,1.46,2.67,2.58,12.75,5.17c10.08,2.58,35.17,8.83,49.75,8.5
			c14.58-0.33,25.33-4.75,38-12.75c12.67-8,16.67-20.58,18-26.83c1.33-6.25,2.08-18.92-1.42-29.33c-1.75-5.17-2.5-7.08-2.83-8.42
			C337.38,206.87,337.38,206.54,337.38,206.54z M93.67,210.4c-0.72,0-2.23-0.91-3.52-2.47c-1.28-1.56-0.69-1.92-0.28-1.63
			c0,0,2.51,2.46,3.19,2.67c0.33,0.1,0.89,0.05,1.12,0.15C94.59,209.29,94.18,210.4,93.67,210.4z M97.03,204.62
			c-0.25-0.25,0.18-0.93,0.54-1.13c0.25-0.14,1.41-0.15,1.41-0.15c0.31,0,1.29,0.09,1.29-0.24c0-0.38-0.68-0.84-0.96-0.84
			c-0.61,0-0.47,0.7-0.98,0.7c-0.52,0-0.63-0.1-0.78-0.26c-0.16-0.16,0.03-0.76,0.33-1.05c0.3-0.3,0.53-0.55,1.14-0.55
			c0.78,0,1.21,0.66,1.84,1.29s0.89,0.67,1.47,0.81c0.59,0.14,1.69,0.46,2.71,0.87c0.74,0.3,0.93,0.4,0.93,0.57
			c0,0.51-1.51,0.11-2.02-0.02c-1.25-0.31-2.7-0.14-3.48-0.14c-0.78,0-0.92,0.09-1.58,0.23C98.23,204.85,97.28,204.87,97.03,204.62z
			 M111.5,210.75c-0.24,0.24-0.83,0.31-1.75,0.5c-0.9,0.18-3.4,0.48-5.41,1.81c-1.19,0.79-2.88,2.8-2.8,3.58
			c0.1,1.04,1.32,0.93,0.33,1.69c-1.46,1.12-1.8,2.18-2.5,1.79c-1.04-0.58-0.62-3.75,0.21-5.13c0.83-1.38,2.13-2.92,5.04-4.04
			c2.92-1.13,6.96-0.83,6.96-0.83S111.93,210.32,111.5,210.75z M184.69,234.77c-1.98-3-4.13-5.54-9.75-11.16
			c-3.74-3.32-8.47-6.57-15.67-9.6c-1.84-1.15,0.41-0.76,0.41-0.76s6.98,1.85,14.12,6.83c3.55,2.47,8.59,7.05,10.98,10.96
			c7.16,11.71,5.39,12.95,4.84,11.91C188.61,241.03,187.92,239.67,184.69,234.77z M186.23,254.36c-0.69,0.2-0.33-0.38,0.19-0.77
			c0.69-0.52,1.39-1.23,2.03-2.13c0.22-0.31,1.2-1.44,1.2-6.64c0,0,0.17-1.34,1.09-0.21C191.52,245.56,192.07,252.7,186.23,254.36z
			 M194.46,255.79c-2.36,1.22,1.25-1.75,3.08-4.5s5-6.42,5-15.83c-0.33-7.42-4.97-12.57-7.5-17.25l7.42,1c0,0,6.75,8.58,4.5,19.42
			C205.16,247.07,199.37,252.96,194.46,255.79z M206.78,254.13c-0.69,0.69-3.8,2.22-2.01,0.43c1.79-1.79,5.52-7.1,6.27-11.77
			c0.75-4.67,2-8.5-4.88-20.58l6.71-0.13c0,0,4.13,7.99,4.08,12.88C216.85,245.37,212.57,249.33,206.78,254.13z M225.71,241.37
			c-3,8.54-7.76,11.43-7.76,11.43s-2.59,2.01-2.11,0.98c0.67-1.42,3.48-4.48,4.71-9.75c1.3-5.58,1.21-12.96-4.83-19l6.92-0.08
			C222.63,224.96,228.18,234.33,225.71,241.37z"/>
		<g>
			<path class="st0" d="M190.21,244.46"/>
			<path class="st0" d="M175.98,239.25c0,0,0.14,3.56,0.78,4.34c0.72,0.88,1.16,1.47,1.16,2.09s-0.38,1.25-0.38,1.25l-0.34,0.34
				h-6.16c0,0-0.5-1.97,0.22-3.63C171.58,242.92,172.48,241.12,175.98,239.25z"/>
			<path class="st0" d="M160.56,236.21c0,0-3.52,2.88-5.02,5.88s-1.16,5.03-1.16,5.03h11.94c0,0,0.25-0.51-1.06-2
				c-1.41-1.59-1.97-2.34-2.91-4.31C161.38,238.75,160.56,236.21,160.56,236.21z"/>
			<path class="st0" d="M144.73,235.68c0,0,1.05,3.25,3.93,6.85c2.03,2.46,4.13,3.84,4.13,3.84s0.22,0.47,0,0.69
				c-0.22,0.22-10.59,0.03-10.59,0.03S140.63,239.37,144.73,235.68z"/>
			<path class="st0" d="M131.57,238.87c0,0-0.04-3.02,0.58-1.83c0.38,0.72,2.13,3.08,3.92,5.03c1.17,1.28,2.46,2.28,3.06,2.87
				c1.5,1.5,1.03,2,1.03,2h-8c0,0,0.14-0.84-0.16-3.16C131.71,241.42,131.57,238.87,131.57,238.87z"/>
			<path class="st0" d="M122.7,238.89c1.04,1.5,3.25,3.39,4.06,4.2c0.88,0.88,4.13,2.53,4.66,3.91c-0.88,0-8.94,0-8.94,0
				s-1.94-5.63-1.25-9.5C121.23,237.5,121.74,237.51,122.7,238.89z"/>
			<path class="st0" d="M162.92,226.43c0,0,0.22-0.97,1.19,0c0.97,0.97,5.94,5.31,7.5,6.25c0.44,0.44,0.54,0.68-0.38,1.98
				c-0.93,1.32-2.94,5.33-3.47,7.07c-1.61-0.59-3.35-2.65-3.76-4.18C163.18,234.44,162.92,232.06,162.92,226.43z"/>
			<path class="st0" d="M150.85,218.25c0,0,9.03,4.97,11.13,7.06c0.5,0.5-0.34,0.65-1.09,1.08c-1.94,1.11-3.83,4.35-5.78,6.86
				c-2.07,2.66-3.66,5.81-4.16,4.38S148.67,230.06,150.85,218.25z"/>
			<path class="st0" d="M133.85,211.18c0,0,5.44,0.88,14.69,5.75c-0.58,1.06-2.9,2.13-3.92,3.58c-0.85,1.22-2.19,2.22-3.79,8.01
				c-1.23,4.45-1.41,7.76-1.85,7.53c-0.45-0.23-2.01-0.74-3.67-3.92C133.58,228.83,131.79,221.31,133.85,211.18z"/>
			<path class="st0" d="M118.29,210.37c0,0,7.52-0.48,13.21,0.33c-0.56,2.31-2.72,7.84-4.08,12.71c-0.92,3.29-1.33,5.91-1.5,8.4
				c-0.07,1.12-1.21,0.09-4.02-3.54C118.71,224.16,116.54,219.87,118.29,210.37z"/>
			<path class="st0" d="M115.88,211.19c-3.48,1.36-8.72,2.6-12.97,11.49c0,1.06,0.45,1.94,2.38,4.19
				c4.75,5.54,10.88,9.56,10.88,9.56s0.75,0.19,0.38-2.13c-0.41-2.55-0.44-14.21-0.44-14.98
				C116.1,215.33,117.29,210.58,115.88,211.19z"/>
		</g>
		<path d="M170.12,200.47c-0.6-0.28-1.43-0.85-1.78-1.2c-0.35-0.35-0.28-1.49-0.28-1.49s-0.88,0-2.38,0
			c-9.88,0.44-13.83,3.29-13.83,3.29s-0.04,0.46,0.31,0.81c0.54,0.54,1.94,1.11,2.69,1.25c0.75,0.15,2.77-0.23,2.77-0.23
			s0.82,0.06,1.2,0.44c0.38,0.38,0.55,0.62,1.16,1.23c0.61,0.61,1.96,1.13,2.95,1.92c0.99,0.79,1.57,2.18,1.57,2.18
			s2.68-1.7,5.14-3.72c2.25-1.86,2.71-2.01,3.21-3.69C171.15,200.61,171.13,200.93,170.12,200.47z M167.01,204.47
			c-0.53,0.81-1.53,1.38-1.78,1.38s-1.73-0.43-2.63-0.84c-0.46-0.21-2.38-1.08-3.66-3.63c0,0,2.55-0.5,2.86-0.19
			c0.05,1.02,0.27,1.44,0.64,1.81s1.38-0.5,1.99-1.37c0.51-0.72,0.61-1.42,0.61-1.42s2.31-0.2,2.75,0.23
			S167.54,203.65,167.01,204.47z"/>
	</g>
</g>
</svg>
