<?xml version="1.0" standalone="no"?>
<!DOCTYPE svg PUBLIC "-//W3C//DTD SVG 20010904//EN"
 "http://www.w3.org/TR/2001/REC-SVG-20010904/DTD/svg10.dtd">
<svg version="1.0" xmlns="http://www.w3.org/2000/svg"
 width="300.000000pt" height="300.000000pt" viewBox="0 0 300.000000 300.000000"
 preserveAspectRatio="xMidYMid meet">
<metadata>
Created by potrace 1.11, written by Peter Selinger 2001-2013
</metadata>
<g transform="translate(0.000000,300.000000) scale(0.100000,-0.100000)"
fill="#000000" stroke="none">
<path d="M1266 2809 c-297 -39 -537 -171 -650 -358 -59 -96 -79 -171 -82 -301
-7 -285 103 -458 374 -594 107 -54 300 -121 403 -141 12 -2 29 -7 39 -10 10
-3 27 -7 37 -10 89 -18 264 -62 360 -91 264 -79 383 -171 408 -314 18 -102 8
-185 -32 -264 -79 -158 -298 -247 -607 -248 -183 0 -331 31 -444 94 -82 46
-181 149 -219 228 -36 75 -63 187 -63 259 0 28 -4 52 -10 52 -78 10 -177 -26
-224 -82 -39 -46 -57 -95 -63 -174 -20 -261 181 -492 527 -605 58 -19 194 -46
275 -56 39 -5 331 -5 370 0 159 19 232 35 338 72 145 53 262 128 350 224 56
62 122 182 132 240 3 19 10 51 14 70 8 35 6 208 -2 245 -60 264 -226 411 -602
534 -79 26 -146 45 -195 57 -8 2 -42 10 -76 18 -34 8 -72 17 -85 20 -13 2 -71
16 -129 30 -398 100 -524 200 -534 422 -8 178 101 310 303 368 85 25 136 30
281 30 160 0 208 -6 301 -38 199 -69 293 -194 353 -467 5 -24 8 -25 58 -21 57
4 130 32 161 60 35 31 59 94 62 157 9 270 -232 496 -615 575 -118 25 -393 35
-514 19z"/>
</g>
</svg>
